<svg xmlns="http://www.w3.org/2000/svg" width="168.79" height="49.54" viewBox="0 0 168.79 49.54"><defs><style>.a{fill:#1d4595;}</style></defs><g transform="translate(-22.9 582.314)"><g transform="translate(22.899 -582.314)"><path class="a" d="M92.092,110.256H94.3v-1.914h-2.21Zm73.522-18.325h-2.2v1.9h2.2Zm-45.259,16.96h2.2V107h-2.2Zm7.124-5.593Zm-39.225,6.957h2.214v-1.914H88.254Zm32.013-14.151a8.635,8.635,0,0,0-3.726.8v3.706h2.2v-2.78a3.626,3.626,0,0,1,1.636-.328c2.256,0,4.654,2.093,4.654,5.936h0a3.17,3.17,0,0,1-.062.545H114.792l.018-.5a6.983,6.983,0,0,0-7.218-7.371,8.655,8.655,0,0,0-3.726.8v3.706h2.2v-2.78a3.6,3.6,0,0,1,1.637-.328c2.254,0,4.648,2.093,4.648,5.936l-.007.545H101.666V95.26h-2c-5.373,0-5.545,2.717-5.545,5.92v2.847c0,1.568-.568,1.871-1.422,1.871H90.987c-1.1,0-2.919-.177-2.919-4.1,0-3.316,1.479-4.768,4.419-4.744v-1.3c-2.266,0-3.682.428-5.011,1.676a5.763,5.763,0,0,0-1.611,4.4c0,4.068,1.819,5.443,4.3,5.443h3.1c1.972,0,3.062-1.227,3.062-3.463v-2.924c0-2.749.425-4.249,3.128-4.249v8.731h27.763a11.789,11.789,0,0,0,.26-2.076A6.976,6.976,0,0,0,120.268,96.105Zm39.944,2.517c0,2.155,1.52,3.547,4.085,3.547h1.57v.192c0,1.074-.513,1.62-1.465,1.62h-6.667c-2.749,0-3.775-.758-3.775-2.964V96.758h-2.2v4.6c0,3.1,1.449,4.013,5.635,4.013h7.528a2.73,2.73,0,0,0,2.339-1.079,3.608,3.608,0,0,0,.751-2.346V95.26h-3.421C161.6,95.26,160.212,96.379,160.212,98.622Zm5.589-1.979V100.9h-.915a2.216,2.216,0,0,1-2.513-2.179c0-1.36.786-2.078,2.41-2.078Zm-36.2,8.731h2.21V90.69H129.6Zm67.948-7.411c-2-1.772-5.919-1.142-7.161-.908v6.925h-2.094c.045-.193.083-.675.083-.675.295-3.669-1.877-5.728-4.929-5.728a7.876,7.876,0,0,0-6.05,3.563l-.317.491V98h-2.212v3.973c0,1.384-.467,2.011-1.483,2.011H172.34V96.758h-2.2v8.692a5.006,5.006,0,0,1-.379,2.6,1.773,1.773,0,0,1-1.007.817v.691c2.509-.054,3.591-1.3,3.591-4.18h21.43c2.93,0,4.978-1.694,4.978-4.289A3.9,3.9,0,0,0,197.548,97.964Zm-11.341,5.219c0,.021-.091.8-.091.8h-8.56l.144-.273c1.61-3.124,3.61-4.568,5.844-4.466C185.5,99.319,186.385,100.975,186.207,103.182Zm7.188.8h-.8V98.333a2.724,2.724,0,0,1,.794-.087c2.033,0,3.162,1.066,3.162,2.883A2.841,2.841,0,0,1,193.394,103.981Zm-50.682,1.394h2.216V90.69h-2.216Zm-4.323-3.447c0,1.71-.8,2.054-1.486,2.054h-.765V96.758h-2.208v8.692a5.011,5.011,0,0,1-.379,2.6,1.739,1.739,0,0,1-1.01.817v.691c2.512-.054,3.6-1.3,3.6-4.18h1.3a2.829,2.829,0,0,0,2.387-1.094,3.747,3.747,0,0,0,.765-2.412V90.69h-2.2C138.39,91.3,138.39,101.927,138.39,101.927Z" transform="translate(-85.864 -90.09)"/><g transform="translate(122.082 0)"><path class="a" d="M1267.429,84.879v48.706h46.708V84.879Zm43.494,45.357h-40.286v-42h40.286Z" transform="translate(-1267.429 -84.879)"/><path class="a" d="M1354.856,173.484v7.97l-7.086,4.276V195.3l7.859,4.787h.009c.021,0,7.222-4.235,7.222-4.235l6.954,4.235,8.052-4.848v-9.513l-7.091-4.276v-7.97l-7.914-4.775Zm0,11.84v5.741l4.748,2.863-3.895,2.352-4.723-2.86v-5.763Zm8-12.788,4.728,2.86v13.738c-.034.019-4.7,2.823-4.728,2.849-.033-.026-4.759-2.83-4.786-2.849V175.4Zm7.915,18.537v-5.75l3.887,2.332v5.763l-4.744,2.859-3.887-2.352Z" transform="translate(-1339.469 -160.047)"/></g><g transform="translate(0.091 30.673)"><rect class="a" width="2.204" height="14.683" transform="translate(14.447 0)"/><path class="a" d="M92.2,388.715l-5.458,13.964h2.068l1.412-3.913h5.294l1.281,3.913h2.553l-5.039-13.964H92.2Zm.789,2.458,2.063,6.2H90.735Z" transform="translate(-86.741 -387.995)"/><path class="a" d="M774.762,388.716V402.68h4.168c3.062,0,5.051-1.6,5.051-4.053a3.474,3.474,0,0,0-3.456-3.354v-.348a3.445,3.445,0,0,0,2.593-3.355c0-1.853-1.447-2.854-3.774-2.854Zm2.2,1.374h1.609c1.43,0,2.284.758,2.284,2.016a2.633,2.633,0,0,1-2.848,2.583h-1.044v-4.6Zm0,5.982h1.914c1.816,0,2.894.966,2.894,2.585a2.585,2.585,0,0,1-2.875,2.627h-1.933Z" transform="translate(-703.674 -387.996)"/><path class="a" d="M1095.335,381.749v14.684h2.205v-5.813l4.125,5.982,2.162-.793-3.825-5.1,2.931-3.609-1.976-.979-3.416,4.456v-8.833Z" transform="translate(-991.125 -381.749)"/><path class="a" d="M986.583,427.317l-.307.345v-1.508h-2.2v9.884h2.211v-5.922a2.453,2.453,0,0,1,2.459-2.753c1.375,0,2.194.921,2.194,2.572v6.1h2.209v-6.42c0-2.461-1.13-3.7-3.344-3.7A4.237,4.237,0,0,0,986.583,427.317Z" transform="translate(-891.365 -421.354)"/><rect class="a" width="2.206" height="9.884" transform="translate(61.633 4.8)"/><rect class="a" width="2.206" height="1.904" transform="translate(61.633 1.239)"/><rect class="a" width="2.204" height="1.908" transform="translate(45.509 1.239)"/><path class="a" d="M572.056,381.748v14.683h2.194v-5.922a2.461,2.461,0,0,1,2.465-2.753c1.387,0,2.2.921,2.2,2.572v6.1h2.209v-6.42c0-2.461-1.116-3.7-3.339-3.7a4.252,4.252,0,0,0-3.229,1.4l-.313.345v-6.308h-2.183Z" transform="translate(-521.912 -381.748)"/><path class="a" d="M317.963,388.716V402.68h2.207v-5.911h1.847L324.9,402.9c.225-.042,2.138-.408,2.524-.481l-3.221-6.063.149-.086a4.384,4.384,0,0,0,2.232-4c0-2.227-1.58-3.554-4.226-3.554Zm2.207,1.374h1.819a2.234,2.234,0,0,1,2.382,2.428,2.7,2.7,0,0,1-2.693,2.866H320.17Z" transform="translate(-294.073 -387.996)"/><path class="a" d="M515.159,428.2v9.959a7.652,7.652,0,0,1-.378,2.6,1.526,1.526,0,0,1-1.009.813v.7c2.516-.059,3.591-1.305,3.591-4.183V428.2Z" transform="translate(-469.65 -423.401)"/><path class="a" d="M885.865,425.919a5.258,5.258,0,0,0-3.524,1.248c.13.207.5.774.637.979a3.793,3.793,0,0,1,2.552-.964,1.89,1.89,0,0,1,1.84,1.734l.025.164-2.344.725c-2.4.7-3.514,1.835-3.514,3.556a2.7,2.7,0,0,0,2.637,2.923,4.252,4.252,0,0,0,3.287-1.954v1.709h2.248v-6.5C889.711,427.137,888.414,425.919,885.865,425.919Zm.644,8.209a1.908,1.908,0,0,1-1.394.706,1.546,1.546,0,0,1-1.353-1.707,2.552,2.552,0,0,1,2.048-2.538c0,.007,1.447-.48,1.447-.48l.235-.086.018.239A5.047,5.047,0,0,1,886.509,434.128Z" transform="translate(-799.418 -421.355)"/><path class="a" d="M429.041,425.919a5.271,5.271,0,0,0-3.527,1.248c.13.207.5.774.639.979a3.8,3.8,0,0,1,2.555-.964,1.887,1.887,0,0,1,1.845,1.734l.026.164-2.352.725c-2.392.7-3.5,1.835-3.5,3.556a2.7,2.7,0,0,0,2.63,2.925,4.245,4.245,0,0,0,3.286-1.956v1.709h2.25v-6.5C432.889,427.137,431.594,425.919,429.041,425.919Zm.65,8.209a1.932,1.932,0,0,1-1.392.706,1.549,1.549,0,0,1-1.362-1.707,2.552,2.552,0,0,1,2.054-2.535s1.449-.482,1.449-.482l.229-.086.018.239A5.076,5.076,0,0,1,429.691,434.128Z" transform="translate(-389.802 -421.355)"/></g></g></g></svg>