<svg xmlns="http://www.w3.org/2000/svg" width="96.364" height="109.251" viewBox="0 0 96.364 109.251"><defs><style>.a{fill:#e6e6e6;}.b{fill:#3f3d56;}.c{opacity:0.2;}.d{fill:#6c63ff;}.e{fill:#45b7c4;}.f{fill:#59c0a1;opacity:0.849;}</style></defs><g transform="translate(-22.709)"><path class="a" d="M337.745,188.963l-14.092,23.258.029,2.363q-1.546.012-3.063-.052l.7-30.373-.019-.234.026-.045.066-2.871L305.93,158.558l15.445,20.3.055.606.529-22.948L308.6,133.244,322,152.489l-.092-31.036-.029-10.16h.135l.24,10.16.5,20.961,12.171-15.221-12.133,18.448.266,20.527,11.2-20.034L323.1,169.186l.147,11.413,16.29-27.906-16.24,31.887.331,25.38Z" transform="translate(-283.036 -111.293)"/><path class="a" d="M507.533,189.575l-4.459,8.756L491.9,220.265h-2.564l.055-2.374-13.471-19.56-1.992-2.892,2.2,2.892,13.246,17.411.055.606.416-18.018.113-4.93L476.6,170.126,490,189.371l-.14-47.543v-.158l0,.156.887,37.469,12.172-15.221-12.133,18.448.2,15.808.061,4.719,2.638-4.719,8.564-15.315-7.415,15.315-3.745,7.736.147,11.413,11.18-19.15Z" transform="translate(-388.461 -118.822)"/><path class="b" d="M423.654,734.553c0,2.028-18.773,8.116-41.932,8.116s-41.932-6.088-41.932-8.116,18.773.773,41.932.773S423.654,732.525,423.654,734.553Z" transform="translate(-311.436 -633.418)"/><path class="c" d="M423.654,734.553c0,2.028-18.773,8.116-41.932,8.116s-41.932-6.088-41.932-8.116,18.773.773,41.932.773S423.654,732.525,423.654,734.553Z" transform="translate(-311.436 -633.418)"/><ellipse class="b" cx="41.932" cy="3.671" rx="41.932" ry="3.671" transform="translate(28.355 97.463)"/><ellipse class="c" cx="17.257" cy="1.613" rx="17.257" ry="1.613" transform="translate(52.707 99.89)"/><path class="b" d="M473.717,510.923h-18.85v.119H409.791v6.532a30.4,30.4,0,0,0,30.4,30.4h0A30.385,30.385,0,0,0,466.452,532.9h7.265a10.986,10.986,0,1,0,0-21.972Zm0,18.585h-5.559a30.3,30.3,0,0,0,2.433-11.934V514.31h3.126a7.6,7.6,0,1,1,0,15.2Z" transform="translate(-370.147 -446.472)"/><path class="d" d="M427.291,529.163v3.709a27.578,27.578,0,0,0,55.156,0v-3.709Z" transform="translate(-384.824 -461.771)"/><path class="a" d="M515.68,576.557l-6.314-6.507a3.45,3.45,0,0,1,.074-4.878l9.549-9.265a2.431,2.431,0,0,1,.791-.513l2.074-.829a2.431,2.431,0,0,1,2.646.565l6.593,6.795a2.43,2.43,0,0,1,.518,2.582l-.7,1.774a2.43,2.43,0,0,1-.569.855l-9.785,9.495A3.45,3.45,0,0,1,515.68,576.557Z" transform="translate(-452.846 -482.93)"/><rect class="b" width="4.404" height="0.661" transform="translate(72.567 74.721) rotate(45.863)"/><path class="b" d="M621.354,511.432c.558-1.324,2.222-1.61,3.459-1.872,1.315-.279,2.814-.765,3.36-2.133A1.813,1.813,0,0,0,628,505.7a1.674,1.674,0,0,0-1.448-.784c-1.225.11-1.443,1.557-.975,2.469.632,1.232,2.254,1.34,3.468,1.37a7.48,7.48,0,0,0,3.5-.545,2.877,2.877,0,0,0,1.615-2.716,14.814,14.814,0,0,0-.872-3.412,3.286,3.286,0,0,1,.4-3.178,5.13,5.13,0,0,1,3.1-1.391c.285-.045.572-.076.86-.1.308-.025.311-.509,0-.484-2.06.166-4.759.875-5.054,3.307a7.687,7.687,0,0,0,.624,3.246,4.55,4.55,0,0,1,.281,3.071,3.046,3.046,0,0,1-2.556,1.629,10.188,10.188,0,0,1-1.689.091,7.769,7.769,0,0,1-1.946-.2,2,2,0,0,1-1.332-.961,1.459,1.459,0,0,1-.038-1.294.837.837,0,0,1,1.181-.3,1.384,1.384,0,0,1,.7,1.334c-.177,1.371-1.744,1.921-2.891,2.177-1.263.282-2.689.488-3.592,1.522a2.709,2.709,0,0,0-.458.743.244.244,0,0,0,.169.3.248.248,0,0,0,.3-.169Z" transform="translate(-547.192 -434.734)"/><circle class="a" cx="1.774" cy="1.774" r="1.774" transform="translate(52.869 71.182)"/><circle class="a" cx="1.774" cy="1.774" r="1.774" transform="translate(85.446 77.795)"/><circle class="a" cx="1.29" cy="1.29" r="1.29" transform="translate(77.06 87.633)"/><path class="a" d="M323.025,712.753a34.951,34.951,0,0,0,11.083.307,17.046,17.046,0,0,0-8-3.949,34.952,34.952,0,0,0-11.083-.307A17.047,17.047,0,0,0,323.025,712.753Z" transform="translate(-290.668 -612.181)"/><path class="e" d="M314.95,726.51a30.816,30.816,0,0,0,10.6-1.683,27.921,27.921,0,0,0-10.169-2.282,30.814,30.814,0,0,0-10.6,1.683A27.921,27.921,0,0,0,314.95,726.51Z" transform="translate(-282.073 -623.956)"/><path class="e" d="M345.881,695.821c4.1,2.066,10.133,2.324,10.133,2.324s-.609-3.091-4.707-5.157-10.133-2.324-10.133-2.324S341.783,693.755,345.881,695.821Z" transform="translate(-312.596 -597.225)"/><path class="f" d="M426.791,529.663v3.709a27.578,27.578,0,1,0,55.156,0v-3.709Z" transform="translate(-384.405 -462.19)"/><path class="a" d="M320.7,549.779c-.937,1.453-1.979,1.5-2.861.931l-.061-.04q-.06-.041-.117-.085c-.752-.581-1.027-1.513-.156-2.865.9-1.4,3.519-2.211,3.714-2.27h0l.011,0S321.638,548.326,320.7,549.779Z" transform="translate(-292.292 -475.429)"/><path class="a" d="M723.7,318.6c-.937,1.453-1.979,1.5-2.861.931l-.061-.04q-.06-.041-.117-.085c-.752-.581-1.027-1.513-.156-2.865.9-1.4,3.519-2.211,3.714-2.27h0l.011,0S724.638,317.15,723.7,318.6Z" transform="translate(-630.298 -281.536)"/><path class="a" d="M492.057,265.912c1.171,1.272.954,2.292.182,3l-.054.049q-.055.048-.112.092c-.752.582-1.723.614-2.812-.569-1.127-1.224-1.255-3.962-1.263-4.165h0v-.012S490.886,264.641,492.057,265.912Z" transform="translate(-435.741 -239.632)"/><path class="a" d="M718.113,495.868l-2.779,1.4a1.145,1.145,0,0,1-1.553-.45l-1.912-3.791a.729.729,0,0,1-.077-.292l-.036-.72a.837.837,0,0,1,.473-.777l2.9-1.464a.84.84,0,0,1,.883.064l.491.373a.73.73,0,0,1,.211.253l1.959,3.884A1.145,1.145,0,0,1,718.113,495.868Z" transform="translate(-623.412 -428.657)"/><rect class="b" width="1.512" height="0.211" transform="matrix(0.893, -0.45, 0.45, 0.893, 89.725, 62.52)"/><rect class="e" width="3.346" height="0.968" transform="translate(89.493 64.018) rotate(-26.507)"/><rect class="e" width="3.346" height="0.968" transform="translate(90.138 65.147) rotate(-26.507)"/><rect class="e" width="3.346" height="0.968" transform="translate(90.783 66.437) rotate(-26.507)"/></g></svg>