<svg xmlns="http://www.w3.org/2000/svg" width="60.048" height="69.45" viewBox="0 0 60.048 69.45"><defs><style>.a{fill:#fff3d3;}.b{fill:#2c8dc9;}.c{fill:#302971;}.d{fill:#1d1c2c;}.e{fill:#ffd876;}.f{fill:#f79f8f;}</style></defs><g transform="translate(-0.499 0.001)"><path class="a" d="M29.692,9.973,11.328,28.588H29.692Zm0,0" transform="translate(-9.36 -8.621)"/><path class="b" d="M165.075,28.588,146.711,9.973V28.588Zm0,0" transform="translate(-126.379 -8.621)"/><path class="c" d="M10.612,147.211l-.112.105,18.476,25.6V147.211Zm0,0" transform="translate(-8.645 -127.244)"/><path class="d" d="M146.711,147.211v25.707l18.476-25.6-.112-.105Zm0,0" transform="translate(-126.379 -127.244)"/><path d="M373.47,96.156a1.31,1.31,0,0,1-.265-.026,1.359,1.359,0,0,1-.253-.078,1.246,1.246,0,0,1-.235-.125,1.263,1.263,0,0,1-.206-.168,1.342,1.342,0,0,1-.295-.441,1.406,1.406,0,0,1-.077-.254,1.388,1.388,0,0,1,0-.529,1.444,1.444,0,0,1,.077-.255,1.4,1.4,0,0,1,.125-.234,1.382,1.382,0,0,1,.17-.206,1.264,1.264,0,0,1,.206-.168,1.347,1.347,0,0,1,.235-.125,1.294,1.294,0,0,1,.253-.077,1.368,1.368,0,0,1,1.224.37,1.311,1.311,0,0,1,.168.206,1.392,1.392,0,0,1,.125.234,1.283,1.283,0,0,1,.077.255,1.282,1.282,0,0,1,0,.529,1.252,1.252,0,0,1-.077.254,1.343,1.343,0,0,1-.125.235,1.285,1.285,0,0,1-.168.206A1.368,1.368,0,0,1,373.47,96.156Zm0,0" transform="translate(-321.207 -80.77)"/><path class="e" d="M109.493,371.227l-6.928,3.464-6.928-3.464v8.15l6.928-3.464,6.928,3.464Zm0,0" transform="translate(-82.233 -320.873)"/><path class="e" d="M344.892,182.7l-6.928,3.464-6.928-3.464v8.15l6.928-3.464,6.928,3.464Zm0,0" transform="translate(-285.701 -157.922)"/><path class="f" d="M344.892,294.563l-6.928,3.464-6.928-3.464v8.15l6.928-3.464,6.928,3.464Zm0,0" transform="translate(-285.701 -254.608)"/><path d="M58.584,34.145a1.359,1.359,0,0,0,1.581-.269,1.4,1.4,0,0,0,.382-.981V24.82a1.4,1.4,0,0,0-.392-.993,1.357,1.357,0,0,0-1.571-.259l-4.965,2.482V20.014a1.387,1.387,0,0,0-1.266-1.4,1.357,1.357,0,0,0-1.447,1.354v6.083l-4.929-2.464a1.4,1.4,0,0,0-1.063-.094,1.357,1.357,0,0,0-.936,1.29v8.112a1.4,1.4,0,0,0,.392.993,1.358,1.358,0,0,0,1.572.259l4.965-2.482v9.561l-4.965-2.482A1.358,1.358,0,0,0,44.37,39a1.4,1.4,0,0,0-.392.993v8.073a1.4,1.4,0,0,0,.392.993,1.358,1.358,0,0,0,1.572.259l4.965-2.482V56.849a4.489,4.489,0,0,1-4.493,4.5,4.422,4.422,0,0,1-4.341-4.415V42.9a5.813,5.813,0,0,0-5.831-5.832A5.738,5.738,0,0,0,30.61,42.8V62.266a4.459,4.459,0,0,1-4.42,4.469,4.636,4.636,0,0,1-4.5-4.412V57.235l4.965,2.482a1.359,1.359,0,0,0,1.581-.269,1.4,1.4,0,0,0,.382-.98V50.392a1.4,1.4,0,0,0-.393-.993,1.358,1.358,0,0,0-1.571-.259l-4.965,2.482V46.112L39.907,20.867a1.357,1.357,0,0,0-.171-1.782L39.644,19,21.3.4l-.032-.03a1.365,1.365,0,0,0-1.9.03h0L1.02,19l-.093.087a1.356,1.356,0,0,0-.172,1.783l18.22,25.245v5.511L14.01,49.14a1.359,1.359,0,0,0-1.571.258,1.4,1.4,0,0,0-.393.993v8.075a1.4,1.4,0,0,0,.393.993,1.359,1.359,0,0,0,1.571.258l4.965-2.482v5.129c0,.025,0,.051,0,.076A7.35,7.35,0,0,0,26.2,69.448a7.2,7.2,0,0,0,7.12-7.207V42.869a3.067,3.067,0,0,1,2.9-3.09,3.021,3.021,0,0,1,3.135,3.015V56.817a7.13,7.13,0,1,0,14.259.12v-10.1l4.965,2.482a1.357,1.357,0,0,0,1.581-.269,1.4,1.4,0,0,0,.382-.98V39.993A1.4,1.4,0,0,0,60.155,39a1.358,1.358,0,0,0-1.571-.259l-4.965,2.482V31.663Zm-.75-7.169v3.76l-3.761-1.88Zm-11.143,3.76v-3.76l3.761,1.88Zm0,15.173v-3.76l3.761,1.88ZM25.9,52.548v3.761l-3.76-1.88ZM14.76,56.309V52.548l3.761,1.88Zm6.928-14.833V21.324H36.232Zm0-22.866V4.658L35.452,18.611ZM18.975,4.658V18.611H5.212Zm0,16.665V41.476L4.431,21.324ZM57.834,42.149v3.76l-3.761-1.88Zm0,0" transform="translate(0 0)"/></g></svg>