<svg xmlns="http://www.w3.org/2000/svg" width="64" height="64" viewBox="0 0 64 64"><defs><style>.a{fill:#656d78;}.b{fill:#545c66;}.c{fill:#ffd2a6;}.d{fill:#5d9cec;}.e{fill:#e6e9ed;}</style></defs><path class="a" d="M32,18A14,14,0,1,1,18,32,14.009,14.009,0,0,1,32,18Z"/><path class="b" d="M23,33.006A1,1,0,0,1,22.3,31.3l4-4a1,1,0,0,1,1.414,1.414l-4,4a1,1,0,0,1-.707.293Z"/><path class="b" d="M27,37.007a1,1,0,0,1-.707-.293l-4-4A1,1,0,1,1,23.709,31.3l4,4A1,1,0,0,1,27,37.007Z"/><path class="b" d="M41,33.006a1,1,0,0,1-.707-.293l-4-4A1,1,0,1,1,37.7,27.3l4,4A1,1,0,0,1,41,33.006Z"/><path class="b" d="M37,37.007a1,1,0,0,1-.707-1.707l4-4A1,1,0,0,1,41.7,32.713l-4,4A1,1,0,0,1,37,37.007Z"/><path class="b" d="M30.993,40.01A1,1,0,0,1,30,38.868L32,24.86a1,1,0,0,1,1.981.283l-2,14.008a1,1,0,0,1-.989.859Z"/><path class="c" d="M60.987,32.191a1.025,1.025,0,0,1-.3-.045,1,1,0,0,1-.658-1.252A21.516,21.516,0,0,0,33.044,3.986a1,1,0,1,1-.6-1.908,23.516,23.516,0,0,1,29.5,29.409A1,1,0,0,1,60.987,32.191Z"/><path class="c" d="M3.013,32.191a1,1,0,0,1-.955-.7,23.516,23.516,0,0,1,29.5-29.409,1,1,0,0,1-.6,1.908A21.516,21.516,0,0,0,3.968,30.9a1,1,0,0,1-.658,1.252,1.028,1.028,0,0,1-.3.044Z"/><path class="c" d="M24.5,63A23.516,23.516,0,0,1,2.058,32.512a1,1,0,1,1,1.91.594A21.516,21.516,0,0,0,30.956,60.014a1,1,0,0,1,.6,1.908A23.52,23.52,0,0,1,24.5,63Z"/><path class="c" d="M39.5,63a23.489,23.489,0,0,1-7.055-1.078,1,1,0,1,1,.6-1.908A21.516,21.516,0,0,0,60.032,33.1a1,1,0,0,1,1.91-.594A23.517,23.517,0,0,1,39.5,63Z"/><path class="a" d="M61,29H59.93a1,1,0,0,0,0,2h.035c.012.334.035.665.035,1s-.023.666-.035,1H59.93a1,1,0,0,0,0,2H61a3,3,0,0,0,0-6Z"/><path class="a" d="M35,3a3,3,0,0,0-6,0V4.07a1,1,0,0,0,2,0V4.035c.334-.012.665-.035,1-.035s.665.023,1,.034v.034a1,1,0,0,0,1,1h0a1,1,0,0,0,1-1L35,3Z"/><path class="a" d="M4.07,33H4.035C4.023,32.666,4,32.335,4,32s.023-.666.035-1H4.07a1,1,0,0,0,0-2H3a3,3,0,0,0,0,6H4.07a1,1,0,0,0,0-2Z"/><path class="a" d="M34,58.93a1,1,0,0,0-1,1v.035c-.334.012-.665.035-1,.035s-.666-.023-1-.035V59.93a1,1,0,0,0-2,0V61a3,3,0,0,0,6,0V59.93A1,1,0,0,0,34,58.93Z"/><path class="d" d="M53.21,53.21a29.937,29.937,0,0,1-8.53,5.99l-.85-1.82-3.38-7.25-.84-1.811a18.072,18.072,0,0,0,8.71-8.71l1.81.841,7.25,3.38,1.82.85a29.937,29.937,0,0,1-5.99,8.53Z"/><path class="d" d="M20.17,57.38l-.85,1.82A30.244,30.244,0,0,1,4.8,44.68l1.82-.85,7.25-3.38,1.81-.841a18.072,18.072,0,0,0,8.71,8.71l-.84,1.811Z"/><path class="e" d="M6.62,20.17l7.25,3.38-.01.03a20.007,20.007,0,0,0,.01,16.87L6.62,43.83A27.877,27.877,0,0,1,4.07,34C4.02,33.34,4,32.67,4,32s.02-1.34.07-2A27.984,27.984,0,0,1,6.6,20.21Z"/><path class="d" d="M10.79,10.79A29.937,29.937,0,0,1,19.32,4.8l.85,1.82,3.38,7.25.84,1.81a18.072,18.072,0,0,0-8.71,8.71l-1.81-.84L6.62,20.17,4.8,19.319a29.933,29.933,0,0,1,5.99-8.529Z"/><path class="e" d="M43.83,6.62l-3.38,7.25a20.027,20.027,0,0,0-16.9,0L20.17,6.62A27.777,27.777,0,0,1,30,4.069C30.66,4.02,31.33,4,32,4s1.34.02,2,.069A27.777,27.777,0,0,1,43.83,6.62Z"/><path class="d" d="M43.83,6.62l.85-1.82A30.248,30.248,0,0,1,59.2,19.319l-1.82.851-7.25,3.38-1.81.84a18.072,18.072,0,0,0-8.71-8.71l.84-1.81Z"/><path class="e" d="M59.93,30c.05.66.07,1.33.07,2s-.02,1.34-.07,2a27.933,27.933,0,0,1-2.55,9.83l-7.25-3.38a20.027,20.027,0,0,0,0-16.9l7.25-3.38A27.872,27.872,0,0,1,59.93,30Z"/><path class="e" d="M40.45,50.13l3.38,7.25A27.776,27.776,0,0,1,34,59.93c-.66.05-1.33.07-2,.07s-1.34-.021-2-.07a27.776,27.776,0,0,1-9.83-2.55l3.38-7.25a20.027,20.027,0,0,0,16.9,0Z"/></svg>