<svg xmlns="http://www.w3.org/2000/svg" width="56.414" height="59" viewBox="0 0 56.414 59"><defs><style>.a{fill:none;stroke:#424a60;stroke-linecap:round;stroke-miterlimit:10;stroke-width:2px;}.b{fill:#afb6bb;}.c{fill:#3083c9;}.d{fill:#2b77aa;}.e{fill:#efce4a;}.f{fill:#424a60;}.g{fill:#a1c8ec;}</style></defs><g transform="translate(-1.293)"><line class="a" y1="3.535" x2="3.535" transform="translate(48.515 10.08)"/><rect class="b" width="6.001" height="6" transform="translate(49.221 8.666) rotate(-45)"/><path class="c" d="M30.13,6a26.046,26.046,0,0,0-5.837.666V13h-8a1,1,0,1,0,0,2h8v5h-13a1,1,0,1,0,0,2h13v5h-18a1,1,0,0,0,0,2h18v5h-22a1,1,0,0,0,0,2h22v5h-16a1,1,0,0,0,0,2h16v5h-10a1,1,0,1,0,0,2h10v7.334A26,26,0,1,0,30.13,6Z"/><path class="d" d="M44,23.172a1,1,0,0,0-1.293-.1L29.76,32.433a3.564,3.564,0,1,0,4.981,4.975L44.1,24.464A1,1,0,0,0,44,23.172Z"/><path class="e" d="M43,21.293a1,1,0,0,0-1.293-.1L28.76,30.554a3.564,3.564,0,1,0,4.98,4.976L43.1,22.586A1,1,0,0,0,43,21.293Z"/><path class="f" d="M28.293,6.084c.661-.05,1.326-.084,2-.084s1.339.034,2,.084V3h2.5a1.5,1.5,0,0,0,1.5-1.5h0a1.5,1.5,0,0,0-1.5-1.5h-9a1.5,1.5,0,0,0-1.5,1.5h0a1.5,1.5,0,0,0,1.5,1.5h2.5Z"/><path class="g" d="M30.293,5a1,1,0,0,0-1,1V9a1,1,0,1,0,2,0V6A1,1,0,0,0,30.293,5Z"/><path class="g" d="M30.293,54a1,1,0,0,0-1,1v3a1,1,0,0,0,2,0V55A1,1,0,0,0,30.293,54Z"/><path class="g" d="M56.13,31h-3a1,1,0,0,0,0,2h3a1,1,0,1,0,0-2Z"/><path class="g" d="M43.63,8.617a1,1,0,0,0-1.366.366l-1.5,2.6a1,1,0,1,0,1.732,1l1.5-2.6A1,1,0,0,0,43.63,8.617Z"/><path class="g" d="M53.146,44.134l-2.6-1.5a1,1,0,1,0-1,1.732l2.6,1.5a1,1,0,0,0,1-1.732Z"/><path class="g" d="M42.5,51.419a1,1,0,0,0-1.732,1l1.5,2.6a1,1,0,0,0,1.732-1Z"/><path class="g" d="M50.05,21.5a.992.992,0,0,0,.5-.134l2.6-1.5a1,1,0,1,0-1-1.732l-2.6,1.5a1,1,0,0,0,.5,1.866Z"/></g></svg>