<svg style="position: absolute; width: 0; height: 0; overflow: hidden;" version="1.1" xmlns="http://www.w3.org/2000/svg" xmlns:xlink="http://www.w3.org/1999/xlink">
    <defs>
        <symbol id="icon-twitter" viewBox="0 0 26 28">
            <title>twitter</title>
            <path d="M25.312 6.375c-0.688 1-1.547 1.891-2.531 2.609 0.016 0.219 0.016 0.438 0.016 0.656 0 6.672-5.078 14.359-14.359 14.359-2.859 0-5.516-0.828-7.75-2.266 0.406 0.047 0.797 0.063 1.219 0.063 2.359 0 4.531-0.797 6.266-2.156-2.219-0.047-4.078-1.5-4.719-3.5 0.313 0.047 0.625 0.078 0.953 0.078 0.453 0 0.906-0.063 1.328-0.172-2.312-0.469-4.047-2.5-4.047-4.953v-0.063c0.672 0.375 1.453 0.609 2.281 0.641-1.359-0.906-2.25-2.453-2.25-4.203 0-0.938 0.25-1.797 0.688-2.547 2.484 3.062 6.219 5.063 10.406 5.281-0.078-0.375-0.125-0.766-0.125-1.156 0-2.781 2.25-5.047 5.047-5.047 1.453 0 2.766 0.609 3.687 1.594 1.141-0.219 2.234-0.641 3.203-1.219-0.375 1.172-1.172 2.156-2.219 2.781 1.016-0.109 2-0.391 2.906-0.781z"></path>
        </symbol>
        <symbol id="icon-facebook" viewBox="0 0 16 28">
            <title>facebook</title>
            <path d="M14.984 0.187v4.125h-2.453c-1.922 0-2.281 0.922-2.281 2.25v2.953h4.578l-0.609 4.625h-3.969v11.859h-4.781v-11.859h-3.984v-4.625h3.984v-3.406c0-3.953 2.422-6.109 5.953-6.109 1.687 0 3.141 0.125 3.563 0.187z"></path>
        </symbol>
        <symbol id="icon-google-plus" viewBox="0 0 36 28">
            <title>google-plus</title>
            <path d="M22.453 14.266c0 6.547-4.391 11.188-11 11.188-6.328 0-11.453-5.125-11.453-11.453s5.125-11.453 11.453-11.453c3.094 0 5.672 1.125 7.672 3l-3.109 2.984c-0.844-0.812-2.328-1.766-4.562-1.766-3.906 0-7.094 3.234-7.094 7.234s3.187 7.234 7.094 7.234c4.531 0 6.234-3.266 6.5-4.937h-6.5v-3.938h10.813c0.109 0.578 0.187 1.156 0.187 1.906zM36 12.359v3.281h-3.266v3.266h-3.281v-3.266h-3.266v-3.281h3.266v-3.266h3.281v3.266h3.266z"></path>
        </symbol>
        <symbol id="icon-linkedin" viewBox="0 0 24 28">
            <title>linkedin</title>
            <path d="M5.453 9.766v15.484h-5.156v-15.484h5.156zM5.781 4.984c0.016 1.484-1.109 2.672-2.906 2.672v0h-0.031c-1.734 0-2.844-1.188-2.844-2.672 0-1.516 1.156-2.672 2.906-2.672 1.766 0 2.859 1.156 2.875 2.672zM24 16.375v8.875h-5.141v-8.281c0-2.078-0.75-3.5-2.609-3.5-1.422 0-2.266 0.953-2.641 1.875-0.125 0.344-0.172 0.797-0.172 1.266v8.641h-5.141c0.063-14.031 0-15.484 0-15.484h5.141v2.25h-0.031c0.672-1.062 1.891-2.609 4.672-2.609 3.391 0 5.922 2.219 5.922 6.969z"></path>
        </symbol>
        <svg id="icon-instagram" viewBox="0 0 24 24">
        <title>Instagram</title>
        <path d="M12 0C8.74 0 8.333.015 7.053.072 5.775.132 4.905.333 4.14.63c-.789.306-1.459.717-2.126 1.384S.935 3.35.63 4.14C.333 4.905.131 5.775.072 7.053.012 8.333 0 8.74 0 12s.015 3.667.072 4.947c.06 1.277.261 2.148.558 2.913.306.788.717 1.459 1.384 2.126.667.666 1.336 1.079 2.126 1.384.766.296 1.636.499 2.913.558C8.333 23.988 8.74 24 12 24s3.667-.015 4.947-.072c1.277-.06 2.148-.262 2.913-.558.788-.306 1.459-.718 2.126-1.384.666-.667 1.079-1.335 1.384-2.126.296-.765.499-1.636.558-2.913.06-1.28.072-1.687.072-4.947s-.015-3.667-.072-4.947c-.06-1.277-.262-2.149-.558-2.913-.306-.789-.718-1.459-1.384-2.126C21.319 1.347 20.651.935 19.86.63c-.765-.297-1.636-.499-2.913-.558C15.667.012 15.26 0 12 0zm0 2.16c3.203 0 3.585.016 4.85.071 1.17.055 1.805.249 2.227.415.562.217.96.477 1.382.896.419.42.679.819.896 1.381.164.422.36 1.057.413 2.227.057 1.266.07 1.646.07 4.85s-.015 3.585-.074 4.85c-.061 1.17-.256 1.805-.421 2.227-.224.562-.479.96-.899 1.382-.419.419-.824.679-1.38.896-.42.164-1.065.36-2.235.413-1.274.057-1.649.07-4.859.07-3.211 0-3.586-.015-4.859-.074-1.171-.061-1.816-.256-2.236-.421-.569-.224-.96-.479-1.379-.899-.421-.419-.69-.824-.9-1.38-.165-.42-.359-1.065-.42-2.235-.045-1.26-.061-1.649-.061-4.844 0-3.196.016-3.586.061-4.861.061-1.17.255-1.814.42-2.234.21-.57.479-.96.9-1.381.419-.419.81-.689 1.379-.898.42-.166 1.051-.361 2.221-.421 1.275-.045 1.65-.06 4.859-.06l.045.03zm0 3.678c-3.405 0-6.162 2.76-6.162 6.162 0 3.405 2.76 6.162 6.162 6.162 3.405 0 6.162-2.76 6.162-6.162 0-3.405-2.76-6.162-6.162-6.162zM12 16c-2.21 0-4-1.79-4-4s1.79-4 4-4 4 1.79 4 4-1.79 4-4 4zm7.846-10.405c0 .795-.646 1.44-1.44 1.44-.795 0-1.44-.646-1.44-1.44 0-.794.646-1.439 1.44-1.439.793-.001 1.44.645 1.44 1.439z"/>
        </svg>
        <symbol id="icon-caret" viewBox="0 0 24 24">
            <title>caret</title>
            <path d="M7 10l5 5 5-5z" />
            <path d="M0 0h24v24H0z" fill="none" />
        </symbol>
        <symbol id="icon-menu" viewBox="0 0 24 24">
            <title>menu</title>
            <path d="M0 0h24v24H0z" fill="none"/>
            <path d="M3 18h18v-2H3v2zm0-5h18v-2H3v2zm0-7v2h18V6H3z"/>
        </symbol>
        <symbol id="icon-location" viewBox="0 0 430.114 430.114">
            <path d="M356.208,107.051c-1.531-5.738-4.64-11.852-6.94-17.205C321.746,23.704,261.611,0,213.055,0
            C148.054,0,76.463,43.586,66.905,133.427v18.355c0,0.766,0.264,7.647,0.639,11.089c5.358,42.816,39.143,88.32,64.375,131.136
            c27.146,45.873,55.314,90.999,83.221,136.106c17.208-29.436,34.354-59.259,51.17-87.933c4.583-8.415,9.903-16.825,14.491-24.857
            c3.058-5.348,8.9-10.696,11.569-15.672c27.145-49.699,70.838-99.782,70.838-149.104v-20.262
            C363.209,126.938,356.581,108.204,356.208,107.051z M214.245,199.193c-19.107,0-40.021-9.554-50.344-35.939
            c-1.538-4.2-1.414-12.617-1.414-13.388v-11.852c0-33.636,28.56-48.932,53.406-48.932c30.588,0,54.245,24.472,54.245,55.06
            C270.138,174.729,244.833,199.193,214.245,199.193z"/>
        </symbol>
        <symbol id="icon-mail" viewBox="0 0 512.001 512.001">
            <path d="M511.646,126.634c-0.021-14.449-11.782-26.189-26.227-26.189c-0.012,0-0.024,0-0.034,0L26.19,101.076
			c-7.005,0.009-13.588,2.746-18.535,7.706C2.709,113.743-0.009,120.334,0,127.337l0.355,258.029
			c0.009,7.005,2.746,13.588,7.706,18.535c4.951,4.938,11.526,7.655,18.519,7.655c0.012,0,0.025,0,0.035,0l459.194-0.631
			c14.458-0.02,26.207-11.799,26.19-26.261L511.646,126.634z M456.611,126.71L256.02,266.154L55.04,127.262L456.611,126.71z
			 M340.846,292.471l118.971,92.265l-407.972,0.56l119.696-92.825c5.722-4.439,6.764-12.675,2.326-18.399
			c-4.439-5.722-12.675-6.764-18.399-2.326L26.561,371.715l-0.32-232.475l222.344,153.657c2.244,1.551,4.849,2.325,7.455,2.325
			c2.617,0,5.236-0.783,7.485-2.346l221.912-154.264l0.336,233.066l-128.856-99.931c-5.719-4.437-13.959-3.396-18.397,2.326
			C334.081,279.795,335.122,288.033,340.846,292.471z"/>
        </symbol>
        <symbol id="icon-close" viewBox="0 0 24 24">
            <path d="M19 6.41L17.59 5 12 10.59 6.41 5 5 6.41 10.59 12 5 17.59 6.41 19 12 13.41 17.59 19 19 17.59 13.41 12z"/>
            <path d="M0 0h24v24H0z" fill="none"/>
        </symbol>
        <symbol id="icon-arrow" viewBox="0 0 292.359 292.359">
            <path d="M222.979,133.331L95.073,5.424C91.456,1.807,87.178,0,82.226,0c-4.952,0-9.233,1.807-12.85,5.424
                c-3.617,3.617-5.424,7.898-5.424,12.847v255.813c0,4.948,1.807,9.232,5.424,12.847c3.621,3.617,7.902,5.428,12.85,5.428
                c4.949,0,9.23-1.811,12.847-5.428l127.906-127.907c3.614-3.613,5.428-7.897,5.428-12.847
                C228.407,141.229,226.594,136.948,222.979,133.331z"/>
        </symbol>
        <symbol id="icon-arrow-top" viewBox="0 0 24 24"><path d="M0 0h24v24H0V0z" fill="none"/><path d="M4 12l1.41 1.41L11 7.83V20h2V7.83l5.58 5.59L20 12l-8-8-8 8z"/>
        </symbol>
        <symbol id="icon-arrow-bottom" viewBox="0 0 24 24"><path d="M0 0h24v24H0V0z" fill="none"/><path d="M20 12l-1.41-1.41L13 16.17V4h-2v12.17l-5.58-5.59L4 12l8 8 8-8z"/>
        </symbol>
        <symbol id="icon-visibility" viewBox="0 0 24 24">
            <path d="M0 0h24v24H0z" fill="none"/>
            <path d="M12 4.5C7 4.5 2.73 7.61 1 12c1.73 4.39 6 7.5 11 7.5s9.27-3.11 11-7.5c-1.73-4.39-6-7.5-11-7.5zM12 17c-2.76 0-5-2.24-5-5s2.24-5 5-5 5 2.24 5 5-2.24 5-5 5zm0-8c-1.66 0-3 1.34-3 3s1.34 3 3 3 3-1.34 3-3-1.34-3-3-3z"/>
        </symbol>
        <symbol id="icon-hidden" viewBox="0 0 24 24">
            <path d="M0 0h24v24H0zm0 0h24v24H0zm0 0h24v24H0zm0 0h24v24H0z" fill="none"/>
            <path d="M12 7c2.76 0 5 2.24 5 5 0 .65-.13 1.26-.36 1.83l2.92 2.92c1.51-1.26 2.7-2.89 3.43-4.75-1.73-4.39-6-7.5-11-7.5-1.4 0-2.74.25-3.98.7l2.16 2.16C10.74 7.13 11.35 7 12 7zM2 4.27l2.28 2.28.46.46C3.08 8.3 1.78 10.02 1 12c1.73 4.39 6 7.5 11 7.5 1.55 0 3.03-.3 4.38-.84l.42.42L19.73 22 21 20.73 3.27 3 2 4.27zM7.53 9.8l1.55 1.55c-.05.21-.08.43-.08.65 0 1.66 1.34 3 3 3 .22 0 .44-.03.65-.08l1.55 1.55c-.67.33-1.41.53-2.2.53-2.76 0-5-2.24-5-5 0-.79.2-1.53.53-2.2zm4.31-.78l3.15 3.15.02-.16c0-1.66-1.34-3-3-3l-.17.01z"/>
        </symbol>
        <symbol id="icon-left-arrow" viewBox="0 0 31.494 31.494">
        <path d="M10.273,5.009c0.444-0.444,1.143-0.444,1.587,0c0.429,0.429,0.429,1.143,0,1.571l-8.047,8.047h26.554
            c0.619,0,1.127,0.492,1.127,1.111c0,0.619-0.508,1.127-1.127,1.127H3.813l8.047,8.032c0.429,0.444,0.429,1.159,0,1.587
            c-0.444,0.444-1.143,0.444-1.587,0l-9.952-9.952c-0.429-0.429-0.429-1.143,0-1.571L10.273,5.009z"/>
        </symbol>
        <symbol id="icon-right-arrow" viewBox="0 0 31.49 31.49">
        <path d="M21.205,5.007c-0.429-0.444-1.143-0.444-1.587,0c-0.429,0.429-0.429,1.143,0,1.571l8.047,8.047H1.111
            C0.492,14.626,0,15.118,0,15.737c0,0.619,0.492,1.127,1.111,1.127h26.554l-8.047,8.032c-0.429,0.444-0.429,1.159,0,1.587
            c0.444,0.444,1.159,0.444,1.587,0l9.952-9.952c0.444-0.429,0.444-1.143,0-1.571L21.205,5.007z"/>
        </symbol>
        <symbol id="icon-arrow-down" viewBox="0 0 20 20">
            <path d="M9 16.172l-6.071-6.071-1.414 1.414 8.485 8.485 8.485-8.485-1.414-1.414-6.071 6.071v-16.172h-2z"></path>
        </symbol>
        <symbol id="icon-arrow-sm-right" viewBox="0 0 24 24">
            <path d="M8.59 16.59L13.17 12 8.59 7.41 10 6l6 6-6 6-1.41-1.41z"/>
        </symbol>
        <symbol id="icon-home" viewBox="0 0 16 14.263"><defs><style>.a{fill:#fff;}</style></defs><g transform="translate(0 0)"><path class="a" d="M15.829,33.431,8.245,27.878a.416.416,0,0,0-.491,0L.17,33.431a.416.416,0,0,0,.491.671L8,28.728,15.338,34.1a.416.416,0,0,0,.491-.671Z" transform="translate(0.001 -27.797)"/></g><g transform="translate(1.764 6.398)"><path class="a" d="M68.508,232.543a.416.416,0,0,0-.416.416v6.617H64.767v-3.612a2.079,2.079,0,1,0-4.157,0v3.612H57.283v-6.617a.416.416,0,0,0-.831,0v7.033a.416.416,0,0,0,.416.416h4.157a.415.415,0,0,0,.414-.383.314.314,0,0,0,0-.032v-4.028a1.247,1.247,0,1,1,2.495,0v4.028a.3.3,0,0,0,0,.032.415.415,0,0,0,.414.384h4.157a.416.416,0,0,0,.416-.416v-7.033A.416.416,0,0,0,68.508,232.543Z" transform="translate(-56.452 -232.543)"/></g>
        </symbol>
        <symbol id="icon-calendar" viewBox="0 0 14.252 15.713"><defs><style>.a{fill:#59c0a1;}</style></defs><path class="a" d="M264.814,119.44h-.46v-.46h.46Zm-.767,0h-.46v-.46h.46Zm0,0" transform="translate(-257.074 -116.059)"/><path class="a" d="M12.124,222.871H-1.208V212.844h-.46v10.487H12.585V212.844h-.46Zm0,0" transform="translate(1.668 -207.618)"/><path class="a" d="M108.55,3.381l.374-.375V.374L108.55,0h-1.023l-.375.374V3.006l.375.375ZM107.613.564l.1-.1h.641l.1.1V2.815l-.1.1h-.641l-.1-.1Zm0,0" transform="translate(-104.481 0.001)"/><path class="a" d="M399.272,3.381l.375-.375V.374L399.272,0h-1.023l-.374.374V3.006l.374.375ZM398.335.564l.1-.1h.641l.1.1V2.815l-.1.1h-.641l-.1-.1Zm0,0" transform="translate(-388.065 0.001)"/><path class="a" d="M10.3,59.488v.46h1.828v2.461H-1.208V59.949H.619v-.46H-1.669V62.87H12.584V59.488Zm0,0" transform="translate(1.669 -58.028)"/><path class="a" d="M194.93,59.488h4.6v.46h-4.6Zm0,0" transform="translate(-190.103 -58.028)"/><path class="a" d="M110.147,247.609l-3.823,3.823-1.6-1.6-1.85,1.85,3.446,3.446L112,249.459Zm-6.618,4.077,1.2-1.2,1.6,1.6,3.823-3.823,1.2,1.2-5.022,5.022Zm0,0" transform="translate(-100.312 -241.53)"/>
        </symbol>
        <symbol id="icon-house" viewBox="0 0 16 16"><defs><style>.a{opacity:0.8;}.b{fill:#fff;}</style></defs><g class="a"><g transform="translate(7.328 2.906)"><rect class="b" width="1.031" height="0.469"/></g><g transform="translate(1.49 4.216)"><path class="b" d="M49.044,134.9l-1.37.717.217.415,1.152-.6,1.152.6.218-.415Z" transform="translate(-47.674 -134.9)"/></g><g transform="translate(11.531 4.516)"><path class="b" d="M371.813,144.5a.234.234,0,0,1-.457.073.705.705,0,0,0,0-.073h-.484a.714.714,0,0,0,0,.073.234.234,0,0,1-.457-.073h-.484a.234.234,0,0,1-.469,0H369a11.812,11.812,0,0,1,2.578.7.7.7,0,0,0,.7-.7Z" transform="translate(-369 -144.5)"/></g><g transform="translate(12.094 5.609)"><path class="b" d="M388.891,179.5a.234.234,0,0,1-.469,0h-.484a.234.234,0,0,1-.469,0H387a1.272,1.272,0,0,0,2.359,0Z" transform="translate(-387 -179.5)"/></g><g transform="translate(8.221 11.118)"><g transform="translate(0 0)"><rect class="b" width="0.555" height="0.555" transform="translate(0 0)"/></g></g><g transform="translate(9.331 11.118)"><g transform="translate(0 0)"><rect class="b" height="0.555" transform="translate(0 0)"/></g></g><g transform="translate(6.556 11.118)"><g transform="translate(0 0)"><rect class="b" height="0.555" transform="translate(0 0)"/></g></g><g transform="translate(7.111 11.118)"><g transform="translate(0 0)"><rect class="b" width="0.555" height="0.555" transform="translate(0 0)"/></g></g><g transform="translate(6.25 5.406)"><path class="b" d="M200,173v1.563h1.563V173Zm1.094,1.094h-.625v-.625h.625Z" transform="translate(-200 -173)"/></g><g transform="translate(8.219 5.406)"><path class="b" d="M263,173v1.563h1.563V173Zm1.094,1.094h-.625v-.625h.625Z" transform="translate(-263 -173)"/></g><g transform="translate(11.313 7.844)"><path class="b" d="M362,251v3.281h1.563V251Zm1.094,2.813h-.625v-2.344h.625Z" transform="translate(-362 -251)"/></g><g transform="translate(1.063 6.875)"><path class="b" d="M34.781,220a.782.782,0,0,0-.781.781v1.813h1.563v-1.812A.782.782,0,0,0,34.781,220Zm.313,2.125h-.625v-1.344a.313.313,0,0,1,.625,0Z" transform="translate(-34 -220)"/></g><g transform="translate(3.125 6.875)"><path class="b" d="M100.781,220a.782.782,0,0,0-.781.781v1.813h1.563v-1.812A.782.782,0,0,0,100.781,220Zm.313,2.125h-.625v-1.344a.313.313,0,0,1,.625,0Z" transform="translate(-100 -220)"/></g><g transform="translate(1.063 11.75)"><path class="b" d="M34.781,376a.782.782,0,0,0-.781.781v1.813h1.563v-1.812A.782.782,0,0,0,34.781,376Zm.313,2.125h-.625v-1.344a.313.313,0,0,1,.625,0Z" transform="translate(-34 -376)"/></g><g transform="translate(3.125 11.75)"><path class="b" d="M100.781,376a.782.782,0,0,0-.781.781v1.813h1.563v-1.812A.782.782,0,0,0,100.781,376Zm.313,2.125h-.625v-1.344a.313.313,0,0,1,.625,0Z" transform="translate(-100 -376)"/></g><g transform="translate(13.438 7.844)"><path class="b" d="M430,251v3.281h1.563V251Zm1.094,2.813h-.625v-2.344h.625Z" transform="translate(-430 -251)"/></g><g transform="translate(11.313 11.687)"><path class="b" d="M362,374v3.281h1.563V374Zm1.094,2.813h-.625v-2.344h.625Z" transform="translate(-362 -374)"/></g><g transform="translate(13.438 11.687)"><path class="b" d="M430,374v3.281h1.563V374Zm1.094,2.813h-.625v-2.344h.625Z" transform="translate(-430 -374)"/></g><g transform="translate(6.25 7.344)"><path class="b" d="M200,235v1.562h1.563V235Zm1.094,1.094h-.625v-.625h.625Z" transform="translate(-200 -235)"/></g><g transform="translate(8.219 7.344)"><path class="b" d="M263,235v1.562h1.563V235Zm1.094,1.094h-.625v-.625h.625Z" transform="translate(-263 -235)"/></g><path class="b" d="M10.644,3.594l0,0A4.371,4.371,0,0,1,9.156.309V0H6.813V.309A4.371,4.371,0,0,1,5.33,3.59l-.08.07v.75L2.859,3.157,0,4.655V16H16V3.594ZM5.25,15.531H.469v-4.5H5.25Zm0-4.969H.469V6.312H5.25Zm0-4.719H.469V4.939L2.859,3.686,5.25,4.939Zm3.563,9.687H7.156v-2.3a.828.828,0,0,1,1.656,0Zm1.438,0H9.281v-2.3a1.3,1.3,0,0,0-2.594,0v2.3H5.719V10.469H10.25Zm0-5.531H5.719V4.937H10.25Zm0-5.531H5.719V4.031H6.859V3.562H6.024A4.841,4.841,0,0,0,7.09,1.656h.863V1.187H7.2A4.836,4.836,0,0,0,7.279.469H8.69a4.836,4.836,0,0,0,.327,1.594H8.359v.469h.869a4.839,4.839,0,0,0,.717,1.031H9.109v.469H10.25Zm5.281,11.062H10.719V7.156h4.813Zm0-8.844H10.719V4.062h4.813Z"/></g>
        </symbol>
        <symbol id="icon-report" viewBox="0 0 16.4 13.2"><defs><style>.a{opacity:0.8;}.b{fill:#fff;}</style></defs><g class="a" transform="translate(-21864.6 -3469)"><g transform="translate(21864.6 3469)"><path class="b" d="M167.219,0h-14.04A1.192,1.192,0,0,0,152,1.2v6a.4.4,0,0,0,.8,0V2.4h14.8V12a.391.391,0,0,1-.38.4h-13.65a.4.4,0,1,0,0,.8h13.65A1.192,1.192,0,0,0,168.4,12V1.2A1.192,1.192,0,0,0,167.219,0Zm.38,1.6H152.8V1.2a.391.391,0,0,1,.38-.4h14.04a.391.391,0,0,1,.38.4Z" transform="translate(-151.999)"/></g><g transform="translate(21870.6 3474.1)"><path class="b" d="M432.4,102a.4.4,0,0,0-.4.4v5.7a.4.4,0,1,0,.8,0v-5.7A.4.4,0,0,0,432.4,102Z" transform="translate(-424 -102)"/><path class="b" d="M432.4,102a.4.4,0,0,0-.4.4v5.7a.4.4,0,1,0,.8,0v-5.7A.4.4,0,0,0,432.4,102Z" transform="translate(-432 -102)"/></g><g transform="translate(21869 3476.6)"><path class="b" d="M400.4,152a.4.4,0,0,0-.4.4v3.2a.4.4,0,1,0,.8,0v-3.2A.4.4,0,0,0,400.4,152Z" transform="translate(-392 -152)"/><path class="b" d="M400.4,152a.4.4,0,0,0-.4.4v3.2a.4.4,0,1,0,.8,0v-3.2A.4.4,0,0,0,400.4,152Z" transform="translate(-400 -152)"/></g><g transform="translate(21875.4 3475.8)"><path class="b" d="M368.4,136a.4.4,0,0,0-.4.4v4a.4.4,0,1,0,.8,0v-4A.4.4,0,0,0,368.4,136Z" transform="translate(-368 -136)"/></g><g transform="translate(21867.4 3475.8)"><path class="b" d="M368.4,136a.4.4,0,0,0-.4.4v4a.4.4,0,1,0,.8,0v-4A.4.4,0,0,0,368.4,136Z" transform="translate(-368 -136)"/></g><g transform="translate(21873.799 3478.2)"><path class="b" d="M336.4,184a.4.4,0,0,0-.4.4V186a.4.4,0,1,0,.8,0v-1.6A.4.4,0,0,0,336.4,184Z" transform="translate(-336 -184)"/></g><g transform="translate(21872.199 3472.2)"><path class="b" d="M311.021,64.066a.4.4,0,0,0-.555.111L309.1,66.224l-1.262-.946a.4.4,0,0,0-.6.141l-1.558,3.116-1.522,1.143a.4.4,0,0,0,.48.64l1.6-1.2a.4.4,0,0,0,.12-.141l1.385-2.771,1.215.912a.4.4,0,0,0,.56-.08l.013-.018,1.6-2.4A.4.4,0,0,0,311.021,64.066Z" transform="translate(-303.999 -63.998)"/></g><g transform="translate(21866.199 3472.2)"><path class="b" d="M189.2,64h-4.8a.4.4,0,0,0,0,.8h4.8a.4.4,0,1,0,0-.8Z" transform="translate(-184 -64)"/></g><g transform="translate(21872.6 3472.2)"><path class="b" d="M313.2,64h-.8a.4.4,0,0,0,0,.8h.8a.4.4,0,0,0,0-.8Z" transform="translate(-312 -64)"/></g></g>
        </symbol>
        <symbol id="icon-suggestion" viewBox="0 0 15.038 16.312"><defs><style>.a{opacity:0.8;}.b{fill:#fff;}</style></defs><g class="a" transform="translate(-21864.582 -3364.295)"><path class="b" d="M14.945,6.765,12.06,3.885a.318.318,0,0,0-.225-.093h-.69l.82-.82a.318.318,0,0,0,0-.451L9.537.093a.319.319,0,0,0-.451,0L8.079,1.1,5.385,3.795a.315.315,0,0,0-.044,0H3.2a.318.318,0,0,0-.225.093L.093,6.766h0A.318.318,0,0,0,0,6.991v9a.319.319,0,0,0,.319.319h14.4a.319.319,0,0,0,.319-.319V12.767a.319.319,0,0,0-.637,0v2.908H.637V7.31H14.4v2.908a.319.319,0,0,0,.637,0V6.991A.318.318,0,0,0,14.945,6.765ZM8.529,1.552,9.312.769l1.977,1.977L8.8,5.232H6.18l-.665-.665ZM1.087,6.672,3.33,4.429H4.777a.318.318,0,0,0,.061.363l.44.44h-1a.319.319,0,1,0,0,.637h6.49a.319.319,0,1,0,0-.637H9.7l.8-.8h1.2l2.247,2.244Zm0,0" transform="translate(21864.582 3364.295)"/><path class="b" d="M148,275.515a2.8,2.8,0,1,0,2.8-2.8A2.807,2.807,0,0,0,148,275.515Zm4.97,0a2.166,2.166,0,1,1-2.166-2.167A2.169,2.169,0,0,1,152.97,275.515Zm0,0" transform="translate(21721.297 3100.273)"/><path class="b" d="M452.323,350.707a.319.319,0,1,0,.225.093A.32.32,0,0,0,452.323,350.707Zm0,0" transform="translate(21426.979 3024.762)"/></g>
        </symbol>
        <symbol id="icon-cogwheel" viewBox="0 0 15.937 15.937"><defs><style>.a{opacity:0.8;}.b{fill:#fff;}</style></defs><g class="a"><path class="b" d="M160.691,157.631a3.062,3.062,0,1,0,3.062,3.062A3.065,3.065,0,0,0,160.691,157.631Zm0,5.657a2.595,2.595,0,1,1,2.595-2.595A2.6,2.6,0,0,1,160.691,163.288Z" transform="translate(-152.723 -152.725)"/><path class="b" d="M14.336,6.427a6.484,6.484,0,0,0-.775-1.87l1.132-1.132L12.513,1.244,11.38,2.376A6.486,6.486,0,0,0,9.51,1.6V0H6.426V1.6a6.485,6.485,0,0,0-1.87.775L3.424,1.244,1.244,3.424,2.376,4.557A6.485,6.485,0,0,0,1.6,6.426H0V9.51H1.6a6.483,6.483,0,0,0,.775,1.87L1.244,12.513l2.181,2.181,1.132-1.132a6.486,6.486,0,0,0,1.87.775v1.6H9.51v-1.6a6.486,6.486,0,0,0,1.87-.775l1.132,1.132,2.181-2.181L13.561,11.38a6.484,6.484,0,0,0,.775-1.87h1.6V6.427ZM15.47,9.043H13.96l-.039.185a6.028,6.028,0,0,1-.853,2.057l-.1.159,1.068,1.068-1.52,1.52-1.068-1.068-.159.1a6.029,6.029,0,0,1-2.057.853l-.185.039v1.51H6.893V13.96l-.185-.039a6.028,6.028,0,0,1-2.057-.853l-.159-.1L3.424,14.033,1.9,12.513l1.068-1.068-.1-.159a6.029,6.029,0,0,1-.853-2.057l-.039-.185H.467V6.893h1.51l.039-.185a6.028,6.028,0,0,1,.853-2.057l.1-.159L1.9,3.424,3.424,1.9,4.492,2.972l.159-.1a6.029,6.029,0,0,1,2.057-.853l.185-.039V.467h2.15v1.51l.185.039a6.028,6.028,0,0,1,2.057.853l.159.1L12.513,1.9l1.52,1.52L12.965,4.492l.1.159a6.029,6.029,0,0,1,.853,2.057l.039.185h1.51Z"/><path class="b" d="M200.7,416.8c.172.054.348.1.524.139l.1-.457c-.161-.034-.323-.077-.481-.127Z" transform="translate(-194.451 -403.398)"/><path class="b" d="M115.962,363.993l-.358.3a5.757,5.757,0,0,0,1.939,1.5l.2-.422A5.286,5.286,0,0,1,115.962,363.993Z" transform="translate(-112.006 -352.663)"/><path class="b" d="M103.48,77.418l-.1-.456a5.728,5.728,0,0,0-3.656,2.6l.4.244A5.259,5.259,0,0,1,103.48,77.418Z" transform="translate(-96.621 -74.566)"/><path class="b" d="M239.118,73.309h.038l0-.467h-.041c-.181,0-.363.009-.542.025l.044.465C238.784,73.317,238.952,73.309,239.118,73.309Z" transform="translate(-231.15 -70.575)"/><path class="b" d="M403.954,193.869a5.249,5.249,0,0,1-.329,4.288l.41.224a5.717,5.717,0,0,0,.358-4.671Z" transform="translate(-391.062 -187.681)"/><path class="b" d="M380.428,356.823l.345.314c.125-.137.244-.282.354-.43l-.374-.279C380.652,356.564,380.542,356.7,380.428,356.823Z" transform="translate(-368.587 -345.334)"/><path class="b" d="M114.671,110.131a4.54,4.54,0,1,0,4.54,4.54A4.545,4.545,0,0,0,114.671,110.131Zm0,8.614a4.073,4.073,0,1,1,4.073-4.073A4.078,4.078,0,0,1,114.671,118.745Z" transform="translate(-106.703 -106.703)"/></g>
        </symbol>
        <symbol id="icon-user" viewBox="0 0 16 18.81"><defs><style>.a{opacity:0.8;}.b{fill:#fff;}</style></defs><g class="a"><g transform="translate(0)"><path class="b" d="M141.079,10.135h.125a3.594,3.594,0,0,0,2.746-1.188c1.5-1.691,1.25-4.589,1.223-4.865A3.974,3.974,0,0,0,143.284.549a4.331,4.331,0,0,0-2.1-.549h-.066a4.338,4.338,0,0,0-2.1.534,3.976,3.976,0,0,0-1.913,3.549c-.027.277-.277,3.175,1.223,4.865A3.58,3.58,0,0,0,141.079,10.135ZM138.154,4.18c0-.012,0-.023,0-.031.129-2.793,2.111-3.093,2.96-3.093h.047c1.052.023,2.84.452,2.96,3.093a.076.076,0,0,0,0,.031c0,.027.277,2.676-.962,4.071a2.553,2.553,0,0,1-2.006.834h-.039a2.545,2.545,0,0,1-2-.834C137.885,6.863,138.15,4.2,138.154,4.18Z" transform="translate(-133.147)"/><path class="b" d="M52.072,264.088v-.012c0-.031,0-.062,0-.1-.023-.771-.074-2.575-1.765-3.151l-.039-.012a11.24,11.24,0,0,1-3.233-1.472.526.526,0,0,0-.6.861,12.133,12.133,0,0,0,3.556,1.624c.908.323,1.009,1.293,1.036,2.181a.782.782,0,0,0,0,.1,7.07,7.07,0,0,1-.082,1.2,14.335,14.335,0,0,1-6.867,1.6,14.418,14.418,0,0,1-6.871-1.6,6.693,6.693,0,0,1-.082-1.2c0-.031,0-.062,0-.1.027-.888.129-1.858,1.036-2.181a12.244,12.244,0,0,0,3.556-1.624.526.526,0,1,0-.6-.861,11.115,11.115,0,0,1-3.233,1.472l-.039.012c-1.691.58-1.741,2.384-1.765,3.151a.783.783,0,0,1,0,.1v.012a5.973,5.973,0,0,0,.2,1.765.5.5,0,0,0,.2.245,14.734,14.734,0,0,0,7.6,1.862,14.778,14.778,0,0,0,7.6-1.862.521.521,0,0,0,.2-.245A6.267,6.267,0,0,0,52.072,264.088Z" transform="translate(-36.073 -249.146)"/></g></g>
        </symbol>
        <symbol id="icon-dashboard-new" viewBox="0 0 24 24">
            <path d="M0 0h24v24H0z" fill="none"/><path d="M3 13h8V3H3v10zm0 8h8v-6H3v6zm10 0h8V11h-8v10zm0-18v6h8V3h-8z"/>        </symbol>
        <symbol id="icon-dashboard" viewBox="0 0 20 18">
            <path class="a" d="M12,7V3H2V21H22V7ZM6,19H4V17H6Zm0-4H4V13H6Zm0-4H4V9H6ZM6,7H4V5H6Zm4,12H8V17h2Zm0-4H8V13h2Zm0-4H8V9h2Zm0-4H8V5h2ZM20,19H12V17h2V15H12V13h2V11H12V9h8Zm-2-8H16v2h2Zm0,4H16v2h2Z" transform="translate(-2 -3)"/>
        </symbol>
        <symbol id="icon-campus" viewBox="0 0 24 24">
            <path class="a" fill="none" d="M0,0H24V24H0Z"/><path class="b" d="M6.5,10h-2v7h2Zm6,0h-2v7h2ZM21,19H2v2H21Zm-2.5-9h-2v7h2Zm-7-6.74L16.71,6H6.29L11.5,3.26M11.5,1,2,6V8H21V6Z"/>
        </symbol>
        <symbol id="icon-three" viewBox="0 0 24 24"><g transform="translate(-1319 -191)">
            <path fill="none" d="M0,0H24V24H0Z" transform="translate(1319 191)"/>
            <path class="b" d="M12,2A10,10,0,1,0,22,12,10,10,0,0,0,12,2Zm0,18a8,8,0,1,1,8-8A8.011,8.011,0,0,1,12,20Z" transform="translate(1319 191)"/><circle class="b" cx="2" cy="2" r="2" transform="translate(1325 203)"/><circle class="b" cx="2" cy="2" r="2" transform="translate(1329 197)"/><circle class="b" cx="2" cy="2" r="2" transform="translate(1333 203)"/></g>
        </symbol>
        <symbol id="icon-check" viewBox="0 0 24 24"><path d="M0 0h24v24H0z" fill="none"/><path d="M9 16.17L4.83 12l-1.42 1.41L9 19 21 7l-1.41-1.41z"/>
        </symbol>
        <symbol id="icon-getback" viewBox="0 0 17.876 16.825">
            <path class="a" d="M4,19.722h6.309v-2.1H4ZM20.825,5H4V7.1H20.825ZM17.67,11.309H4v2.1H17.933a2.1,2.1,0,0,1,0,4.206H15.567v-2.1L12.413,18.67l3.155,3.155v-2.1h2.1a4.206,4.206,0,1,0,0-8.413Z" transform="translate(-4 -5)"/>
        </symbol>
        <symbol id="icon-request" width="15.268" height="19.494" viewBox="0 0 15.268 19.494">
        <g id="request" transform="translate(-22114.27 -3260.101)">
            <path id="Path_362" data-name="Path 362" d="M212.129,464H208.6a.286.286,0,1,0,0,.571h3.533a.286.286,0,1,0,0-.571Z" transform="translate(21911.779 2813.767)" opacity="0.8"/>
            <path id="Path_363" data-name="Path 363" d="M70.33,4.093H69.062V3.636a.286.286,0,1,0-.571,0v.457H60.706a.286.286,0,0,0,0,.571H70.2v5.607H64.178a.436.436,0,0,0-.388.236l-.656,1.261-.656-1.261a.436.436,0,0,0-.388-.236H56.071V4.664h3.41a.286.286,0,0,0,0-.571H58.249V1.428a.858.858,0,0,1,.857-.857h1.08v.857a.667.667,0,0,0,.666.666h5.026a.667.667,0,0,0,.666-.666V.571h1.091a.858.858,0,0,1,.857.857v.99a.286.286,0,1,0,.571,0v-.99A1.429,1.429,0,0,0,67.634,0H59.106a1.429,1.429,0,0,0-1.428,1.428V4.093h-1.74a.438.438,0,0,0-.438.438V10.4a.438.438,0,0,0,.438.438h1.74V14.6a.286.286,0,0,0,.571,0V10.842h3.759l.8,1.547a.362.362,0,0,0,.642,0l.8-1.547h4.232v5.625H58.249v-.612a.286.286,0,0,0-.571,0v2.211a1.429,1.429,0,0,0,1.428,1.428h8.529a1.429,1.429,0,0,0,1.428-1.428V16.758s0,0,0-.006,0,0,0-.006v-5.9H70.33a.438.438,0,0,0,.438-.438V4.531A.438.438,0,0,0,70.33,4.093ZM65.973.571v.857a.1.1,0,0,1-.1.1H60.852a.1.1,0,0,1-.1-.1V.571Zm1.662,18.352H59.106a.858.858,0,0,1-.857-.857V17.038H68.491v1.028A.858.858,0,0,1,67.634,18.923Z" transform="translate(22058.77 3260.101)" opacity="0.8"/>
            <path id="Path_364" data-name="Path 364" d="M106.5,146.014V148.6a.515.515,0,0,0,.514.514H109.6a.515.515,0,0,0,.514-.514v-2.589a.515.515,0,0,0-.514-.514h-2.589A.515.515,0,0,0,106.5,146.014Zm.571.057h2.475v2.475h-2.475Z" transform="translate(22009.711 3120.141)" opacity="0.8"/>
            <path id="Path_365" data-name="Path 365" d="M219.786,164.071h6.092a.286.286,0,1,0,0-.571h-6.092a.286.286,0,1,0,0,.571Z" transform="translate(21901.014 3102.826)" opacity="0.8"/>
            <path id="Path_366" data-name="Path 366" d="M219.786,210.071h6.092a.286.286,0,1,0,0-.571h-6.092a.286.286,0,1,0,0,.571Z" transform="translate(21901.014 3058.578)" opacity="0.8"/>
        </g>
        </symbol>
        <symbol id="icon-report_pie"   viewBox="0 0 24 24">
        <path d="M0 0h24v24H0V0z" fill="none"/>
        <path d="M12 2C6.48 2 2 6.48 2 12s4.48 10 10 10 10-4.48 10-10S17.52 2 12 2zm7.93 9H13V4.07c3.61.45 6.48 3.32 6.93 6.93zM4 12c0-4.07 3.06-7.44 7-7.93v15.86c-3.94-.49-7-3.86-7-7.93zm9 7.93V13h6.93c-.45 3.61-3.32 6.48-6.93 6.93z"/>
        </symbol>
        <!-- <symbol id="icon-dashboard-dot" viewBox="0 0 18.942 15.359">
            <path class="a" d="M4.036,10.643a1.536,1.536,0,1,0,1.536,1.536A1.534,1.534,0,0,0,4.036,10.643Zm0-6.143A1.536,1.536,0,1,0,5.572,6.036,1.534,1.534,0,0,0,4.036,4.5Zm0,12.287a1.536,1.536,0,1,0,1.536,1.536A1.54,1.54,0,0,0,4.036,16.787Zm3.072,2.56H21.442V17.3H7.108Zm0-6.143H21.442V11.155H7.108Zm0-8.191V7.06H21.442V5.012Z" transform="translate(-2.5 -4.5)"/>
        </symbol> -->
        <symbol id="icon-dashboard-dot" viewBox="0 0 25.938 31.56">
            <path d="M103.025 1894.67c-4.451 0-8.154 3.05-8.154 6.96v17.61c0 3.91 3.7 6.97 8.154 6.97h9.637c4.438 0 8.153-3.06 8.153-6.97v-17.61c0-3.91-3.715-6.96-8.153-6.96h-9.637zm0 1.47h9.637c3.768 0 6.67 2.51 6.67 5.49v17.61c0 2.99-2.9 5.5-6.67 5.5h-9.637c-3.768 0-6.67-2.51-6.67-5.5v-17.61c0-2.98 2.902-5.49 6.67-5.49zm-1.484 2.93a3.053 3.053 0 0 0-2.442 1.38 5.537 5.537 0 0 0 0 6.03 3.038 3.038 0 0 0 2.442 1.39h12.605a3.059 3.059 0 0 0 2.442-1.39 5.536 5.536 0 0 0 0-6.03 3.075 3.075 0 0 0-2.442-1.38h-12.605zm0 1.46h12.605a1.535 1.535 0 0 1 1.221.77 4.069 4.069 0 0 1 0 4.35 1.508 1.508 0 0 1-1.221.75h-12.605a1.491 1.491 0 0 1-1.221-.75 4.069 4.069 0 0 1 0-4.35 1.518 1.518 0 0 1 1.221-.77zm-.368 9.54a2.565 2.565 0 1 0 2.587 2.57 2.587 2.587 0 0 0-2.587-2.57zm6.67 0a2.565 2.565 0 1 0 2.587 2.57 2.587 2.587 0 0 0-2.587-2.57zm6.67 0a2.565 2.565 0 1 0 2.587 2.57 2.587 2.587 0 0 0-2.587-2.57zm-13.34 1.47a1.1 1.1 0 1 1-1.115 1.1 1.088 1.088 0 0 1 1.115-1.1zm6.67 0a1.1 1.1 0 1 1-1.116 1.1 1.088 1.088 0 0 1 1.116-1.1zm6.67 0a1.1 1.1 0 1 1-1.116 1.1 1.089 1.089 0 0 1 1.116-1.1zm-13.34 5.13a2.565 2.565 0 1 0 2.587 2.57 2.587 2.587 0 0 0-2.587-2.57zm6.67 0a2.565 2.565 0 1 0 2.587 2.57 2.587 2.587 0 0 0-2.587-2.57zm6.67 0a2.565 2.565 0 1 0 2.587 2.57 2.587 2.587 0 0 0-2.587-2.57zm-13.34 1.47a1.1 1.1 0 1 1-1.115 1.1 1.088 1.088 0 0 1 1.115-1.1zm6.67 0a1.1 1.1 0 1 1-1.116 1.1 1.088 1.088 0 0 1 1.116-1.1zm6.67 0a1.1 1.1 0 1 1-1.116 1.1 1.089 1.089 0 0 1 1.116-1.1z" transform="translate(-94.875 -1894.66)"></path>
        </symbol>
        <symbol id="icon-chart" viewBox="0 0 19.177 19.177">
            <path class="a" d="M20.046,3H5.131A2.137,2.137,0,0,0,3,5.131V20.046a2.137,2.137,0,0,0,2.131,2.131H20.046a2.137,2.137,0,0,0,2.131-2.131V5.131A2.137,2.137,0,0,0,20.046,3Zm0,17.046H5.131V5.131H20.046ZM7.262,10.458H9.392v7.458H7.262Zm4.262-3.2h2.131V17.915H11.523Zm4.262,6.392h2.131v4.262H15.785Z" transform="translate(-3 -3)"/>
        </symbol>
        <symbol id="icon-finger-print" viewBox="0 0 19.873 22.085">
            <path class="a" d="M19.354,4.728a.513.513,0,0,1-.254-.066A12.635,12.635,0,0,0,12.95,3.1,12.633,12.633,0,0,0,6.8,4.661a.553.553,0,1,1-.53-.972,14.05,14.05,0,0,1,13.339-.011.559.559,0,0,1-.254,1.049Zm-15.8,5.8a.575.575,0,0,1-.32-.1A.551.551,0,0,1,3.1,9.652,11.417,11.417,0,0,1,7.241,6.042a12.747,12.747,0,0,1,11.385-.011,11.46,11.46,0,0,1,4.141,3.589.555.555,0,0,1-.905.64,10.367,10.367,0,0,0-3.743-3.247,11.636,11.636,0,0,0-10.38.011,10.476,10.476,0,0,0-3.754,3.269.481.481,0,0,1-.431.232Zm6.9,13.328a.518.518,0,0,1-.386-.166,11.163,11.163,0,0,1-2.22-2.915A9.8,9.8,0,0,1,6.689,15.98a6.116,6.116,0,0,1,6.25-5.952,6.116,6.116,0,0,1,6.25,5.952.552.552,0,1,1-1.1,0,5.009,5.009,0,0,0-5.146-4.848A5.009,5.009,0,0,0,7.793,15.98,8.651,8.651,0,0,0,8.82,20.231,10.452,10.452,0,0,0,10.863,22.9a.567.567,0,0,1,0,.784.606.606,0,0,1-.409.166Zm7.918-2.043a5.947,5.947,0,0,1-3.423-.983A5.879,5.879,0,0,1,12.32,15.98a.552.552,0,1,1,1.1,0,4.75,4.75,0,0,0,2.142,3.931,4.842,4.842,0,0,0,2.8.784,7.3,7.3,0,0,0,1.148-.11.555.555,0,1,1,.188,1.093,7.541,7.541,0,0,1-1.336.133Zm-2.22,2.275a.646.646,0,0,1-.144-.022A8.616,8.616,0,0,1,11.9,21.744,8.057,8.057,0,0,1,9.5,15.98a3.33,3.33,0,0,1,3.4-3.247,3.33,3.33,0,0,1,3.4,3.247,2.3,2.3,0,0,0,4.594,0,7.789,7.789,0,0,0-8.006-7.542,8.062,8.062,0,0,0-7.3,4.45,7.1,7.1,0,0,0-.652,3.092,10.974,10.974,0,0,0,.74,3.986.539.539,0,0,1-.32.707.548.548,0,0,1-.707-.32,12.3,12.3,0,0,1-.806-4.373A8.3,8.3,0,0,1,4.6,12.4a9.164,9.164,0,0,1,8.293-5.08A8.9,8.9,0,0,1,22,15.969a3.4,3.4,0,0,1-6.8,0,2.224,2.224,0,0,0-2.3-2.142,2.224,2.224,0,0,0-2.3,2.142,6.954,6.954,0,0,0,2.065,4.98,7.509,7.509,0,0,0,3.611,2.043.548.548,0,0,1,.386.674.539.539,0,0,1-.519.42Z" transform="translate(-2.997 -2)"/>
        </symbol>
        <symbol id="icon-check-angel" viewBox="0 0 15.901 19.435">
            <path class="a" d="M10.951,1,3,4.534v5.3a10.994,10.994,0,0,0,7.951,10.6A10.994,10.994,0,0,0,18.9,9.834v-5.3Zm6.184,8.834a9.252,9.252,0,0,1-6.184,8.772A9.252,9.252,0,0,1,4.767,9.834V5.682l6.184-2.747,6.184,2.747ZM6.9,10.355,5.65,11.6l3.534,3.534,7.067-7.067L15.005,6.813,9.184,12.634Z" transform="translate(-3 -1)"/>
        </symbol>
        <symbol id="icon-wave" viewBox="0 0 21.667 21.667">
            <path class="a" d="M13.376,10.666a3.25,3.25,0,1,0-3.25,3.25A3.26,3.26,0,0,0,13.376,10.666Zm-3.25,1.083a1.083,1.083,0,1,1,1.083-1.083A1.087,1.087,0,0,1,10.126,11.749Zm7.042,2.167A2.167,2.167,0,1,0,15,11.749,2.159,2.159,0,0,0,17.168,13.916ZM12.823,2.01A10.833,10.833,0,1,0,23.657,12.843,10.837,10.837,0,0,0,12.823,2.01ZM6.161,18.379a7.381,7.381,0,0,1,3.965-1.2c.076,0,.162.011.249.011a5.227,5.227,0,0,1,1.408-2.015A9.8,9.8,0,0,0,10.126,15,9.683,9.683,0,0,0,5,16.548a8.541,8.541,0,0,1-.845-3.716,8.667,8.667,0,1,1,16.521,3.651,7.627,7.627,0,0,0-3.51-.943c-1.647,0-4.875.877-4.875,2.925v3.012A8.6,8.6,0,0,1,6.161,18.379Z" transform="translate(-1.99 -2.01)"/>
        </symbol>
        <symbol id="icon-flexible-hours"  viewBox="0 0 32 32" >
    <g id="Page-1" stroke="none" stroke-width="1">
        <g id="flexible-hours-icon" >
            <path d="M30.9584796,10.689592 C30.7068585,10.0361418 29.9647967,9.7068099 29.3002996,9.95435047 C28.6362843,10.2012817 28.3015925,10.9317837 28.5530759,11.5853016 C29.7892263,14.7974385 29.711868,18.3049855 28.3353852,21.4624819 C26.9223568,24.703327 24.3112377,27.2091336 20.9824206,28.5180654 C17.6538099,29.8268617 14.006337,29.7824452 10.7120008,28.3925347 C9.75672172,27.9895365 8.86517382,27.4875491 8.04719893,26.8983538 C6.04331529,25.454006 4.48451736,23.4839053 3.53983722,21.158676 C2.20926014,17.8841123 2.25427113,14.295925 3.66716188,11.0545383 C5.08012146,7.81362555 7.69179107,5.3077512 11.0204706,3.99854865 C14.2055829,2.74622084 17.682372,2.73640318 20.8625978,3.95555405 L19.9512285,5.46984423 C19.7008463,5.8858424 19.8932786,6.16344534 20.3780758,6.08625818 L24.7078713,5.39861538 C25.1929438,5.32149593 25.455852,4.88525307 25.291087,4.42991653 L23.8223799,0.363981365 C23.6578902,-0.0914228742 23.3183119,-0.124125855 23.0682738,0.292075432 L22.1893895,1.75192836 C18.2937368,0.142508384 13.9932604,0.104591885 10.065398,1.64914756 C6.09906284,3.20907297 2.98738586,6.19492957 1.30332799,10.057199 C-0.380454572,13.919333 -0.434481522,18.1958401 1.15122665,22.098125 C2.27725839,24.8693471 4.13434014,27.2166492 6.52281307,28.9376521 C7.49722523,29.6398521 8.56035171,30.2379849 9.69815238,30.7178317 C13.6241566,32.3740379 17.9704698,32.4274596 21.9369426,30.8680081 C25.903966,29.3084213 29.0154365,26.3219553 30.6990814,22.4594827 C32.3393671,18.6974212 32.4315226,14.5169918 30.9584796,10.689592 Z" id="Path"></path>
            <path d="M15.8512221,7 C15.3812719,7 15,7.39690157 15,7.88688831 L15,16.7232385 L22.7577801,20.901051 C22.8826387,20.9683444 23.0162189,21.0002911 23.1477735,21 C23.4560095,21 23.7534984,20.8253754 23.9048593,20.520328 C24.1205345,20.085149 23.9572448,19.5502609 23.5391736,19.3251683 L16.7028381,15.6433802 L16.7028381,7.88688831 C16.7027819,7.39690157 16.3217913,7 15.8512221,7 Z" id="Path"></path>
            <g id="Group" transform="translate(4.000000, 4.000000)">
                <path d="M0.5,13 C0.223999812,13 0,13.2191781 0,13.4892368 C0,13.4926614 0,13.4960861 0,13.5 C0,13.5039139 0,13.5078278 0,13.5117417 C0.00049999958,13.7818004 0.224499812,14 0.5,14 C0.50049958,14 0.50049958,14 0.50099958,14 C0.777499348,13.9990215 1.00049916,13.7798434 1,13.5097847 C1,13.5063601 1,13.5034247 1,13.5 C1,13.4965753 1,13.4926614 1,13.4892368 C1,13.2191781 0.775999349,13 0.5,13 Z" id="Path"></path>
                <path d="M11.5005,1 C11.7765,1 12,0.776 12,0.4995 C12,0.2235 11.77605,0 11.5,0 C11.2235,0 11,0.224 11,0.5005 C11.0005,0.7765 11.224,1 11.5005,1 Z" id="Path"></path>
                <path d="M10.4990004,23 C10.2230007,23.0005008 9.99950084,23.2245006 10,23.5010004 C10.0005008,23.7765002 10.2240006,24 10.4995004,24 C10.5,24 10.5005004,24 10.5005004,24 C10.7770002,23.9995 11,23.7750002 11,23.4990004 C10.99945,23.2230007 10.7750002,22.9995008 10.4990004,23 Z" id="Path"></path>
                <path d="M23.4995,13 C23.2230005,13.0005 22.9995008,13.2244998 23,13.5004996 C23.0005008,13.7769993 23.2245005,14.0004992 23.5005,14 C23.7765495,14 24.0004992,13.7754994 24,13.4994996 C23.9994992,13.2234998 23.7754995,13 23.4995,13 Z" id="Path"></path>
            </g>
        </g>
    </g>
</symbol>
<symbol id="icon-bell" viewBox="0 0 12.952 17.077"><defs><style>.a{fill:#5d5d5d;}.b{fill:#45b7c4;}</style></defs><g transform="translate(-53.013 1.341)"><path class="a" d="M184.9,465.044a2.474,2.474,0,0,0,4.529,0Z" transform="translate(-127.682 -450.786)"/><path class="a" d="M198.177,1.565a5.565,5.565,0,0,1,1.9.333V1.824A1.826,1.826,0,0,0,198.253,0H198.1a1.826,1.826,0,0,0-1.824,1.824V1.9A5.575,5.575,0,0,1,198.177,1.565Z" transform="translate(-138.69 -0.599)"/><path class="a" d="M65.468,90.249H53.505a.488.488,0,0,1-.481-.375.467.467,0,0,1,.256-.531,2.544,2.544,0,0,0,.773-1.053,12.194,12.194,0,0,0,.805-4.814,4.628,4.628,0,1,1,9.256-.018c0,.006,0,.012,0,.018a12.194,12.194,0,0,0,.805,4.814,2.543,2.543,0,0,0,.773,1.053.467.467,0,0,1,.256.531A.488.488,0,0,1,65.468,90.249Zm.23-.9h0Z" transform="translate(0 -76.951)"/><circle class="b" cx="3" cy="3" r="3" transform="translate(59.966 -1.341)"/></g>
</symbol>
<symbol id="icon-bell-outlined" width="13.963" height="16.335" viewBox="0 0 13.963 16.335">
  <g id="bell" transform="translate(-22256.538 -3363.742)" opacity="0.8">
    <path id="Path_323" data-name="Path 323" d="M184.9,465.044a2.474,2.474,0,0,0,4.529,0Z" transform="translate(22076.352 2913.556)"/>
    <path id="Path_324" data-name="Path 324" d="M198.177,1.565a5.565,5.565,0,0,1,1.9.333V1.824A1.826,1.826,0,0,0,198.253,0H198.1a1.826,1.826,0,0,0-1.824,1.824V1.9A5.575,5.575,0,0,1,198.177,1.565Z" transform="translate(22065.344 3363.742)"/>
    <path id="Path_325" data-name="Path 325" d="M65.468,90.249H53.505a.488.488,0,0,1-.481-.375.467.467,0,0,1,.256-.531,2.544,2.544,0,0,0,.773-1.053,12.194,12.194,0,0,0,.805-4.814,4.628,4.628,0,1,1,9.256-.018c0,.006,0,.012,0,.018a12.194,12.194,0,0,0,.805,4.814,2.543,2.543,0,0,0,.773,1.053.467.467,0,0,1,.256.531A.488.488,0,0,1,65.468,90.249Zm.23-.9h0Z" transform="translate(22204.033 3287.39)" fill="none" stroke="#fff" stroke-width="1"/>
  </g>
</symbol>
<symbol id="icon-lifesaver" viewBox="0 0 16 16"><defs><style>.a{fill:#5d5d5d;}</style></defs><g transform="translate(0.402 0.413)"><path class="a" d="M14.665,2,14,1.34a1.408,1.408,0,0,0-1.794-.162,8.08,8.08,0,0,0-8.4,0,1.408,1.408,0,0,0-1.794.162L1.347,2A1.405,1.405,0,0,0,1.185,3.8a8.08,8.08,0,0,0,0,8.4A1.408,1.408,0,0,0,1.347,14l.663.663A1.408,1.408,0,0,0,3.8,14.82a8.078,8.078,0,0,0,8.4,0A1.407,1.407,0,0,0,14,14.658L14.665,14a1.408,1.408,0,0,0,.162-1.794,8.08,8.08,0,0,0,0-8.4A1.405,1.405,0,0,0,14.665,2ZM13.34,2,14,2.665a.468.468,0,0,1,0,.663L11.608,5.723A4.22,4.22,0,0,0,10.282,4.4L12.677,2a.469.469,0,0,1,.663,0ZM8.006,11.311A3.312,3.312,0,1,1,11.318,8,3.28,3.28,0,0,1,8.006,11.311ZM11.5,1.85,9.382,3.972a4.382,4.382,0,0,0-2.731-.007L4.512,1.848a7.142,7.142,0,0,1,6.992,0Zm-9.494.815L2.672,2a.47.47,0,0,1,.665,0L5.746,4.387A4.217,4.217,0,0,0,4.4,5.723L2.009,3.328a.469.469,0,0,1,0-.663ZM1.857,4.5,3.978,6.623a4.379,4.379,0,0,0,0,2.752L1.857,11.5A7.142,7.142,0,0,1,1.857,4.5ZM2.672,14l-.663-.663a.469.469,0,0,1,0-.663L4.4,10.276a4.216,4.216,0,0,0,1.342,1.336L3.335,14a.469.469,0,0,1-.663,0Zm1.84.154,2.139-2.116a4.382,4.382,0,0,0,2.731-.007L11.5,14.148a7.142,7.142,0,0,1-6.992,0ZM14,13.333,13.34,14a.469.469,0,0,1-.663,0L10.282,11.6a4.221,4.221,0,0,0,1.326-1.326L14,12.67a.469.469,0,0,1,0,.663Zm.152-1.836L12.033,9.375a4.379,4.379,0,0,0,0-2.752L14.155,4.5A7.142,7.142,0,0,1,14.155,11.5Z" transform="translate(-0.407 -0.412)"/></g>
</symbol>
<svg id="icon-add" viewBox="0 0 24 24"><path d="M0 0h24v24H0V0z" fill="none"/><path d="M19 3H5c-1.11 0-2 .9-2 2v14c0 1.1.89 2 2 2h14c1.1 0 2-.9 2-2V5c0-1.1-.9-2-2-2zm-3 10h-3v3c0 .55-.45 1-1 1s-1-.45-1-1v-3H8c-.55 0-1-.45-1-1s.45-1 1-1h3V8c0-.55.45-1 1-1s1 .45 1 1v3h3c.55 0 1 .45 1 1s-.45 1-1 1z"/>
</svg>
<symbol id="icon-search" viewBox="0 0 24 24"><path d="M15.5 14h-.79l-.28-.27C15.41 12.59 16 11.11 16 9.5 16 5.91 13.09 3 9.5 3S3 5.91 3 9.5 5.91 16 9.5 16c1.61 0 3.09-.59 4.23-1.57l.27.28v.79l5 4.99L20.49 19l-4.99-5zm-6 0C7.01 14 5 11.99 5 9.5S7.01 5 9.5 5 14 7.01 14 9.5 11.99 14 9.5 14z"/><path d="M0 0h24v24H0z" fill="none"/>
</symbol>

<symbol id="icon-shift-time"  viewBox="0 0 33 33" >
    <g id="Page-1" >
        <g id="shift-time-icon" >
            <g id="Group" transform="translate(4.000000, 4.000000)">
                <circle id="Oval" cx="12.5" cy="12.5" r="12.5"></circle>
            </g>
            <path d="M33,23.5454855 L33,26.4545826 L30.629117,26.4545826 C30.4914581,26.9795115 30.2835039,27.4835086 30.0109133,27.9527332 L31.6836155,29.6254283 L29.6254139,31.6836211 L27.9527117,30.0109261 C27.4834169,30.2835154 26.9794858,30.4914688 26.4545548,30.6291271 L26.4545548,33 L23.5454452,33 L23.5454452,30.6290589 C23.0205142,30.4914006 22.5165149,30.2834473 22.0472883,30.0108579 L20.3745861,31.6835529 L18.3163845,29.6253601 L19.9890867,27.952665 C19.7164961,27.4833723 19.5085419,26.9794433 19.370883,26.4545145 L17,26.4545145 L17,23.5454174 L19.370883,23.5454174 C19.5085419,23.0204885 19.7164961,22.5164914 19.9890867,22.0472668 L18.3163845,20.3745717 L20.3745861,18.3163789 L22.0472883,19.9890739 C22.5165831,19.7164846 23.0205142,19.5085312 23.5454452,19.3708729 L23.5454452,17 L26.4545548,17 L26.4545548,19.3708729 C26.9794858,19.5085312 27.4834851,19.7164846 27.9527117,19.9890739 L29.6254139,18.3163789 L31.6836155,20.3745717 L30.0109133,22.0472668 C30.2835039,22.5165596 30.4914581,23.0204885 30.629117,23.5454174 L33,23.5454174 L33,23.5454855 Z M27.1818492,25 C27.1818492,23.7950296 26.2050097,22.8181942 25.0000341,22.8181942 C23.7950585,22.8181942 22.818219,23.7950296 22.818219,25 C22.818219,26.2049704 23.7950585,27.1818058 25.0000341,27.1818058 C26.2050097,27.1818058 27.1818492,26.2049704 27.1818492,25 Z" id="Shape"></path>
            <g id="Group" >
                <path d="M1.37497852,16.5 C1.37497852,8.14668164 8.14668164,1.37497852 16.5,1.37497852 C24.8533184,1.37497852 31.6250215,8.14668164 31.6250215,16.5 L33,16.5 C33,7.38729492 25.6127051,0 16.5,0 C7.38729492,0 0,7.38729492 0,16.5 C0,25.6127051 7.38729492,33 16.5,33 L16.5,31.6250215 C8.15061328,31.6155469 1.38445313,24.8493867 1.37497852,16.5 Z" id="Path"></path>
                <path d="M32.3124785,22.6875 L30.578625,22.6875 C30.5061797,22.4844727 30.4234863,22.2844102 30.330416,22.0873125 L31.5541875,20.863541 C31.8225703,20.5950937 31.8225703,20.1599062 31.5541875,19.8913945 L29.608541,17.945748 C29.3400938,17.6773652 28.9049063,17.6773652 28.6363945,17.945748 L27.412623,19.1695195 C27.2150742,19.0778672 27.0150117,18.9951094 26.8124355,18.9213105 L26.8124355,17.187457 C26.8124355,16.8077637 26.5046074,16.4999355 26.1249141,16.4999355 L23.3748926,16.4999355 C22.9951992,16.4999355 22.6873711,16.8077637 22.6873711,17.187457 L22.6873711,18.9213105 C22.4843438,18.9932402 22.2842812,19.075998 22.0871836,19.1695195 L20.8634121,17.945748 C20.5949648,17.6773652 20.1597773,17.6773652 19.8912656,17.945748 L17.9456191,19.8913945 C17.6772363,20.1598418 17.6772363,20.5950293 17.9456191,20.863541 L19.1693906,22.0873125 C19.0777383,22.2848613 18.9949805,22.4849238 18.9211816,22.6875 L17.1873281,22.6875 C16.8076348,22.6875 16.4998066,22.9953281 16.4998066,23.3750215 L16.4998066,26.125043 C16.4998066,26.5047363 16.8076348,26.8125645 17.1873281,26.8125645 L18.9211816,26.8125645 C18.9931113,27.0155918 19.0758691,27.2156543 19.1693906,27.412752 L17.9456191,28.6365234 C17.6772363,28.9049707 17.6772363,29.3401582 17.9456191,29.6086699 L19.8912656,31.5543164 C20.1597129,31.8226992 20.5949004,31.8226992 20.8634121,31.5543164 L22.0871836,30.3305449 C22.2847324,30.4221973 22.4847949,30.5049551 22.6873711,30.5787539 L22.6873711,32.3126074 C22.6873711,32.6923008 22.9951992,33.0001289 23.3748926,33.0001289 L26.1249141,33.0001289 C26.5046074,33.0001289 26.8124355,32.6923008 26.8124355,32.3126074 L26.8124355,30.5787539 C27.0154629,30.5063086 27.2155254,30.4236152 27.412623,30.3305449 L28.6363945,31.5543164 C28.9048418,31.8226992 29.3400293,31.8226992 29.608541,31.5543164 L31.5541875,29.6086699 C31.8225703,29.3402227 31.8225703,28.9050352 31.5541875,28.6365234 L30.330416,27.412752 C30.4220684,27.2152031 30.5048262,27.0151406 30.578625,26.8125645 L32.3124785,26.8125645 C32.6921719,26.8125645 33,26.5047363 33,26.125043 L33,23.3750215 C33,22.9953281 32.6921719,22.6875 32.3124785,22.6875 L32.3124785,22.6875 Z M31.6250215,25.4375215 L30.07125,25.4375215 C29.7582012,25.437457 29.4846621,25.6488633 29.4057715,25.951793 C29.2913672,26.388334 29.118375,26.8074082 28.8915,27.197543 C28.7359746,27.4670215 28.780834,27.807334 29.0008125,28.027377 L30.096,29.1225645 L29.1225,30.0960645 L28.0273125,29.000877 C27.807334,28.7808984 27.466957,28.7360391 27.1974785,28.8915645 C26.8073438,29.1184395 26.3882695,29.2914316 25.9517285,29.4058359 C25.6487988,29.4847266 25.4373926,29.7582656 25.437457,30.0713145 L25.437457,31.6250859 L24.0624785,31.6250859 L24.0624785,30.07125 C24.062543,29.7582012 23.8511367,29.4846621 23.548207,29.4057715 C23.111666,29.2913672 22.6925918,29.118375 22.302457,28.8915 C22.0329785,28.7359746 21.692666,28.780834 21.472623,29.0008125 L20.3774355,30.096 L19.4039355,29.1225 L20.499123,28.0273125 C20.719166,27.807334 20.7639609,27.466957 20.6084355,27.1974785 C20.3815605,26.8073438 20.2085684,26.3882695 20.0941641,25.9517285 C20.0152734,25.6487988 19.7417344,25.4373926 19.4286855,25.437457 L17.8749141,25.437457 L17.8749141,24.0624785 L19.4286855,24.0624785 C19.7417344,24.062543 20.0152734,23.8511367 20.0941641,23.548207 C20.2085684,23.111666 20.3815605,22.6925918 20.6084355,22.302457 C20.7639609,22.0329785 20.7191016,21.692666 20.499123,21.472623 L19.4039355,20.3774355 L20.3774355,19.4039355 L21.472623,20.499123 C21.6926016,20.719166 22.0329785,20.7639609 22.302457,20.6084355 C22.6925918,20.3815605 23.111666,20.2085684 23.548207,20.0941641 C23.8511367,20.0152734 24.062543,19.7417344 24.0624785,19.4286855 L24.0624785,17.8749141 L25.437457,17.8749141 L25.437457,19.4286855 C25.4373926,19.7417344 25.6487988,20.0152734 25.9517285,20.0941641 C26.3882695,20.2085684 26.8073438,20.3815605 27.1974785,20.6084355 C27.466957,20.7639609 27.8072695,20.7191016 28.0273125,20.499123 L29.1225,19.4039355 L30.096,20.3774355 L29.0008125,21.472623 C28.780834,21.6926016 28.7359746,22.0329785 28.8915,22.302457 C29.118375,22.6925918 29.2913672,23.111666 29.4057715,23.548207 C29.4846621,23.8511367 29.7582012,24.062543 30.07125,24.0624785 L31.6250215,24.0624785 L31.6250215,25.4375215 L31.6250215,25.4375215 Z" id="Shape"></path>
                <path d="M24.75,21.9999785 C23.2312266,21.9999785 21.9999785,23.2312266 21.9999785,24.75 C21.9999785,26.2687734 23.2312266,27.5000215 24.75,27.5000215 C26.2687734,27.5000215 27.5000215,26.2687734 27.5000215,24.75 C27.5000215,23.2312266 26.2687734,21.9999785 24.75,21.9999785 Z M24.75,26.1249785 C23.9906133,26.1249785 23.3750215,25.5093867 23.3750215,24.75 C23.3750215,23.9906133 23.9906133,23.3750215 24.75,23.3750215 C25.5093867,23.3750215 26.1249785,23.9906133 26.1249785,24.75 C26.1249785,25.5093867 25.5093867,26.1249785 24.75,26.1249785 Z" id="Shape"></path>
                <path d="M16.4999355,3.43747852 C23.7141738,3.43747852 29.562457,9.28576172 29.562457,16.5 L29.562457,16.5 L28.1874785,16.5 C28.18278,13.6481479 27.1543135,11.0253014 25.4417561,8.99128052 L23.1335745,11.2989481 L22.1277761,10.2931496 L24.4607039,7.95990877 C22.5364023,6.1679472 20.002539,5.0145449 17.1875215,4.84758398 L17.1875215,4.84758398 L17.1875215,8.25 L15.812543,8.25 L15.812543,4.84751953 C13.0270723,5.0087168 10.3923574,6.1657793 8.38889648,8.10762305 L8.38889648,8.10762305 L10.7986055,10.5138516 L9.82645898,11.485998 L7.45252148,9.11276953 C5.89784766,11.0145234 4.98590039,13.3600371 4.84758398,15.8124785 L4.84758398,15.8124785 L8.25,15.8124785 L8.25,17.187457 L4.84751953,17.187457 C4.98583594,19.6398984 5.8977832,21.9854121 7.45245703,23.887166 L7.45245703,23.887166 L9.82639453,21.5139375 L10.798541,22.486084 L8.38747852,24.895793 C10.5601289,27.0072129 13.4704453,28.1880586 16.5,28.187543 L16.5,28.187543 L16.5,29.5625215 C9.28576172,29.5625215 3.43747852,23.7142383 3.43747852,16.5 C3.43747852,9.28576172 9.28569727,3.43747852 16.4999355,3.43747852 Z" id="Combined-Shape"></path>
                <path d="M15.8124785,16.215375 L12.576416,19.4514375 L13.5485625,20.423584 L16.986041,16.9861055 C17.1150117,16.8571992 17.187457,16.6823379 17.187457,16.5000645 L17.187457,11.0000859 L15.8124785,11.0000859 L15.8124785,16.215375 Z" id="Path"></path>
            </g>
        </g>
    </g>
</symbol>
<symbol id="icon-star-outline" viewBox="0 0 24 24"><path d="M22 9.24l-7.19-.62L12 2 9.19 8.63 2 9.24l5.46 4.73L5.82 21 12 17.27 18.18 21l-1.63-7.03L22 9.24zM12 15.4l-3.76 2.27 1-4.28-3.32-2.88 4.38-.38L12 6.1l1.71 4.04 4.38.38-3.32 2.88 1 4.28L12 15.4z"/>
</symbol>
<symbol id="icon-star" viewBox="0 0 24 24"><path d="M0 0h24v24H0z" fill="none"/><path d="M12 17.27L18.18 21l-1.64-7.03L22 9.24l-7.19-.61L12 2 9.19 8.63 2 9.24l5.46 4.73L5.82 21z"/><path d="M0 0h24v24H0z" fill="none"/>
</symbol>
<symbol id="icon-register" viewBox="0 0 370 388"><defs><style>.a,.e{fill:none;}.a{stroke:rgba(69,183,196,0.05);}.b{fill:rgba(28,50,87,0.04);}.c{fill:url(#a);}.d{stroke:none;}</style><linearGradient id="a" x1="0.882" y1="0.741" x2="0.365" y2="0.276" gradientUnits="objectBoundingBox"><stop offset="0" stop-color="#be9e5f" stop-opacity="0.051"/><stop offset="1" stop-color="#5f4f30" stop-opacity="0.051"/></linearGradient></defs><g transform="translate(127 27)"><g class="a" transform="translate(-127 -27)"><circle class="d" cx="185" cy="185" r="185"/><circle class="e" cx="185" cy="185" r="184.5"/></g><circle class="b" cx="24" cy="24" r="24" transform="translate(28 313)"/><circle class="c" cx="129" cy="129" r="129" transform="translate(-71 29)"/></g></symbol>
<!-- <symbol id="icon-share" viewBox="0 0 24 24"><path d="M0 0h24v24H0z" fill="none"/><path d="M18 16.08c-.76 0-1.44.3-1.96.77L8.91 12.7c.05-.23.09-.46.09-.7s-.04-.47-.09-.7l7.05-4.11c.54.5 1.25.81 2.04.81 1.66 0 3-1.34 3-3s-1.34-3-3-3-3 1.34-3 3c0 .24.04.47.09.7L8.04 9.81C7.5 9.31 6.79 9 6 9c-1.66 0-3 1.34-3 3s1.34 3 3 3c.79 0 1.5-.31 2.04-.81l7.12 4.16c-.05.21-.08.43-.08.65 0 1.61 1.31 2.92 2.92 2.92 1.61 0 2.92-1.31 2.92-2.92s-1.31-2.92-2.92-2.92z"/></symbol> -->
<symbol id="icon-share" viewBox="-21 0 512 512"><path d="m389.332031 160c-44.09375 0-80-35.882812-80-80s35.90625-80 80-80c44.097657 0 80 35.882812 80 80s-35.902343 80-80 80zm0-128c-26.453125 0-48 21.523438-48 48s21.546875 48 48 48 48-21.523438 48-48-21.546875-48-48-48zm0 0"/><path d="m389.332031 512c-44.09375 0-80-35.882812-80-80s35.90625-80 80-80c44.097657 0 80 35.882812 80 80s-35.902343 80-80 80zm0-128c-26.453125 0-48 21.523438-48 48s21.546875 48 48 48 48-21.523438 48-48-21.546875-48-48-48zm0 0"/><path d="m80 336c-44.097656 0-80-35.882812-80-80s35.902344-80 80-80 80 35.882812 80 80-35.902344 80-80 80zm0-128c-26.453125 0-48 21.523438-48 48s21.546875 48 48 48 48-21.523438 48-48-21.546875-48-48-48zm0 0"/><path d="m135.703125 240.425781c-5.570313 0-10.988281-2.902343-13.910156-8.0625-4.375-7.679687-1.707031-17.453125 5.972656-21.824219l197.953125-112.855468c7.65625-4.414063 17.449219-1.726563 21.800781 5.976562 4.375 7.679688 1.707031 17.449219-5.972656 21.824219l-197.953125 112.851563c-2.496094 1.40625-5.203125 2.089843-7.890625 2.089843zm0 0"/><path d="m333.632812 416.425781c-2.6875 0-5.398437-.683593-7.894531-2.109375l-197.953125-112.855468c-7.679687-4.371094-10.34375-14.144532-5.972656-21.824219 4.351562-7.699219 14.125-10.367188 21.804688-5.972657l197.949218 112.851563c7.679688 4.375 10.347656 14.144531 5.976563 21.824219-2.945313 5.183594-8.363281 8.085937-13.910157 8.085937zm0 0"/></symbol>
<symbol id="icon-laptop"
    class="box__icon"
    width="29.974"
    height="23.168"
    viewBox="0 0 29.974 23.168"
    >
    <defs>
        <style>
        .a {
            fill: #fff;
        }
        </style>
    </defs>
    <g transform="translate(0 0)">
        <path
        class="a"
        d="M102.636,135h-.72v1.049a.446.446,0,0,1-.446.456H101v3.6h1.636Zm0,0"
        transform="translate(-94.39 -126.165)"
        />
        <path
        class="a"
        d="M212.029,116H210v6.348h2.029Zm-.852,5.89h-.387a.458.458,0,0,1,0-.916h.387a.458.458,0,1,1,0,.916Zm0-1.178h-.387a.458.458,0,1,1,0-.916h.387a.458.458,0,1,1,0,.916Zm0-1.113h-.387a.458.458,0,0,1,0-.916h.387a.458.458,0,1,1,0,.916Zm0-1.178h-.387a.458.458,0,0,1,0-.916h.387a.458.458,0,1,1,0,.916Zm0-1.113h-.387a.458.458,0,0,1,0-.916h.387a.458.458,0,1,1,0,.916Zm0,0"
        transform="translate(-196.257 -108.408)"
        />
        <path
        class="a"
        d="M143.665,77H140v3.281c0,.018,0,.037,0,.056s0,.038,0,.056V85.9h3.665Zm-2.356,7.673a.458.458,0,1,1-.916,0v-.7a.458.458,0,0,1,.916,0Zm0-1.838a.458.458,0,1,1-.916,0v-.7a.458.458,0,1,1,.916,0Zm0-1.837a.458.458,0,1,1-.916,0v-.7a.458.458,0,1,1,.916,0Zm0-1.838a.458.458,0,1,1-.916,0v-.7a.458.458,0,1,1,.916,0Zm1.9,5.513a.458.458,0,1,1-.916,0v-.7a.458.458,0,0,1,.916,0Zm0-1.838a.458.458,0,1,1-.916,0v-.7a.458.458,0,0,1,.916,0Zm0-1.837a.458.458,0,1,1-.916,0v-.7a.458.458,0,1,1,.916,0Zm0-1.838a.458.458,0,1,1-.916,0v-.7a.458.458,0,1,1,.916,0Zm0,0"
        transform="translate(-130.838 -71.961)"
        />
        <path
        class="a"
        d="M61,56.22H82.99V43H61Zm19.83-1.309H75.4a.458.458,0,0,1,0-.916H80.83a.458.458,0,1,1,0,.916Zm0-1.963H75.4a.458.458,0,0,1,0-.916H80.83a.458.458,0,1,1,0,.916Zm.458-2.421a.458.458,0,0,1-.458.458H75.4a.458.458,0,0,1,0-.916H80.83A.458.458,0,0,1,81.288,50.526ZM75.333,48.1H77.95a.458.458,0,0,1,0,.916H75.333a.458.458,0,0,1,0-.916ZM62.7,50.07a.444.444,0,0,1,.439-.46h.477V48.562a.468.468,0,0,1,.47-.458h1.166V44.793a.475.475,0,0,1,.45-.484h4.6a.473.473,0,0,1,.449.484v2.068h2.478a.452.452,0,0,1,.467.441v7.255a.489.489,0,0,1-.467.484H63.141a.466.466,0,0,1-.439-.484Zm0,0"
        transform="translate(-57.008 -40.186)"
        />
        <path
        class="a"
        d="M18.68,296.437a3.121,3.121,0,0,1-2.289,1H13.583a3.121,3.121,0,0,1-2.289-1l-.4-.437H0v1.611A2.172,2.172,0,0,0,2.176,299.8H27.8a2.172,2.172,0,0,0,2.177-2.185V296H19.083Zm0,0"
        transform="translate(0 -276.628)"
        />
        <path
        class="a"
        d="M31.054,18.61l.539.591a2.19,2.19,0,0,0,1.615.694h2.808a2.195,2.195,0,0,0,1.615-.7l.539-.578a.472.472,0,0,1,.337-.161h9.717V2.185A2.2,2.2,0,0,0,46.02,0H23.205A2.2,2.2,0,0,0,21,2.185v16.27h9.718a.465.465,0,0,1,.337.154ZM22.7,16.492V2.356A.458.458,0,0,1,23.16,1.9H46.066a.458.458,0,0,1,.458.458V16.492a.458.458,0,0,1-.458.458H23.16A.458.458,0,0,1,22.7,16.492Zm0,0"
        transform="translate(-19.626 0)"
        />
    </g>
</symbol>
<symbol id="icon-money" viewBox="0 0 27.111 38.908"><defs><style>.a{fill:#fff;}</style></defs><g transform="translate(-0.043)"><path class="a" d="M.043,368.917l3.367-.589,1.492,8.53-3.367.589Zm0,0" transform="translate(0 -338.539)"/><path class="a" d="M79.627,334.536a1.758,1.758,0,0,0-2.077.076l-.01.008-3.98,2.976a3.451,3.451,0,0,1,.212.727.486.486,0,0,1-.394.562l-6.48,1.134a.485.485,0,1,1-.167-.956l5.955-1.042a2.5,2.5,0,0,0-2.752-1.555l-3.942.69a5.272,5.272,0,0,1-2.339-.122l-.441-.125a6.148,6.148,0,0,0-6.079,1.6l1,5.723.6-.491a2.986,2.986,0,0,1,2.133-.68l7.033.514a6.329,6.329,0,0,0,3.72-1.2Zm0,0" transform="translate(-52.473 -307.203)"/><path class="a" d="M284.037,218.543h-1.545a7.8,7.8,0,0,1-1.969,4.671l1.091,1.082A9.168,9.168,0,0,0,284.037,218.543Zm0,0" transform="translate(-257.797 -200.868)"/><path class="a" d="M213.656,286.848v1.543a9.372,9.372,0,0,0,5.813-2.35l-1.093-1.092A7.786,7.786,0,0,1,213.656,286.848Zm0,0" transform="translate(-196.337 -261.904)"/><path class="a" d="M280.93,136.1a7.771,7.771,0,0,1,1.942,4.7h1.544a9.33,9.33,0,0,0-2.394-5.784Zm0,0" transform="translate(-258.17 -124.1)"/><path class="a" d="M213.656,98.851a7.831,7.831,0,0,1,4.757,1.932l1.093-1.092a9.229,9.229,0,0,0-5.851-2.383Zm0,0" transform="translate(-196.337 -89.439)"/><path class="a" d="M93.957,218.543a9.326,9.326,0,0,0,2.375,5.71l1.092-1.1a7.711,7.711,0,0,1-1.922-4.609Zm0,0" transform="translate(-86.319 -200.868)"/><path class="a" d="M137.515,286.307a7.648,7.648,0,0,1-4.554-1.932l-1.09,1.092a9.236,9.236,0,0,0,5.644,2.385Zm0,0" transform="translate(-121.166 -261.377)"/><path class="a" d="M132.483,100.963A7.689,7.689,0,0,1,137.073,99V97.453a9.283,9.283,0,0,0-5.683,2.418Zm0,0" transform="translate(-120.725 -89.572)"/><path class="a" d="M93.891,141.3h1.544a7.685,7.685,0,0,1,1.9-4.64l-1.092-1.1A9.3,9.3,0,0,0,93.891,141.3Zm0,0" transform="translate(-86.258 -124.592)"/><path class="a" d="M202.626,5.257V.485a.485.485,0,1,0-.97,0V5.257a.485.485,0,1,0,.97,0Zm0,0" transform="translate(-185.308 0)"/><path class="a" d="M241.626,22.72V19.485a.485.485,0,1,0-.97,0V22.72a.485.485,0,1,0,.97,0Zm0,0" transform="translate(-221.154 -17.463)"/><path class="a" d="M164.627,22.72V19.485a.485.485,0,1,0-.97,0V22.72a.485.485,0,1,0,.97,0Zm0,0" transform="translate(-150.381 -17.463)"/><path class="a" d="M269.141,38a.485.485,0,0,0-.485.485v2.507a.485.485,0,1,0,.97,0V38.485A.485.485,0,0,0,269.141,38Zm0,0" transform="translate(-246.889 -34.927)"/><path class="a" d="M135.627,40.992V38.485a.485.485,0,1,0-.971,0v2.507a.485.485,0,0,0,.971,0Zm0,0" transform="translate(-123.726 -34.927)"/><path class="a" d="M6.9,13.807a6.9,6.9,0,1,1,6.9-6.9A6.911,6.911,0,0,1,6.9,13.807Zm-.167-6.38-.13.595a3.048,3.048,0,0,0,.557.138,3.505,3.505,0,0,0,.527.042,1.969,1.969,0,0,0,.5-.062,1.308,1.308,0,0,0,.422-.193.928.928,0,0,0,.292-.33.966.966,0,0,0,.108-.464,1.043,1.043,0,0,0-.07-.4.853.853,0,0,0-.205-.3,1.438,1.438,0,0,0-.315-.225,4.188,4.188,0,0,0-.4-.188c-.116-.046-.218-.09-.3-.132a1.2,1.2,0,0,1-.211-.127.492.492,0,0,1-.122-.138.35.35,0,0,1-.04-.167.326.326,0,0,1,.048-.183.362.362,0,0,1,.127-.118A.573.573,0,0,1,7.7,5.115,1.263,1.263,0,0,1,7.916,5.1a2.531,2.531,0,0,1,.38.031,1.948,1.948,0,0,1,.385.1l.125-.585a2.4,2.4,0,0,0-.435-.1,3.615,3.615,0,0,0-.5-.033,1.817,1.817,0,0,0-.447.058,1.3,1.3,0,0,0-.4.183.955.955,0,0,0-.293.322.969.969,0,0,0-.11.472.908.908,0,0,0,.07.365.9.9,0,0,0,.2.287,1.458,1.458,0,0,0,.305.228,3.029,3.029,0,0,0,.39.185c.121.047.226.093.312.135a1.312,1.312,0,0,1,.22.132.438.438,0,0,1,.127.145.377.377,0,0,1,.041.177.363.363,0,0,1-.16.313.841.841,0,0,1-.455.1,2.382,2.382,0,0,1-.437-.045A2.6,2.6,0,0,1,6.736,7.427ZM4.236,6.7h.34a1.527,1.527,0,0,1,.311.025.451.451,0,0,1,.192.082.416.416,0,0,1,.118.155,1.6,1.6,0,0,1,.085.243c.016.056.033.12.052.192l0,.015.062.248c.022.087.043.173.065.258l.031.12.027.1h.785c-.032-.1-.062-.208-.092-.311l-.072-.247c-.051-.175-.105-.353-.165-.542a2.363,2.363,0,0,0-.09-.285,1,1,0,0,0-.1-.183.431.431,0,0,0-.115-.117.6.6,0,0,0-.149-.076v-.01a.922.922,0,0,0,.447-.308.838.838,0,0,0,.157-.522.941.941,0,0,0-.1-.457.833.833,0,0,0-.275-.3,1.2,1.2,0,0,0-.4-.162,2.155,2.155,0,0,0-.465-.05H3.506v3.57h.73V6.7Zm.481-.585H4.236v-.96h.5a1.613,1.613,0,0,1,.247.02A.642.642,0,0,1,5.2,5.25a.4.4,0,0,1,.148.148.479.479,0,0,1,.055.239.491.491,0,0,1-.05.233.386.386,0,0,1-.142.148.675.675,0,0,1-.218.077A1.61,1.61,0,0,1,4.717,6.117Z" transform="translate(10.035 10.373)"/></g>
</symbol>
<symbol id="icon-keyboard-backspace" viewBox="0 0 24 24"><path d="M0 0h24v24H0z" fill="none"/><path d="M21 11H6.83l3.58-3.59L9 6l-6 6 6 6 1.41-1.41L6.83 13H21z"/>
</symbol>
<symbol id="icon-keyboard-arrow" viewBox="0 0 24 24" width="24"><path d="M15.41 16.59L10.83 12l4.58-4.59L14 6l-6 6 6 6 1.41-1.41z"/><path d="M0 0h24v24H0V0z" fill="none"/>
</symbol>
<symbol id="icon-house-2" viewBox="0 0 31.499 31.505"><defs><style>.a{fill:#fff;}</style></defs><g transform="translate(-0.048)"><g transform="translate(5.709 0)"><path class="a" d="M115.343,9.726,105.19.407a1.833,1.833,0,0,0-2.3,0L92.734,9.7A1.845,1.845,0,0,0,95.04,12.58l9-8.306,9,8.335a1.918,1.918,0,0,0,2.592-.29A1.843,1.843,0,0,0,115.343,9.726Z" transform="translate(-92.04 0)"/></g><g transform="translate(22.321 0.003)"><path class="a" d="M366.631.044h-3.692a.922.922,0,0,0-.923.923v.146l5.537,5.107V.967A.922.922,0,0,0,366.631.044Z" transform="translate(-362.016 -0.044)"/></g><g transform="translate(0.048 14.831)"><g transform="translate(0)"><path class="a" d="M2.94,241.023H.971a.922.922,0,0,0-.923.923v14.828a.922.922,0,0,0,.923.923H2.94a2.772,2.772,0,0,0,2.769-2.769V243.792A2.772,2.772,0,0,0,2.94,241.023Z" transform="translate(-0.048 -241.023)"/></g></g><g transform="translate(7.554 16.314)"><path class="a" d="M145.277,265.846a1.84,1.84,0,0,0-2.436.24l-4.984,6.2a2.231,2.231,0,0,1-1.366.591H128.5a.923.923,0,1,1,0-1.846h7.383a1.846,1.846,0,0,0,0-3.692h-4.836c-.46,0-.689-.292-1.052-.609a6.125,6.125,0,0,0-1.827-1.126,6.464,6.464,0,0,0-6.128.694v12.178h13.844a5.56,5.56,0,0,0,4.43-2.215l5.353-7.814A1.86,1.86,0,0,0,145.277,265.846Z" transform="translate(-122.038 -265.133)"/></g><g transform="translate(9.4 6.788)"><path class="a" d="M160.339,110.312l-8.3,7.666v.25a8.3,8.3,0,0,1,1.866-.235,8.2,8.2,0,0,1,3.114.61c.2.078.371.189.558.281v-1.452a.922.922,0,0,1,.923-.923h3.692a.922.922,0,0,1,.923.923V120.2h.923a3.7,3.7,0,0,1,3.348,2.137l1.266-1.576V118Z" transform="translate(-152.035 -110.312)"/></g><g transform="translate(16.783 14.831)"><path class="a" d="M272.024,241.023v1.746l.111.1h1.735v-1.846Z" transform="translate(-272.024 -241.023)"/></g></g>
</symbol>
<symbol id="icon-house-visiting" viewBox="0 0 29.724 19.746"><defs><style>.a{fill:#fff;}</style></defs><g transform="translate(0 -67.327)"><g transform="translate(0 67.327)"><path class="a" d="M7.321,159.639a2.917,2.917,0,1,0-3.125,0A5.759,5.759,0,0,0,0,165.18c0,3.18,11.516,3.18,11.516,0A5.759,5.759,0,0,0,7.321,159.639Z" transform="translate(0 -147.819)"/><path class="a" d="M174.121,78.724l-5.569-5.569V69.483a.829.829,0,0,0-1.658,0V71.5l-3.929-3.928a.827.827,0,0,0-1.171,0l-5.579,5.579a2.97,2.97,0,0,1,1.1,1.241l5.063-5.064L172.95,79.9a.828.828,0,1,0,1.17-1.172Z" transform="translate(-144.64 -67.327)"/><path class="a" d="M172.143,121.163l-8.784-8.784a.826.826,0,0,0-1.171,0l-4.241,4.241a2.908,2.908,0,0,1-.158,1.606,4.705,4.705,0,0,1,1.939,3.8c0,.533-.24,1.737-2.258,2.317a6.9,6.9,0,0,1,.251,1.837,2.586,2.586,0,0,1-1.083,2.086h2.789a2.008,2.008,0,0,0,2-2v-3.148a1.348,1.348,0,1,1,2.684,0v3.148a2.007,2.007,0,0,0,2,2h4.288a2.006,2.006,0,0,0,2-2v-4.288a1.933,1.933,0,0,0-.037-.379A.826.826,0,0,0,172.143,121.163Z" transform="translate(-145.032 -108.816)"/><path class="a" d="M113.921,160.7a6.371,6.371,0,0,1,2.995,2.935c1.17-.2,2.087-.642,2.087-1.341a3.515,3.515,0,0,0-2.56-3.382,1.779,1.779,0,1,0-2.391-2.548,3.492,3.492,0,0,1-.13,4.336Z" transform="translate(-105.48 -149.084)"/></g></g>
</symbol>
<symbol id="icon-people" viewBox="0 0 29.812 22.699"><defs><style>.a{fill:#fff;}</style></defs><path class="a" d="M23.321,81.875H6.491a.962.962,0,0,1-.962-.962V78.066a3.446,3.446,0,0,1,2.039-3.143c3.6-1.608,3.4-1.554,3.685-1.554H12.4a.962.962,0,0,1,.934.732,1.624,1.624,0,0,0,3.151,0,.962.962,0,0,1,.934-.732c1.23,0,1.293-.024,1.535.084l3.293,1.47a3.446,3.446,0,0,1,2.039,3.143v2.847a.962.962,0,0,1-.962.962Zm-8.391-22.7A5.874,5.874,0,1,0,20.8,65.05a5.881,5.881,0,0,0-5.874-5.874ZM5.663,65.459a3.7,3.7,0,1,0,3.7,3.7A3.7,3.7,0,0,0,5.663,65.459Zm18.486,0a3.7,3.7,0,1,0,3.7,3.7A3.7,3.7,0,0,0,24.149,65.459Zm4.275,8.81c-2-.894-1.953-.9-2.227-.9-1.432,0-2.37-.01-3-.013a.6.6,0,0,0-.28,1.134,3.455,3.455,0,0,1,1.064.8,4.16,4.16,0,0,1,1.051,3.067.6.6,0,0,0,.6.6h3.221A.962.962,0,0,0,29.812,78V76.41a2.347,2.347,0,0,0-1.388-2.14Zm-24.808-.9c-.273,0-.219.006-2.227.9A2.347,2.347,0,0,0,0,76.41V78a.962.962,0,0,0,.962.962H4.183a.6.6,0,0,0,.6-.6A4.14,4.14,0,0,1,5.835,75.29a3.464,3.464,0,0,1,1.055-.8.6.6,0,0,0-.278-1.134c-.638,0-1.575.009-3,.009Z" transform="translate(0 -59.176)"/>
</symbol>
<symbol id="icon-buildings" viewBox="0 0 30.04 30.04"><defs><style>.a{fill:#fff;}</style></defs><g transform="translate(0 0)"><path class="a" d="M397,113h1.995v4.381H397Zm0,0" transform="translate(-373.707 -106.37)"/><path class="a" d="M28.417,28.28V12.771H23.293v3.315h1.7v2.5h-1.7V28.28h-1.76V6.966l-2.5-1.252V2.875H15.9V0H14.14V2.875H11.011V5.714l-2.5,1.252V28.28H6.747V21.669h-1.7v-2.5h1.7v-2.5h-1.7v-2.5h1.7v-4.4H1.623V28.28H0v1.76H30.04V28.28ZM14.023,18.589h-1.76v-2.5h1.76Zm0-7.51v2.5h-1.76v-2.5h1.76Zm-1.76,10.014h1.76v2.5h-1.76Zm5.515,2.5h-1.76v-2.5h1.76Zm-1.76-5.007v-2.5h1.76v2.5Zm1.76-5.007h-1.76v-2.5h1.76Zm0,0" transform="translate(0 0)"/></g>
</symbol>
<symbol id="icon-delete" viewBox="0 0 12.444 16"><defs><style>.a{fill:#c05959;}</style></defs><path class="a" d="M8.389,18.722A1.783,1.783,0,0,0,10.167,20.5h7.111a1.783,1.783,0,0,0,1.778-1.778V8.056H8.389ZM19.944,5.389H16.833L15.944,4.5H11.5l-.889.889H7.5V7.167H19.944Z" transform="translate(-7.5 -4.5)"/>
</symbol>
<symbol id="icon-block" viewBox="0 0 16 16"><defs><style>.a{fill:#5d5d5d;}.b{fill:#59c0a1;}</style></defs><g transform="translate(-263 -1436)"><path class="a" d="M7749.5,1702.382h-4.492a1.126,1.126,0,0,1-.988-.592l6.6-6.6v6.069A1.124,1.124,0,0,1,7749.5,1702.382Zm-5.616-3.514v-4.346h4.345l-4.343,4.344Zm4.907-4.909h-5.467v-1.125h1.963l.563-.56h2.809l.561.56h.7l-1.125,1.124Z" transform="translate(-7475.959 -253.328)"/><path class="b" d="M11,3a8,8,0,1,0,8,8A8,8,0,0,0,11,3ZM4.6,11A6.4,6.4,0,0,1,11,4.6a6.322,6.322,0,0,1,3.92,1.352L5.952,14.92A6.322,6.322,0,0,1,4.6,11ZM11,17.4a6.322,6.322,0,0,1-3.92-1.352L16.048,7.08A6.322,6.322,0,0,1,17.4,11,6.4,6.4,0,0,1,11,17.4Z" transform="translate(260 1433)"/></g>
</symbol>
<symbol id="icon-warning" viewBox="0 0 18.005 15.55"><defs><style>.a{fill:#c05959;}</style></defs><path class="a" d="M1,17.55H19.005L10,2Zm9.821-2.455H9.184V13.458h1.637Zm0-3.274H9.184V8.547h1.637Z" transform="translate(-1 -2)"/>
</symbol>
<symbol id="icon-event" viewBox="0 0 24 24"><path d="M17 12h-5v5h5v-5zM16 1v2H8V1H6v2H5c-1.11 0-1.99.9-1.99 2L3 19c0 1.1.89 2 2 2h14c1.1 0 2-.9 2-2V5c0-1.1-.9-2-2-2h-1V1h-2zm3 18H5V8h14v11z"/><path d="M0 0h24v24H0z" fill="none"/>
</symbol>
<symbol id="icon-block7" viewBox="0 0 16 16"><defs><style>.a{fill:#c05959;}</style></defs><path class="a" d="M11,3a8,8,0,1,0,8,8A8,8,0,0,0,11,3ZM4.6,11A6.4,6.4,0,0,1,11,4.6a6.322,6.322,0,0,1,3.92,1.352L5.952,14.92A6.322,6.322,0,0,1,4.6,11ZM11,17.4a6.322,6.322,0,0,1-3.92-1.352L16.048,7.08A6.322,6.322,0,0,1,17.4,11,6.4,6.4,0,0,1,11,17.4Z" transform="translate(-3 -3)"/></symbol>
<symbol id="icon-printer" viewBox="0 0 512 512" style="enable-background:new 0 0 512 512;" xml:space="preserve">
<g>
	<g>
		<path d="M446.016,245.61h-18.253c-10.122,0-18.357,8.235-18.357,18.358v18.252c0,10.122,8.235,18.357,18.357,18.357h18.253
			c10.122,0,18.357-8.235,18.357-18.357v-18.252C464.373,253.845,456.137,245.61,446.016,245.61z M449.382,282.219
			c0,1.856-1.51,3.366-3.366,3.366h-18.253c-1.856,0-3.366-1.51-3.366-3.366v-18.252c0-1.856,1.51-3.367,3.366-3.367h18.253
			c1.856,0,3.366,1.511,3.366,3.367V282.219z"/>
	</g>
</g>
<g>
	<g>
		<path d="M503.985,208.921c-5.195-5.233-12.118-8.13-19.49-8.156l-15.623-0.056l0.341-94.114
			c0.025-7.018-2.689-13.624-7.642-18.597c-4.953-4.974-11.547-7.715-18.567-7.719l-26.603-0.014v-49.7
			c0-10.415-8.472-18.887-18.887-18.887H113.568c-10.415,0-18.887,8.472-18.887,18.887V80.1l-25.177-0.014c-0.005,0-0.01,0-0.015,0
			c-14.406,0-26.168,11.717-26.221,26.127l-0.336,92.956l-14.526-0.052c-0.035,0-0.067,0-0.101,0
			c-15.174,0-27.549,12.319-27.603,27.505L0,420.529c-0.055,15.222,12.284,27.65,27.505,27.705l64.13,0.232l-12.31,34.338
			c-1.335,3.725-0.776,7.884,1.496,11.124c2.272,3.24,5.991,5.183,9.949,5.198l330.406,1.196c0.015,0,0.029,0,0.044,0
			c3.941,0,7.655-1.914,9.942-5.126c2.295-3.224,2.886-7.378,1.577-11.114l-12.061-34.425l62.916,0.227c0.035,0,0.067,0,0.102,0
			c15.174-0.001,27.549-12.319,27.603-27.505L512,228.47C512.026,221.097,509.18,214.154,503.985,208.921z M416.401,95.256h0.001
			l26.595,0.014c3.006,0.002,5.83,1.176,7.952,3.307c2.122,2.131,3.284,4.959,3.273,7.965l-0.341,94.113l-37.48-0.135V95.256z
			 M109.672,30.565c0-2.148,1.748-3.896,3.896-3.896h283.947c2.148,0,3.896,1.748,3.896,3.896v169.899l-291.739-1.055V30.565z
			 M58.26,106.267c0.022-6.172,5.059-11.19,11.23-11.19c0.002,0,0.005,0,0.007,0l25.185,0.014v104.265l-36.758-0.133L58.26,106.267z
			 M74.513,433.412l0.124-34.365c0.008-2.292,1.875-4.15,4.164-4.15c0.006,0,0.011,0,0.016,0l31.979,0.116l-6.476,18.066
			l-7.071,19.724l-0.247,0.69L74.513,433.412z M94.767,484.15l14.555-40.601c0.001-0.003,0.003-0.007,0.005-0.01l17.385-48.498
			l259.275,0.937l17.035,48.623c0.001,0.003,0.003,0.006,0.004,0.009l14.262,40.707L94.767,484.15z M437.348,434.724l-21.93-0.079
			l-2.938-8.386l-10.578-30.193l31.42,0.114c1.113,0.004,2.157,0.441,2.941,1.231s1.213,1.837,1.209,2.948L437.348,434.724z
			 M496.306,422.324c-0.025,6.94-5.679,12.568-12.613,12.568c-0.016,0-0.031,0-0.046,0l-31.309-0.113l0.124-34.366
			c0.019-5.117-1.957-9.934-5.562-13.565c-3.604-3.632-8.408-5.641-13.524-5.66l-41.654-0.151c-0.129-0.007-0.255-0.031-0.385-0.032
			l-269.866-0.976c-0.01,0-0.019,0-0.027,0c-0.125,0-0.245,0.023-0.369,0.029l-42.202-0.153c-0.024,0-0.047,0-0.071,0
			c-10.53,0-19.116,8.548-19.154,19.086l-0.124,34.366l-31.963-0.115c-6.956-0.025-12.594-5.705-12.568-12.659l0.702-193.909
			c0.025-6.94,5.679-12.568,12.613-12.568c0.016,0,0.031,0,0.046,0l22.014,0.08c0.001,0,434.07,1.57,434.072,1.57
			c6.956,0.025,12.594,5.705,12.568,12.659L496.306,422.324z"/>
	</g>
</g>
<g>
	<g>
		<path d="M300.973,132.313H150.536c-4.14,0-7.495,3.355-7.495,7.495s3.355,7.495,7.495,7.495h150.436
			c4.14,0,7.495-3.355,7.495-7.495S305.113,132.313,300.973,132.313z"/>
	</g>
</g>
<g>
	<g>
		<path d="M364.405,132.313h-21.979c-4.14,0-7.495,3.355-7.495,7.495s3.355,7.495,7.495,7.495h21.979
			c4.139,0.001,7.495-3.355,7.495-7.495S368.545,132.313,364.405,132.313z"/>
	</g>
</g>
<g>
	<g>
		<path d="M172.926,76.111h-22.39c-4.14,0-7.495,3.355-7.495,7.495c0,4.139,3.355,7.495,7.495,7.495h22.39
			c4.14,0,7.495-3.355,7.495-7.495C180.421,79.466,177.066,76.111,172.926,76.111z"/>
	</g>
</g>
<g>
	<g>
		<path d="M364.404,76.111h-150.9c-4.14,0-7.495,3.355-7.495,7.495c0,4.139,3.355,7.495,7.495,7.495h150.9
			c4.14,0,7.495-3.355,7.495-7.495C371.899,79.466,368.544,76.111,364.404,76.111z"/>
	</g>
</symbol>
</defs>
</svg>  
