<svg xmlns="http://www.w3.org/2000/svg" width="91.576" height="57.001" viewBox="0 0 91.576 57.001"><defs><style>.a{fill:#e1b89a;}.b{fill:#8ee2cf;}.c{fill:#6fce91;}.d{fill:#a3defe;}.e{fill:#7acefa;}.f{fill:#f7ef87;}.g{fill:#efd176;}.h{fill:#b49cdc;}.i{fill:#908cd6;}.j{fill:#4e5660;}.k{fill:#eea849;}</style></defs><path class="a" d="M408.973,208.547h-8.55l-2.185,17.939a1.572,1.572,0,0,0,1.561,1.762h9.8a1.572,1.572,0,0,0,1.561-1.762Zm0,0" transform="translate(-327.001 -171.247)"/><path class="b" d="M384.569,29.019C384.569,21.355,378.356,0,370.691,0s-13.878,21.354-13.878,29.019a13.878,13.878,0,0,0,27.757,0Zm0,0" transform="translate(-292.994)"/><path class="b" d="M384.569,29.019C384.569,21.355,378.356,0,370.691,0s-13.878,21.354-13.878,29.019a13.878,13.878,0,0,0,27.757,0Zm0,0" transform="translate(-292.994)"/><path class="c" d="M367.367,7.367c-6.059,4.765-10.554,21.183-10.554,27.7a13.878,13.878,0,0,0,26.273,6.243C365.191,43.658,362.505,17.807,367.367,7.367Zm0,0" transform="translate(-292.994 -6.05)"/><path class="c" d="M458.523,112.042a1.341,1.341,0,0,1-.949-2.29l1.7-1.7a1.342,1.342,0,0,1,1.9,1.9l-1.7,1.7A1.337,1.337,0,0,1,458.523,112.042Zm0,0" transform="translate(-375.411 -88.399)"/><path class="b" d="M393,161.568a1.338,1.338,0,0,1-.949-.393l-2.105-2.105a1.341,1.341,0,1,1,1.9-1.9l2.105,2.105a1.342,1.342,0,0,1-.948,2.29Zm0,0" transform="translate(-319.875 -128.738)"/><path class="c" d="M411.981,56.513a1.338,1.338,0,0,1-.949-.393l-1.407-1.407a1.342,1.342,0,0,1,1.9-1.9l1.407,1.408a1.341,1.341,0,0,1-.948,2.29Zm0,0" transform="translate(-336.038 -43.047)"/><path class="d" d="M8.114,45.331a8.929,8.929,0,0,1,1.391.108,1.471,1.471,0,0,0,1.138-.289,10.623,10.623,0,0,1,12.928,0,1.471,1.471,0,0,0,1.138.289,8.929,8.929,0,0,1,1.391-.108c4.481,0,8.114,3.319,8.114,7.414S30.581,60.16,26.1,60.16a8.859,8.859,0,0,1-1.392-.109,1.473,1.473,0,0,0-1.137.29,10.625,10.625,0,0,1-12.928,0,1.474,1.474,0,0,0-1.138-.29,8.852,8.852,0,0,1-1.392.109C3.632,60.16,0,56.84,0,52.745S3.632,45.331,8.114,45.331Zm0,0" transform="translate(0 -35.274)"/><path class="e" d="M22.235,61.739c-6.853-3.556-8.613-13.428-6.673-18.149a10.44,10.44,0,0,0-4.919,2.08,1.471,1.471,0,0,1-1.138.289,8.929,8.929,0,0,0-1.391-.108C3.632,45.851,0,49.17,0,53.265s3.632,7.414,8.114,7.414A8.929,8.929,0,0,0,9.5,60.571a1.471,1.471,0,0,1,1.138.289,10.64,10.64,0,0,0,11.592.879Zm0,0" transform="translate(0 -35.793)"/><path class="f" d="M93.768,76.668C84.642,68.221,71.275,45.415,63.584,29.55a5.885,5.885,0,0,0-10.595,0C45.3,45.415,31.931,68.221,22.806,76.668a1.076,1.076,0,0,0,.725,1.871H93.042A1.077,1.077,0,0,0,93.768,76.668Zm0,0" transform="translate(-18.438 -21.537)"/><path class="g" d="M53.832,37.586a6.043,6.043,0,0,0-.844,1.289C45.3,54.741,31.929,77.548,22.8,85.994a1.077,1.077,0,0,0,.726,1.871H62.636C50.208,79.068,50.416,52.662,53.832,37.586Zm0,0" transform="translate(-18.437 -30.863)"/><path class="h" d="M168.28,39.357c3.359,0,7.143,3.17,11.874,2.865-2.44-4.44-4.683-8.777-6.58-12.691a5.884,5.884,0,0,0-10.588,0c-1.9,3.914-4.14,8.251-6.58,12.691C161.136,42.527,164.92,39.357,168.28,39.357Zm0,0" transform="translate(-128.432 -21.526)"/><path class="i" d="M156.406,51.543a13.727,13.727,0,0,0,5.607-1,84.465,84.465,0,0,1,1.814-12.975,6.026,6.026,0,0,0-.841,1.286C161.089,42.767,158.846,47.1,156.406,51.543Zm0,0" transform="translate(-128.432 -30.847)"/><path class="j" d="M143.051,169.232c9.434,0,13.5-27.1,14.263-32.556v32.556Zm0,0" transform="translate(-117.465 -112.23)"/><path class="g" d="M222.793,136.676l14.262,32.556H222.793Zm0,0" transform="translate(-182.945 -112.23)"/><path class="k" d="M113.936,252.387c-2.271,5.259-10.728,5.432-16.179,3.248a1.359,1.359,0,0,0-1.818,1.588,8.863,8.863,0,0,0,8.392,7.024C108.541,264.247,111.681,258.849,113.936,252.387Zm0,0" transform="translate(-78.745 -207.245)"/><g transform="translate(2.424 50.775)"><path class="h" d="M18.089,283.883H14.137a.583.583,0,0,0-.58.641l.5,5.06a.582.582,0,0,0,.58.525h2.952a.582.582,0,0,0,.58-.525l.5-5.06A.583.583,0,0,0,18.089,283.883Zm0,0" transform="translate(-13.554 -283.883)"/><path class="h" d="M404,283.883h3.952a.584.584,0,0,1,.581.641l-.5,5.06a.584.584,0,0,1-.581.525H404.5a.583.583,0,0,1-.581-.525l-.5-5.06A.584.584,0,0,1,404,283.883Zm0,0" transform="translate(-333.684 -283.883)"/></g></svg>