<svg xmlns="http://www.w3.org/2000/svg" width="61.202" height="64.636" viewBox="0 0 61.202 64.636">
  <g id="bar-chart" transform="translate(-13.601)">
    <g id="Group_401" data-name="Group 401" transform="translate(13.601 18.514)">
      <g id="Group_400" data-name="Group 400" transform="translate(0)">
        <path id="Path_181" data-name="Path 181" d="M73.541,190.251H70.772v-40.2a3.4,3.4,0,0,0-3.394-3.394H61.189a3.4,3.4,0,0,0-3.394,3.394v40.2H50.765V168.263a3.4,3.4,0,0,0-3.394-3.394H41.182a3.4,3.4,0,0,0-3.394,3.394v21.988H30.758V178.864a3.4,3.4,0,0,0-3.394-3.394H21.175a3.4,3.4,0,0,0-3.394,3.394v11.388H14.863a1.262,1.262,0,0,0,0,2.525H73.541a1.262,1.262,0,1,0,0-2.525Zm-45.308,0H20.306V178.864a.87.87,0,0,1,.869-.869h6.189a.87.87,0,0,1,.869.869v11.388Zm20.007,0H40.313V168.263a.87.87,0,0,1,.869-.869h6.189a.87.87,0,0,1,.869.869Zm20.007,0H60.32v-40.2a.87.87,0,0,1,.869-.869h6.189a.87.87,0,0,1,.869.869Z" transform="translate(-13.601 -146.654)" fill="#52b590"/>
      </g>
    </g>
    <g id="Group_403" data-name="Group 403" transform="translate(24.426)">
      <g id="Group_402" data-name="Group 402" transform="translate(0)">
        <path id="Path_182" data-name="Path 182" d="M145.689,1.328A1.258,1.258,0,0,0,144.365,0c-.02,0-.04,0-.061,0h-7.638a1.262,1.262,0,0,0,0,2.525h4.716L128.9,15,124.2,10.3a1.262,1.262,0,0,0-1.785,0L99.716,32.993a1.262,1.262,0,0,0,1.785,1.785l21.8-21.8,4.706,4.706a1.263,1.263,0,0,0,1.785,0L143.168,4.31V8.579a1.262,1.262,0,0,0,2.525,0V1.389C145.692,1.368,145.69,1.348,145.689,1.328Z" transform="translate(-99.346)" fill="#52b590"/>
      </g>
    </g>
    <g id="Group_405" data-name="Group 405" transform="translate(20.171 37.028)">
      <g id="Group_404" data-name="Group 404">
        <circle id="Ellipse_129" data-name="Ellipse 129" cx="1.262" cy="1.262" r="1.262" fill="#52b590"/>
      </g>
    </g>
  </g>
</svg>
