<svg xmlns="http://www.w3.org/2000/svg" width="276.562" height="155.586" viewBox="0 0 276.562 155.586">
  <g id="Group_481" data-name="Group 481" transform="translate(-48.84)">
    <path id="Path_728" data-name="Path 728" d="M124.52,283.785l-.573-.129a130.5,130.5,0,0,1,254.493-.347l-.573.13A129.161,129.161,0,0,0,251.233,182.526C191,182.526,137.714,225.111,124.52,283.785Z" transform="translate(-53.038 -128.476)" fill="#3f3d56"/>
    <rect id="Rectangle_458" data-name="Rectangle 458" width="2.616" height="103.328" transform="translate(118.568 52.136)" fill="#3f3d56"/>
    <path id="Path_729" data-name="Path 729" d="M254.371,65.3c.166,36.131-25.254,65.539-25.254,65.539s-25.69-29.173-25.857-65.3S228.514,0,228.514,0,254.2,29.173,254.371,65.3Z" transform="translate(-109.045 0)" fill="#52b590"/>
    <rect id="Rectangle_459" data-name="Rectangle 459" width="202.453" height="42.9" transform="translate(100.749 112.686)" fill="#f2f2f2"/>
    <path id="Path_730" data-name="Path 730" d="M203.5,288.632,225.538,242.5H401.545L418,288.632Z" transform="translate(-109.215 -171.245)" fill="#102744"/>
    <rect id="Rectangle_460" data-name="Rectangle 460" width="81.686" height="27.033" transform="translate(149.232 74.194)" fill="#f2f2f2"/>
    <path id="Path_731" data-name="Path 731" d="M377.429,177.5,364.5,204.533h96.966l-7.64-27.033Z" transform="translate(-222.908 -125.344)" fill="#0a1b2d"/>
    <rect id="Rectangle_461" data-name="Rectangle 461" width="64.497" height="34.379" transform="translate(156.431 121.207)" fill="#ccc"/>
    <rect id="Rectangle_462" data-name="Rectangle 462" width="34.379" height="33.203" transform="translate(108.683 122.383)" fill="#ccc"/>
    <rect id="Rectangle_463" data-name="Rectangle 463" width="17.777" height="31.147" transform="translate(232.094 124.439)" fill="#3f3d56"/>
    <rect id="Rectangle_464" data-name="Rectangle 464" width="1.726" height="68.186" transform="translate(87.352 87.287)" fill="#3f3d56"/>
    <path id="Path_732" data-name="Path 732" d="M158.94,223.066c.11,23.843-16.665,43.249-16.665,43.249s-16.953-19.251-17.063-43.094,16.665-43.249,16.665-43.249S158.83,199.224,158.94,223.066Z" transform="translate(-53.931 -127.091)" fill="#328765"/>
    <rect id="Rectangle_465" data-name="Rectangle 465" width="1.726" height="68.186" transform="translate(64.911 87.287)" fill="#3f3d56"/>
    <path id="Path_733" data-name="Path 733" d="M82.568,223.066c.11,23.843-16.665,43.249-16.665,43.249S48.95,247.065,48.841,223.222s16.665-43.249,16.665-43.249S82.458,199.224,82.568,223.066Z" transform="translate(0 -127.091)" fill="#52b590"/>
    <rect id="Rectangle_466" data-name="Rectangle 466" width="8.668" height="8.08" transform="translate(269.117 126.202)" fill="#3f3d56"/>
    <rect id="Rectangle_467" data-name="Rectangle 467" width="8.668" height="8.08" transform="translate(280.724 126.202)" fill="#3f3d56"/>
    <rect id="Rectangle_468" data-name="Rectangle 468" width="8.668" height="8.374" transform="translate(269.117 137.221)" fill="#3f3d56"/>
    <rect id="Rectangle_469" data-name="Rectangle 469" width="8.668" height="8.374" transform="translate(280.724 137.221)" fill="#3f3d56"/>
    <rect id="Rectangle_470" data-name="Rectangle 470" width="6.784" height="6.324" transform="translate(156.725 81.591)" fill="#3f3d56"/>
    <rect id="Rectangle_471" data-name="Rectangle 471" width="6.784" height="6.324" transform="translate(165.808 81.591)" fill="#3f3d56"/>
    <rect id="Rectangle_472" data-name="Rectangle 472" width="6.784" height="6.554" transform="translate(156.725 90.214)" fill="#3f3d56"/>
    <rect id="Rectangle_473" data-name="Rectangle 473" width="6.784" height="6.554" transform="translate(165.808 90.214)" fill="#3f3d56"/>
    <rect id="Rectangle_474" data-name="Rectangle 474" width="6.784" height="6.324" transform="translate(207.558 81.591)" fill="#3f3d56"/>
    <rect id="Rectangle_475" data-name="Rectangle 475" width="6.784" height="6.324" transform="translate(216.642 81.591)" fill="#3f3d56"/>
    <rect id="Rectangle_476" data-name="Rectangle 476" width="6.784" height="6.554" transform="translate(207.558 90.214)" fill="#3f3d56"/>
    <rect id="Rectangle_477" data-name="Rectangle 477" width="6.784" height="6.554" transform="translate(216.642 90.214)" fill="#3f3d56"/>
    <rect id="Rectangle_478" data-name="Rectangle 478" width="6.784" height="6.324" transform="translate(182.289 81.591)" fill="#3f3d56"/>
    <rect id="Rectangle_479" data-name="Rectangle 479" width="6.784" height="6.324" transform="translate(191.372 81.591)" fill="#3f3d56"/>
    <rect id="Rectangle_480" data-name="Rectangle 480" width="6.784" height="6.554" transform="translate(182.289 90.214)" fill="#3f3d56"/>
    <rect id="Rectangle_481" data-name="Rectangle 481" width="6.784" height="6.554" transform="translate(191.372 90.214)" fill="#3f3d56"/>
    <rect id="Rectangle_482" data-name="Rectangle 482" width="4.271" height="3.982" transform="translate(236.061 127.595)" fill="#f2f2f2"/>
    <rect id="Rectangle_483" data-name="Rectangle 483" width="4.271" height="3.982" transform="translate(241.78 127.595)" fill="#f2f2f2"/>
    <rect id="Rectangle_484" data-name="Rectangle 484" width="4.271" height="4.126" transform="translate(236.061 133.025)" fill="#f2f2f2"/>
    <rect id="Rectangle_485" data-name="Rectangle 485" width="4.271" height="4.126" transform="translate(241.78 133.025)" fill="#f2f2f2"/>
    <circle id="Ellipse_146" data-name="Ellipse 146" cx="1.175" cy="1.175" r="1.175" transform="translate(246.345 141.041)" fill="#f2f2f2"/>
    <rect id="Rectangle_486" data-name="Rectangle 486" width="64.644" height="0.588" transform="translate(156.431 124.88)" fill="#f2f2f2"/>
    <rect id="Rectangle_487" data-name="Rectangle 487" width="64.644" height="0.588" transform="translate(156.431 127.525)" fill="#f2f2f2"/>
    <rect id="Rectangle_488" data-name="Rectangle 488" width="64.644" height="0.588" transform="translate(156.431 130.169)" fill="#f2f2f2"/>
    <rect id="Rectangle_489" data-name="Rectangle 489" width="64.644" height="0.588" transform="translate(156.431 132.814)" fill="#f2f2f2"/>
    <rect id="Rectangle_490" data-name="Rectangle 490" width="64.644" height="0.588" transform="translate(156.431 135.458)" fill="#f2f2f2"/>
    <rect id="Rectangle_491" data-name="Rectangle 491" width="64.644" height="0.588" transform="translate(156.431 138.103)" fill="#f2f2f2"/>
    <rect id="Rectangle_492" data-name="Rectangle 492" width="64.644" height="0.588" transform="translate(156.431 140.747)" fill="#f2f2f2"/>
    <rect id="Rectangle_493" data-name="Rectangle 493" width="64.644" height="0.588" transform="translate(156.431 143.392)" fill="#f2f2f2"/>
    <rect id="Rectangle_494" data-name="Rectangle 494" width="64.644" height="0.588" transform="translate(156.431 146.036)" fill="#f2f2f2"/>
    <rect id="Rectangle_495" data-name="Rectangle 495" width="64.644" height="0.588" transform="translate(156.431 148.681)" fill="#f2f2f2"/>
    <rect id="Rectangle_496" data-name="Rectangle 496" width="64.644" height="0.588" transform="translate(156.431 151.325)" fill="#f2f2f2"/>
    <rect id="Rectangle_497" data-name="Rectangle 497" width="34.379" height="0.588" transform="translate(108.683 124.88)" fill="#f2f2f2"/>
    <rect id="Rectangle_498" data-name="Rectangle 498" width="34.379" height="0.588" transform="translate(108.683 127.525)" fill="#f2f2f2"/>
    <rect id="Rectangle_499" data-name="Rectangle 499" width="34.379" height="0.588" transform="translate(108.683 130.169)" fill="#f2f2f2"/>
    <rect id="Rectangle_500" data-name="Rectangle 500" width="34.379" height="0.588" transform="translate(108.683 132.814)" fill="#f2f2f2"/>
    <rect id="Rectangle_501" data-name="Rectangle 501" width="34.379" height="0.588" transform="translate(108.683 135.458)" fill="#f2f2f2"/>
    <rect id="Rectangle_502" data-name="Rectangle 502" width="34.379" height="0.588" transform="translate(108.683 138.103)" fill="#f2f2f2"/>
    <rect id="Rectangle_503" data-name="Rectangle 503" width="34.379" height="0.588" transform="translate(108.683 140.747)" fill="#f2f2f2"/>
    <rect id="Rectangle_504" data-name="Rectangle 504" width="34.379" height="0.588" transform="translate(108.683 143.392)" fill="#f2f2f2"/>
    <rect id="Rectangle_505" data-name="Rectangle 505" width="34.379" height="0.588" transform="translate(108.683 146.036)" fill="#f2f2f2"/>
    <rect id="Rectangle_506" data-name="Rectangle 506" width="34.379" height="0.588" transform="translate(108.683 148.681)" fill="#f2f2f2"/>
    <rect id="Rectangle_507" data-name="Rectangle 507" width="34.379" height="0.588" transform="translate(108.683 151.325)" fill="#f2f2f2"/>
    <circle id="Ellipse_147" data-name="Ellipse 147" cx="23.801" cy="23.801" r="23.801" transform="translate(268.382 47.308)" fill="#52b590"/>
    <path id="Path_734" data-name="Path 734" d="M855.971,203.635H843.336V191h-4.7v12.635H826v4.7h12.635v12.635h4.7V208.336h12.635Z" transform="translate(-548.803 -134.877)" fill="#fff"/>
  </g>
</svg>
