<svg xmlns="http://www.w3.org/2000/svg" width="303.086" height="186.798" viewBox="0 0 303.086 186.798">
  <g id="Group_506" data-name="Group 506" transform="translate(-143.81 -468.66)">
    <g id="Group_482" data-name="Group 482" transform="translate(143.81 486.85)">
      <rect id="Rectangle_509" data-name="Rectangle 509" width="99.393" height="20.191" rx="10.095" transform="translate(203.693 101.629)" fill="#e9ecf1"/>
      <rect id="Rectangle_510" data-name="Rectangle 510" width="99.393" height="19.001" rx="9.5" transform="translate(184.34 67.122)" fill="#e9ecf1"/>
      <rect id="Rectangle_511" data-name="Rectangle 511" width="264.434" height="12.159" rx="6.08" transform="translate(0 25.662)" fill="#e9ecf1"/>
      <rect id="Rectangle_512" data-name="Rectangle 512" width="44.79" height="16.398" rx="8.199" transform="translate(240.394 136.768)" fill="#e9ecf1"/>
      <rect id="Rectangle_513" data-name="Rectangle 513" width="73.045" height="16.398" rx="8.199" transform="translate(70.477 0)" fill="#e9ecf1"/>
      <rect id="Rectangle_514" data-name="Rectangle 514" width="44.79" height="16.398" rx="8.199" transform="translate(24.518 144.967)" fill="#e9ecf1"/>
      <rect id="Rectangle_515" data-name="Rectangle 515" width="135.335" height="16.398" rx="8.199" transform="translate(81.192 152.21)" fill="#e9ecf1"/>
      <rect id="Rectangle_516" data-name="Rectangle 516" width="99.393" height="22.31" rx="11.155" transform="translate(127.926 30.124)" fill="#e9ecf1"/>
      <rect id="Rectangle_517" data-name="Rectangle 517" width="194.695" height="26.438" rx="13.219" transform="translate(43.802 112.449)" fill="#e9ecf1"/>
      <path id="Path_735" data-name="Path 735" d="M2485,1964v44.3h104.67v-20.23h-9.58a7.746,7.746,0,1,1,0-15.492h9.58V1964Z" transform="translate(-2335.122 -1886.461)" fill="#e9ecf1"/>
      <rect id="Rectangle_518" data-name="Rectangle 518" width="99.393" height="20.191" rx="10.095" transform="translate(24.43 96.944)" fill="#e9ecf1"/>
      <path id="Path_736" data-name="Path 736" d="M1387.606,1891v44.3H1283v-20.23h9.618a7.746,7.746,0,1,0,0-15.492H1283V1891Z" transform="translate(-1210.071 -1818.135)" fill="#e9ecf1"/>
      <path id="Path_737" data-name="Path 737" d="M1886,1333v44.3h104.67v-14.34h-26.128a6.847,6.847,0,0,1-6.841-6.83v-.991a6.855,6.855,0,0,1,6.841-6.839h26.128V1333Z" transform="translate(-1774.468 -1295.857)" fill="#e9ecf1"/>
      <rect id="Rectangle_519" data-name="Rectangle 519" width="99.393" height="22.31" rx="11.155" transform="translate(13.386 30.124)" fill="#e9ecf1"/>
      <path id="Path_738" data-name="Path 738" d="M631.424,1333.138v44.286H533.946a7.158,7.158,0,0,1-7.158-7.158h0a7.158,7.158,0,0,1,7.158-7.158H552.9a6.869,6.869,0,0,0,6.848-6.849v-.991a6.868,6.868,0,0,0-6.848-6.848H526.788v-15.283Z" transform="translate(-502.271 -1295.986)" fill="#e9ecf1"/>
    </g>
    <g id="Group_483" data-name="Group 483" transform="translate(215.443 492.827)">
      <path id="Path_739" data-name="Path 739" d="M1270.721,889.5l.4.537,3.862-2.886a20.342,20.342,0,0,0,2.112,1.918l-2.156,4.849.053.072-.027.03,3.549,1.533,3.545,1.542,0-.013.092.043,2.06-4.805a20.5,20.5,0,0,0,2.862.418l.6,5.193.1-.01v.014l3.844-.459,3.847-.443,0-.016.1-.01-.619-5.187a19.733,19.733,0,0,0,2.458-1.383l2.879,3.881.108-.081h0l3.071-2.3,4.311-2.215-.035-.047h0l-3.105-4.146c.41-.535.932-1.239,1.471-2.031l4.634,2.192,3.03-7.139-4.837-2.044a20.889,20.889,0,0,0,.413-2.93l5.182-.6-.913-7.785-5.189.606a20.74,20.74,0,0,0-1.1-2.768l4.188-3.118-4.684-6.29-4.191,3.12a20.365,20.365,0,0,0-2.334-1.847l2.067-4.8-7.2-3.1-2.071,4.8a20.645,20.645,0,0,0-2.943-.431l-.61-5.191-7.79.915.609,5.185a20.719,20.719,0,0,0-2.766,1.1l-3.123-4.186-6.288,4.688,3.124,4.188a20.736,20.736,0,0,0-1.846,2.336l-4.8-2.061-3.1,7.206,4.8,2.064a20.919,20.919,0,0,0-.427,2.946l-5.191.614.924,7.789,5.184-.615a20.187,20.187,0,0,0,1.381,2.459l-3.884,2.875-.308-.411-.635.476,2.33,3.119,2.32,3.127Zm13.008-23.994a8.185,8.185,0,1,1-1.643,11.458A8.187,8.187,0,0,1,1283.729,865.5Z" transform="translate(-1262.756 -846.168)" fill="#37acb9"/>
    </g>
    <path id="Path_740" data-name="Path 740" d="M933.4,568.833l-.183-1.531,4.084-.488.183,1.531Zm5.1-.61-.183-1.531,4.088-.484.176,1.532-1.118.129Zm5.1-.6-.177-1.532,4.086-.471.177,1.532Zm-20.251-.416a.77.77,0,0,1-.325-.072l-.75-.348.649-1.4.03.014.982-2.29,1.418.608-1.295,3.02a.771.771,0,0,1-.709.467Zm24.8-.608-.488-4.084,1.531-.183.488,4.084Zm-15.237-.1-.471-4.086,1.532-.177.471,4.086Zm-11.558-.068-3.771-1.64.615-1.414,3.771,1.64Zm-4.712-2.051-3.776-1.631.612-1.416,3.776,1.631Zm9.113-1.608-1.417-.608,1.621-3.78,1.418.608Zm-13.832-.431-2.572-1.111a.771.771,0,0,1-.449-.548c-.005-.024-.009-.048-.012-.072a.77.77,0,0,1,.013-.6l.432-.973,1.409.626-.18.405,1.969.85Zm35.616-.85-.488-4.084,1.531-.183.488,4.084Zm9.61-.069-2.45-3.3,1.239-.919,2.45,3.3Zm-24.826-.031-.3-2.591-.233-.018.119-1.538.863.066a.771.771,0,0,1,.71.681l.372,3.222Zm26.7-.211-.925-1.235,3.292-2.466.925,1.234Zm-47.859-2.45-1.409-.627,1.671-3.758,1.409.627Zm19.555-.065-.763-.11c-.858-.124-1.726-.278-2.58-.458l-.755-.159.319-1.509.755.159c.821.174,1.656.322,2.481.441l.763.11Zm32.418-.567-.925-1.234,1.238-.927a.769.769,0,0,1,.11-.069l2.282-1.173.7,1.372-2.225,1.143Zm-9.051-.8-2.45-3.3,1.239-.919,2.45,3.3Zm-6.015-.233-.643-1.4.7-.322a14.1,14.1,0,0,0,1.891-1.122l.851-.564.851,1.286-.849.562a15.5,15.5,0,0,1-2.1,1.239Zm19.391-1.464-.7-1.372,3.658-1.88.7,1.372Zm-54.21-1.564-1.409-.627.912-2.051-.5-.378.925-1.234.617.463c.119.089.238.175.356.255a.771.771,0,0,1,.27.95Zm-10.912-.32a.77.77,0,0,1-.618-.309l-.3-.4-.676.506-.925-1.234,1.293-.968a.771.771,0,0,1,1.079.155l.3.405,1.037-.775.923,1.235-1.654,1.236A.767.767,0,0,1,902.354,553.714Zm69.458-.52-2.466-3.292,1.235-.925,2.465,3.292Zm-72.735-.758-2.451-3.3,1.238-.919,2.451,3.3Zm6.217-.727-.923-1.235,3.294-2.462.923,1.235Zm6.139-1.5-.549-.542q-.208-.2-.415-.412c-.267-.265-.539-.537-.818-.8l-.239.179-.924-1.235.757-.566a.771.771,0,0,1,.982.048c.465.425.9.862,1.33,1.285l.41.406.549.542Zm57.3-1.13-2.466-3.292,1.234-.925,2.466,3.292Zm-72.717-.772-.7-.949-1.753-2.346,1.236-.923,2.46,3.3Zm81.142-3.089-3.718-1.759.66-1.394,3.286,1.555,1.568-3.694,1.42.6-1.607,3.786-.984-.417Zm-10.5-.251-1.23-.931.465-.615c.527-.7,1.035-1.387,1.509-2.054l.447-.628,1.257.894-.447.628c-.483.678-1,1.382-1.535,2.09Zm-73.719-.779-2.461-3.3,1.236-.923.5.67,1.208-.906.021.027,2.047-1.515.918,1.24-2.662,1.971a.772.772,0,0,1-.923,0l1.354,1.813Zm79.567-1.168-3.718-1.759.66-1.394,3.718,1.759Zm8.264-3.437-1.42-.6,1.607-3.786,1.42.6Zm-83.537-.708-.918-1.24,3.306-2.447.918,1.24Zm2.682-3.374-.4-.659c-.2-.335-.424-.669-.639-.992-.252-.381-.513-.774-.752-1.181l-.391-.665,1.33-.782.391.665c.218.371.456.73.709,1.111.223.336.453.683.672,1.045l.4.659Zm82.863-.65-1.42-.6,1.607-3.786,1.42.6Zm-93.862-2.31-.135-1.143-1.41.167-.484-4.084,1.532-.182.438,3.7,3.962-.47.182,1.532Zm5.105-.605-.182-1.532,4.084-.484.182,1.532Zm87.97-.685-3.789-1.6.6-1.421,3.789,1.6Zm-4.736-2-3.789-1.6.6-1.421,3.789,1.6Zm-90.49-2.79-.484-4.084,1.532-.182.484,4.084Zm88.655-.782-1.526-.227.113-.763c.119-.8.215-1.621.293-2.507l.068-.768,1.536.135-.068.768c-.081.916-.18,1.766-.3,2.6Zm.932-3.442-.177-1.532,4.086-.471.177,1.532Zm5.107-.589-.177-1.532,4.086-.471.177,1.532Zm-95.3-.293-.484-4.084,1.532-.182.484,4.084Zm97.887-2.291-.479-4.085,1.532-.18.479,4.085Zm-96.67-1.378-.181-1.532,4.084-.483.181,1.532Zm5.106-.6-.181-1.532,4.084-.483.181,1.532Zm4.686-2.331-1.531-.188.094-.765c.106-.861.241-1.732.4-2.589l.125-.663-.062.143-3.778-1.624.609-1.417,3.778,1.624-.509,1.183,1.495.282-.143.758c-.156.824-.286,1.662-.387,2.49Zm86.279-.794-.479-4.085,1.532-.18.479,4.085Zm-.6-5.106-.276-2.353-.2.023-.179-1.532.966-.113a.771.771,0,0,1,.855.676l.366,3.119Zm-91.374-.192-3.779-1.624.609-1.417,3.779,1.624Zm81.9-1.092a.771.771,0,0,1-.735-.539q-.079-.251-.162-.5l-.243-.732,1.464-.486.215.647,2.157-.252.179,1.532-2.785.325A.768.768,0,0,1,973.372,507.568Zm3.9-.45-.179-1.532,4.085-.477.179,1.532ZM889.081,505.7l-1.417-.609,1.625-3.778,1.417.609Zm82.813-.824-.29-.715c-.313-.772-.657-1.546-1.021-2.3a.771.771,0,0,1,.22-.943l.608-.475.952,1.214-.123.1c.281.6.547,1.217.795,1.829l.29.715Zm1.289-3.809-.921-1.237,3.3-2.456.921,1.237Zm-82.071-.09-1.417-.609,1.625-3.778,1.417.609ZM977.307,498l-.921-1.237,1.786-1.33-.205-.276,1.237-.921.666.895a.771.771,0,0,1-.158,1.079Zm-74.3-.706a.77.77,0,0,1-.3-.063l-3.041-1.307.609-1.417,2.457,1.056.094-.138,1.275.868-.451.662A.771.771,0,0,1,903.009,497.292Zm-9.866-1.036-1.417-.609,1.625-3.778,1.417.609Zm5.577-.739-3.779-1.624.609-1.417,3.779,1.624Zm5.955-.016-1.215-.949.475-.608c.531-.68,1.1-1.357,1.678-2.011l.513-.576,1.152,1.026-.513.576c-.561.63-1.1,1.281-1.615,1.935Zm72.677-1.169-2.456-3.3,1.237-.921,2.456,3.3Zm-72.223-2.838-2.459-3.3,1.236-.922,2.459,3.3Zm57.226-1.168a.77.77,0,0,1-.521-.2c-.28-.256-.568-.513-.857-.763l-.583-.5,1.008-1.167.583.5q.209.181.417.365l1.234-.919.921,1.237-1.741,1.3A.769.769,0,0,1,962.354,490.325Zm11.927-.118-2.456-3.3,1.237-.921,2.456,3.3Zm-8.9-1.946-.921-1.237,3.3-2.456.921,1.237Zm-5.749-.021-.616-.464c-.5-.379-1.02-.749-1.539-1.1a.771.771,0,0,1-.276-.943l.558-1.3,1.416.61-.308.715c.363.255.723.517,1.076.783l.616.464Zm-57.577-.868-2.46-3.3,1.236-.922,2.459,3.3Zm69.156-1.288-1.036-1.392-.67.5-.921-1.237,1.289-.96a.771.771,0,0,1,1.079.158l1.5,2.01ZM959.583,484.1l-1.416-.61,1.627-3.777,1.416.61Zm-41.092-.186a.771.771,0,0,1-.619-.31l-1.6-2.144,1.236-.922,1.221,1.637.038-.018.7-.325.65,1.4-.7.325q-.3.137-.591.281A.769.769,0,0,1,918.492,483.916Zm-16.145-.174-.922-1.237,3.3-2.458.922,1.237Zm18.671-.891-.556-1.439.719-.278c.569-.22,1.151-.43,1.737-.626l-.032-.272,1.532-.18.106.9a.771.771,0,0,1-.532.825c-.761.242-1.52.509-2.255.793Zm23.176-1.945a.771.771,0,0,1-.167-.018c-.57-.126-1.152-.241-1.73-.341l-.76-.132.263-1.52.76.132c.392.068.785.142,1.176.222l.36-.835,1.416.611-.611,1.416A.772.772,0,0,1,944.194,480.906Zm-37.725-.237-.922-1.236,3.3-2.458.922,1.236Zm9.19-.031-2.459-3.3,1.236-.922,2.459,3.3Zm24.909-.359-.767-.082c-.419-.045-.846-.083-1.268-.115a.771.771,0,0,1-.709-.679l-.239-2.03,1.531-.18.165,1.4c.228.021.456.043.682.067l.767.082Zm21.049-.9-1.417-.61.631-1.464-.9-.386.61-1.416,1.6.692a.771.771,0,0,1,.4,1.013Zm-38.851-.165-.48-4.085,1.532-.18.48,4.085Zm23.153-1.135-1.416-.611,1.629-3.777,1.416.611Zm-35.329-.484-.922-1.237,2.417-1.8a.771.771,0,0,1,1.079.157l.656.88-1.236.922-.2-.262Zm48.4-1.084-3.777-1.628.611-1.416L959.6,475.1Zm-21.525-.16-.48-4.085,1.532-.18.48,4.085Zm16.8-1.875-3.777-1.628.61-1.416,3.777,1.628Zm-32.1-.368-.334-2.847a.771.771,0,0,1,.676-.856l1.238-.145.18,1.532-.472.055.245,2.081Zm25.789-.75-1.416-.611.888-2.059a.771.771,0,0,1,1.013-.4l1.718.74-.61,1.416-1.01-.435Zm-23.009-1.686-.18-1.532,4.085-.48.18,1.532Zm11.918-.427-.113-.96-1.594.187-.18-1.532,2.359-.277a.77.77,0,0,1,.856.676l.2,1.726Zm-6.812-.173-.18-1.532,4.085-.48.18,1.532Z" transform="translate(-694.374 0)" fill="#364756"/>
    <path id="Path_741" data-name="Path 741" d="M1466.08,1073.354h-.007a13.846,13.846,0,0,1-2.673-.26l.3-1.513a12.309,12.309,0,0,0,2.375.231Zm2.681-.263-.3-1.513a12.164,12.164,0,0,0,2.288-.694l.591,1.424A13.691,13.691,0,0,1,1468.761,1073.091Zm-7.942-.777a13.768,13.768,0,0,1-2.377-1.271l.857-1.282a12.216,12.216,0,0,0,2.11,1.128Zm12.9-1.279-.858-1.281a12.314,12.314,0,0,0,1.849-1.52l1.091,1.09A13.866,13.866,0,0,1,1473.717,1071.035Zm-17.358-1.7a13.817,13.817,0,0,1-1.712-2.081l1.281-.859a12.315,12.315,0,0,0,1.521,1.848Zm21.149-2.093-1.282-.858a12.194,12.194,0,0,0,1.129-2.109l1.425.591A13.772,13.772,0,0,1,1477.508,1067.241Zm-24.136-2.362a13.678,13.678,0,0,1-.784-2.579l1.513-.3a12.138,12.138,0,0,0,.7,2.288Zm26.189-2.595-1.513-.3a12.325,12.325,0,0,0,.232-2.382v-.03h1.542v.02A13.867,13.867,0,0,1,1479.561,1062.285Zm-25.7-2.666h-1.542v-.015a13.856,13.856,0,0,1,.258-2.665l1.513.3a12.318,12.318,0,0,0-.229,2.368Zm24.177-2.425a12.118,12.118,0,0,0-.7-2.287l1.423-.594a13.675,13.675,0,0,1,.787,2.578Zm-23.257-2.248-1.426-.589a13.747,13.747,0,0,1,1.269-2.378l1.283.856A12.194,12.194,0,0,0,1454.785,1054.946Zm21.425-2.145a12.276,12.276,0,0,0-1.523-1.846l1.088-1.093a13.855,13.855,0,0,1,1.715,2.078Zm-18.782-1.817-1.092-1.089a13.829,13.829,0,0,1,2.08-1.714l.86,1.28A12.3,12.3,0,0,0,1457.428,1050.984Zm15.406-1.545a12.2,12.2,0,0,0-2.111-1.125l.588-1.426a13.737,13.737,0,0,1,2.379,1.268Zm-11.452-1.109-.593-1.424a13.69,13.69,0,0,1,2.579-.786l.3,1.513A12.152,12.152,0,0,0,1461.383,1048.329Zm7.051-.705a12.3,12.3,0,0,0-2.361-.228h-.023v-1.542h.023a13.854,13.854,0,0,1,2.657.257Z" transform="translate(-1224.744 -540.243)" fill="#364756"/>
    <rect id="Rectangle_520" data-name="Rectangle 520" width="185.849" height="1.542" transform="translate(198.517 649.054)" fill="#364756"/>
    <g id="Group_484" data-name="Group 484" transform="translate(250.671 493.342)">
      <path id="Rectangle_521" data-name="Rectangle 521" d="M39.6,0h0A39.6,39.6,0,0,1,79.2,39.6v76.438a39.6,39.6,0,0,1-39.6,39.6h0A39.6,39.6,0,0,1,0,116.036V39.6A39.6,39.6,0,0,1,39.6,0Z" transform="translate(0.771 0.771)" fill="#fff"/>
      <path id="Path_742" data-name="Path 742" d="M1883.986,1011.375h-61.151a9.8,9.8,0,0,1-9.793-9.793V863.992a9.8,9.8,0,0,1,9.793-9.793h61.151a9.8,9.8,0,0,1,9.793,9.793v137.589A9.8,9.8,0,0,1,1883.986,1011.375Zm-61.151-155.634a8.261,8.261,0,0,0-8.251,8.251v137.589a8.261,8.261,0,0,0,8.251,8.251h61.151a8.26,8.26,0,0,0,8.251-8.251V863.992a8.26,8.26,0,0,0-8.251-8.251Z" transform="translate(-1813.042 -854.199)" fill="#364756"/>
    </g>
    <rect id="Rectangle_522" data-name="Rectangle 522" width="69.17" height="104.061" transform="translate(256.455 514.859)" fill="#696a7f"/>
    <g id="Group_485" data-name="Group 485" transform="translate(278.377 502.364)">
      <rect id="Rectangle_523" data-name="Rectangle 523" width="23.783" height="2.882" rx="1.441" transform="translate(0.771 0.771)" fill="#fff"/>
      <path id="Path_743" data-name="Path 743" d="M2268.967,999.556h-20.961a2.184,2.184,0,0,1-2.182-2.182v-.06a2.184,2.184,0,0,1,2.182-2.182h20.961a2.185,2.185,0,0,1,2.182,2.182v.06A2.185,2.185,0,0,1,2268.967,999.556Zm-20.961-2.882a.64.64,0,0,0-.64.64v.06a.64.64,0,0,0,.64.64h20.961a.641.641,0,0,0,.64-.64v-.06a.64.64,0,0,0-.64-.64Z" transform="translate(-2245.824 -995.132)" fill="#364756"/>
    </g>
    <g id="Group_486" data-name="Group 486" transform="translate(280.601 629.282)">
      <path id="Path_744" data-name="Path 744" d="M2318.5,3009.658h-9.9a3.959,3.959,0,0,1-3.947-3.947h0a3.959,3.959,0,0,1,3.947-3.947h9.9a3.959,3.959,0,0,1,3.947,3.947h0A3.959,3.959,0,0,1,2318.5,3009.658Z" transform="translate(-2303.107 -3000.222)" fill="#fff"/>
      <path id="Path_745" data-name="Path 745" d="M2295.946,2979.214a3.947,3.947,0,1,1,0,7.895h-9.9a3.947,3.947,0,0,1,0-7.895h9.9m0-1.542h-9.9a5.49,5.49,0,1,0,0,10.979h9.9a5.49,5.49,0,1,0,0-10.979Z" transform="translate(-2280.557 -2977.672)" fill="#364756"/>
    </g>
    <g id="Group_487" data-name="Group 487" transform="translate(320.17 550.997)">
      <path id="Path_746" data-name="Path 746" d="M2920.35,1767.184s-21.746,5.086,0,45.184C2942.208,1772.27,2920.35,1767.184,2920.35,1767.184Z" transform="translate(-2909.914 -1766.392)" fill="#37acb9"/>
      <path id="Path_747" data-name="Path 747" d="M2909.08,1802.4l-.676-1.247c-5.049-9.31-8.174-17.524-9.289-24.413-.9-5.577-.5-10.32,1.2-14.1a13.635,13.635,0,0,1,8.6-7.793l.175-.041.175.041a13.692,13.692,0,0,1,8.654,7.829c1.695,3.779,2.091,8.521,1.18,14.1-1.125,6.883-4.265,15.085-9.332,24.38Zm0-46a12.242,12.242,0,0,0-7.382,6.914c-1.559,3.5-1.915,7.947-1.056,13.218,1.042,6.4,3.88,14,8.44,22.623,4.576-8.6,7.427-16.2,8.479-22.591.866-5.269.516-9.716-1.042-13.217A12.3,12.3,0,0,0,2909.083,1756.4Z" transform="translate(-2898.646 -1754.814)" fill="#364756"/>
    </g>
    <path id="Path_748" data-name="Path 748" d="M2978.555,1757.685s-12.813,2.977,0,26.443C2991.434,1760.662,2978.555,1757.685,2978.555,1757.685Z" transform="translate(-2647.939 -1206.504)" fill="#364756"/>
    <path id="Path_749" data-name="Path 749" d="M3062.786,1812.42v-45.133C3063.686,1767.49,3084.207,1773.143,3062.786,1812.42Z" transform="translate(-2732.109 -1215.491)" fill="#020202" opacity="0.1"/>
    <g id="Group_488" data-name="Group 488" transform="translate(300.876 528.977)">
      <path id="Path_750" data-name="Path 750" d="M2622.663,1433.341l-11.9,8.866,7.438,32.662,5.951-25.311Z" transform="translate(-2609.899 -1431.9)" fill="#37acb9"/>
      <path id="Path_751" data-name="Path 751" d="M2605.564,1457.233l-8.289-36.4,13.406-9.988,1.625,17.712-.029.122ZM2599,1421.469l6.586,28.922,5.159-21.944-1.351-14.722Z" transform="translate(-2597.275 -1410.844)" fill="#364756"/>
    </g>
    <g id="Group_489" data-name="Group 489" transform="translate(345.368 528.977)">
      <path id="Path_752" data-name="Path 752" d="M3305.919,1433.341l11.9,8.866-7.437,32.662-5.95-25.311Z" transform="translate(-3303.653 -1431.9)" fill="#37acb9"/>
      <path id="Path_753" data-name="Path 753" d="M3299,1457.233l-6.741-28.677.011-.125,1.613-17.587,13.406,9.988Zm-5.183-28.786,5.159,21.944,6.586-28.922-10.4-7.744Z" transform="translate(-3292.256 -1410.844)" fill="#364756"/>
    </g>
    <path id="Path_754" data-name="Path 754" d="M2810.989,674.565s-25.248,28.039-14.728,72.6c0,0,3.457,1.364,14.728,1.516,11.271-.152,14.728-1.516,14.728-1.516C2836.237,702.6,2810.989,674.565,2810.989,674.565Z" transform="translate(-2480.246 -192.723)" fill="#fff"/>
    <g id="Group_490" data-name="Group 490" transform="translate(317.778 480.689)">
      <path id="Path_755" data-name="Path 755" d="M2900.85,695.858a37.724,37.724,0,0,1-23.929,0c5.081-13.649,11.964-21.293,11.964-21.293S2895.768,682.209,2900.85,695.858Z" transform="translate(-2875.921 -673.413)" fill="#37acb9"/>
      <path id="Path_756" data-name="Path 756" d="M2874.259,681.727a38.175,38.175,0,0,1-12.21-1.988l-.754-.254.277-.746c5.074-13.63,11.829-21.223,12.114-21.54l.573-.636.573.636c.285.317,7.04,7.91,12.114,21.54l.278.746-.754.254A38.172,38.172,0,0,1,2874.259,681.727Zm-10.957-3.2a36.988,36.988,0,0,0,21.914,0,74.183,74.183,0,0,0-10.957-19.61A74.181,74.181,0,0,0,2863.3,678.524Z" transform="translate(-2861.295 -656.563)" fill="#364756"/>
    </g>
    <path id="Path_757" data-name="Path 757" d="M2928.271,1825.86v2.456a58.015,58.015,0,0,0,17.281,0v-2.456Z" transform="translate(-2606.205 -1270.315)" fill="#2e3a45"/>
    <g id="Group_491" data-name="Group 491" transform="translate(334.12 486.317)" opacity="0.14">
      <path id="Path_758" data-name="Path 758" d="M3127.908,812.6a27.469,27.469,0,0,1-6.454,1.11c11.3-33.433.5-59.329-4.9-69.232C3123.052,754.056,3135.961,778.486,3127.908,812.6Z" transform="translate(-3116.557 -744.476)"/>
    </g>
    <g id="Group_492" data-name="Group 492" transform="translate(313.432 486.317)" opacity="0.14">
      <path id="Path_759" data-name="Path 759" d="M2795.96,812.6a27.469,27.469,0,0,0,6.454,1.11c-11.3-33.433-.5-59.329,4.9-69.232C2800.815,754.056,2787.907,778.486,2795.96,812.6Z" transform="translate(-2793.396 -744.476)" fill="#fff"/>
    </g>
    <g id="Group_493" data-name="Group 493" transform="translate(322.061 511.229)">
      <path id="Path_760" data-name="Path 760" d="M2956.065,1153.567a7.92,7.92,0,0,1-7.554,7.9c-.118.005-.237.008-.357.008a7.856,7.856,0,0,1-4.146-1.177c-.2-.121-.385-.25-.569-.386a7.907,7.907,0,0,1,4.674-14.257h.041a7.879,7.879,0,0,1,5.558,2.288q.246.242.467.5a7.874,7.874,0,0,1,1.841,4.271A8.039,8.039,0,0,1,2956.065,1153.567Z" transform="translate(-2939.473 -1144.885)" fill="#364756"/>
      <path id="Path_761" data-name="Path 761" d="M2936.88,1150.972a8.647,8.647,0,0,1-4.552-1.292c-.211-.131-.421-.273-.623-.423a8.679,8.679,0,0,1,5.112-15.647h.063a8.62,8.62,0,0,1,6.1,2.511c.178.175.352.363.515.555a8.621,8.621,0,0,1,2.017,4.686,8.771,8.771,0,0,1,.05.93,8.663,8.663,0,0,1-8.292,8.672C2937.141,1150.969,2937.011,1150.972,2936.88,1150.972Zm0-15.821h-.04a7.136,7.136,0,0,0-4.217,12.868c.166.124.339.241.513.349a7.1,7.1,0,0,0,3.741,1.061c.108,0,.217,0,.323-.007a7.123,7.123,0,0,0,6.816-7.131,7.311,7.311,0,0,0-.041-.766,7.085,7.085,0,0,0-1.661-3.853c-.134-.159-.275-.31-.42-.454A7.089,7.089,0,0,0,2936.883,1135.151Zm.017,0h0Z" transform="translate(-2928.199 -1133.609)" fill="#364756"/>
    </g>
    <path id="Path_762" data-name="Path 762" d="M2799.743,732.6h-.01c-11.283-.152-14.854-1.512-15-1.57l-.375-.148-.093-.392a92.255,92.255,0,0,1-2.154-30.4,85.49,85.49,0,0,1,5.606-23.075c4.991-12.564,11.191-19.53,11.453-19.821l.573-.636.573.636c.261.29,6.462,7.257,11.453,19.821a85.472,85.472,0,0,1,5.606,23.075,92.242,92.242,0,0,1-2.154,30.4l-.092.392-.375.148c-.146.058-3.717,1.418-15,1.57Zm-14.077-2.889c1.145.323,5.116,1.226,14.077,1.347,8.957-.121,12.928-1.023,14.077-1.347,5.236-22.625,1.006-40.817-3.484-52.121a73.458,73.458,0,0,0-10.592-18.676,73.62,73.62,0,0,0-10.618,18.74C2784.651,688.945,2780.438,707.117,2785.667,729.711Z" transform="translate(-2469 -175.874)" fill="#364756"/>
    <path id="Path_763" data-name="Path 763" d="M1451.828,1793.355l.038,41.871h36.44v-50.513h-28.412Z" transform="translate(-1224.281 -1231.802)" fill="#efe4d3"/>
    <path id="Path_764" data-name="Path 764" d="M1456.336,1790.35h-7.894a.578.578,0,1,1,0-1.156h7.316v-7.871a.578.578,0,1,1,1.157,0v8.449a.579.579,0,0,1-.578.578Z" transform="translate(-1220.57 -1228.087)" fill="#364756"/>
    <g id="Group_494" data-name="Group 494" transform="translate(245.724 565.728)">
      <rect id="Rectangle_524" data-name="Rectangle 524" width="13.538" height="0.502" transform="translate(0.45 0.45)" fill="#364756"/>
      <rect id="Rectangle_525" data-name="Rectangle 525" width="14.438" height="1.402" fill="#364756"/>
    </g>
    <g id="Group_495" data-name="Group 495" transform="translate(231.41 576.087)">
      <rect id="Rectangle_526" data-name="Rectangle 526" width="27.852" height="0.502" transform="translate(0.45 0.45)" fill="#364756"/>
      <rect id="Rectangle_527" data-name="Rectangle 527" width="28.751" height="1.402" fill="#364756"/>
    </g>
    <g id="Group_496" data-name="Group 496" transform="translate(231.41 581.87)">
      <rect id="Rectangle_528" data-name="Rectangle 528" width="27.852" height="0.502" transform="translate(0.45 0.45)" fill="#364756"/>
      <rect id="Rectangle_529" data-name="Rectangle 529" width="28.751" height="1.402" transform="translate(0 0)" fill="#364756"/>
    </g>
    <g id="Group_497" data-name="Group 497" transform="translate(231.41 587.653)">
      <rect id="Rectangle_530" data-name="Rectangle 530" width="27.852" height="0.502" transform="translate(0.45 0.45)" fill="#364756"/>
      <rect id="Rectangle_531" data-name="Rectangle 531" width="28.751" height="1.402" fill="#364756"/>
    </g>
    <g id="Group_498" data-name="Group 498" transform="translate(231.41 593.435)">
      <rect id="Rectangle_532" data-name="Rectangle 532" width="27.852" height="0.502" transform="translate(0.45 0.45)" fill="#364756"/>
      <rect id="Rectangle_533" data-name="Rectangle 533" width="28.751" height="1.402" transform="translate(0 0)" fill="#364756"/>
    </g>
    <g id="Group_499" data-name="Group 499" transform="translate(211.264 591.267)">
      <path id="Path_765" data-name="Path 765" d="M1266,2397.6a7.43,7.43,0,0,0-6.366,3.592c-7.3-.015-14.7-.055-22.053-.059a1.484,1.484,0,0,1-1.43-.929,9.455,9.455,0,0,0-15.147-.968c-.178.221-.326.467-.612.88,1.861.009,3.531.045,5.2.009a1.242,1.242,0,0,1,1.314.766c.688,1.368,2,2.7,2,4.05,0,.033,0,.066,0,.1s0,.062,0,.1c0,1.347-1.315,2.68-2,4.049a1.23,1.23,0,0,1-.741.7l-.091.024a1.949,1.949,0,0,1-.482.041c-1.669-.036-3.339,0-5.2.009l.191.281.079.12h0c.129.191.229.338.34.476a8.873,8.873,0,0,0,3.387,2.563,9.569,9.569,0,0,0,11.76-3.553,1.544,1.544,0,0,1,1.459-.954c2.269,0,4.538-.063,6.807-.063h.006c2.269,0,4.509.037,6.778.029,2.816-.01,5.638.015,8.434.021A7.435,7.435,0,1,0,1266,2397.6Z" transform="translate(-1218.924 -2395.123)" fill="#999"/>
      <path id="Path_766" data-name="Path 766" d="M1206.742,2403.664a10.542,10.542,0,0,1-1.078-.055,10.222,10.222,0,0,1-3.022-.78,9.593,9.593,0,0,1-3.679-2.784c-.118-.146-.221-.294-.338-.467l-.007-.007-.119-.18c-.055-.081-.116-.171-.185-.271l-.826-1.2,1.458-.007c.53,0,1.043-.007,1.546-.012,1.27-.012,2.469-.023,3.674,0a1.193,1.193,0,0,0,.29-.021l.046-.012c.057-.018.147-.058.272-.307a14.294,14.294,0,0,1,.86-1.421,4.933,4.933,0,0,0,1.061-2.281c0-.012,0-.024,0-.034l-.005-.063.005-.062c0-.009,0-.02,0-.031a4.932,4.932,0,0,0-1.061-2.282,14.322,14.322,0,0,1-.86-1.421c-.141-.28-.215-.35-.608-.341-1.2.026-2.4.015-3.67,0-.5,0-1.019-.009-1.55-.012l-1.463-.007.833-1.2c.1-.143.181-.265.253-.373.143-.215.257-.384.394-.553a10.225,10.225,0,0,1,16.4,1.048c.308.5.395.563.774.563,4.368,0,8.816.018,13.117.032q4.271.015,8.516.026a8.207,8.207,0,0,1,14.993,4.605,8.211,8.211,0,0,1-8.207,8.216,8.141,8.141,0,0,1-6.788-3.6l-2.525-.01c-1.8-.008-3.656-.016-5.484-.01-1.243,0-2.5,0-3.71-.014-1-.007-2.044-.015-3.071-.015-1.143,0-2.3.016-3.422.032s-2.258.031-3.39.031c-.379,0-.491.083-.8.588A10.125,10.125,0,0,1,1206.742,2403.664Zm-6.265-4.223a8.076,8.076,0,0,0,2.778,1.972,8.8,8.8,0,0,0,10.8-3.251,2.3,2.3,0,0,1,2.115-1.32c1.121,0,2.264-.016,3.369-.031,1.126-.016,2.29-.032,3.438-.032,1.038,0,2.08.008,3.088.015,1.208.009,2.457.018,3.693.014,1.833-.006,3.7,0,5.5.01q1.475.007,2.943.011h.434l.225.371a6.662,6.662,0,1,0,0-6.885l-.225.373h-.436q-4.45-.009-8.94-.027c-4.3-.015-8.747-.03-13.112-.032a2.237,2.237,0,0,1-2.087-1.3,8.7,8.7,0,0,0-13.577-1.253h.035c1.256.012,2.442.023,3.622,0a2,2,0,0,1,2.02,1.19,12.97,12.97,0,0,0,.769,1.264,5.975,5.975,0,0,1,1.316,3.132c0,.031,0,.064,0,.094s0,.063,0,.1a5.972,5.972,0,0,1-1.315,3.13,13.014,13.014,0,0,0-.77,1.264,1.988,1.988,0,0,1-1.2,1.091l-.023.007c-.04.011-.079.022-.121.031a2.705,2.705,0,0,1-.677.062c-1.18-.026-2.368-.015-3.625,0Z" transform="translate(-1197.482 -2383.847)" fill="#364756"/>
    </g>
    <g id="Group_500" data-name="Group 500" transform="translate(253.397 595.522)">
      <path id="Path_767" data-name="Path 767" d="M1875.9,2471.382l-4.113,2.382-4.113-2.382v-4.762l4.113-2.382,4.113,2.382Z" transform="translate(-1866.903 -2463.347)" fill="#fff"/>
      <path id="Path_768" data-name="Path 768" d="M1860.512,2461.625l-4.884-2.828v-5.651l4.884-2.828,4.884,2.828v5.651Zm-3.341-3.718,3.341,1.935,3.342-1.935v-3.873l-3.342-1.935-3.341,1.935Z" transform="translate(-1855.628 -2450.318)" fill="#364756"/>
    </g>
    <rect id="Rectangle_534" data-name="Rectangle 534" width="10.025" height="10.025" transform="translate(355.748 616.672)" fill="#37acb9"/>
    <path id="Path_769" data-name="Path 769" d="M3529.833,2845.115h-11.567v-11.567h11.567Zm-10.025-1.542h8.482v-8.482h-8.482Z" transform="translate(-3158.43 -2213.493)" fill="#364756"/>
    <path id="Path_770" data-name="Path 770" d="M3408,2228.581a11.174,11.174,0,0,1-1.324-.079l.183-1.531a9.7,9.7,0,0,0,2.294,0l.185,1.531A11.181,11.181,0,0,1,3408,2228.581Zm-3.914-.713a11.039,11.039,0,0,1-2.36-1.239l.876-1.269a9.488,9.488,0,0,0,2.03,1.065Zm7.839,0-.548-1.441a9.49,9.49,0,0,0,2.027-1.067l.878,1.268A11.023,11.023,0,0,1,3411.925,2227.864Zm-12.193-3a11.065,11.065,0,0,1-1.516-2.189l1.364-.719a9.508,9.508,0,0,0,1.305,1.884Zm16.542-.008-1.154-1.023a9.549,9.549,0,0,0,1.3-1.886l1.365.718A11.08,11.08,0,0,1,3416.274,2224.857Zm-19.006-4.673a11.139,11.139,0,0,1-.322-2.644l1.543,0a9.534,9.534,0,0,0,.276,2.276Zm21.467-.012-1.5-.367a9.541,9.541,0,0,0,.274-2.276v-.023h1.542v.023A11.092,11.092,0,0,1,3418.734,2220.172Zm-19.974-4.91-1.5-.366a11,11,0,0,1,.943-2.494l1.366.716A9.451,9.451,0,0,0,3398.76,2215.262Zm18.471-.031a9.47,9.47,0,0,0-.817-2.14l1.363-.721a10.971,10.971,0,0,1,.951,2.49Zm-16.359-4-1.155-1.022a11.113,11.113,0,0,1,1.99-1.769l.879,1.267A9.566,9.566,0,0,0,3400.872,2211.231Zm14.235-.023a9.6,9.6,0,0,0-1.719-1.518l.875-1.27a11.134,11.134,0,0,1,2,1.763Zm-10.5-2.57-.549-1.441a11.028,11.028,0,0,1,2.587-.64l.187,1.531A9.48,9.48,0,0,0,3404.612,2208.638Zm6.745-.011a9.446,9.446,0,0,0-2.227-.543l.181-1.532a11.011,11.011,0,0,1,2.59.632Z" transform="translate(-3044.876 -1626.635)" fill="#364756"/>
    <circle id="Ellipse_148" data-name="Ellipse 148" cx="5.389" cy="5.389" r="5.389" transform="translate(198.052 565.759)" fill="#37acb9"/>
    <g id="Group_501" data-name="Group 501" transform="translate(318.446 607.161)">
      <rect id="Rectangle_535" data-name="Rectangle 535" width="27.551" height="0.796" transform="translate(0.45 0.45)" fill="#364756"/>
      <rect id="Rectangle_536" data-name="Rectangle 536" width="28.45" height="1.696" transform="translate(0)" fill="#364756"/>
    </g>
    <path id="Path_771" data-name="Path 771" d="M3435.407,2635.576h-2.57v-1.542h2.57Zm-5.141,0h-2.57v-1.542h2.57Zm-5.141,0h-2.571v-1.542h2.571Zm-5.141,0h-2.571v-1.542h2.571Zm-5.141,0h-2.57v-1.542h2.57Zm-5.141,0h-2.57v-1.542h2.57Zm-5.141,0h-2.57v-1.542h2.57Zm-5.141,0h-2.571v-1.542h2.571Zm-5.142,0h-2.57v-1.542h2.57Zm-5.141,0h-1.671v-1.542h1.671Z" transform="translate(-3036.004 -2026.751)" fill="#364756"/>
    <path id="Path_772" data-name="Path 772" d="M3204.766,2954.362l-.675-.144-.029-.006a4.615,4.615,0,0,1-3.545-3.526c-.05-.228-.1-.44-.135-.621,0-.02-.023-.039-.023-.06,0,.021-.019.04-.023.06-.039.181-.085.393-.135.621a4.614,4.614,0,0,1-3.545,3.526l-.029.006-.675.144a.11.11,0,0,1,0,.013l.056.016.662.143a4.614,4.614,0,0,1,3.533,3.526c.017.076.032.148.046.216.034.157.069.315.108.494a.041.041,0,0,0,0-.009s0,.005,0,.009c.04-.179.075-.337.108-.494l.047-.216a4.613,4.613,0,0,1,3.533-3.526l.662-.143c.019,0,.037-.011.056-.016A.11.11,0,0,1,3204.766,2954.362Z" transform="translate(-2856.748 -2322.495)" fill="#696a7f"/>
    <path id="Path_773" data-name="Path 773" d="M1044.783,2033.353a6.177,6.177,0,0,1-2.471-1.187l.961-1.206a4.626,4.626,0,0,0,1.85.889Zm2.738,0-.343-1.5a4.625,4.625,0,0,0,1.849-.893l.963,1.2A6.175,6.175,0,0,1,1047.521,2033.351Zm-6.921-3.323a6.106,6.106,0,0,1-.614-2.671l1.542,0a4.576,4.576,0,0,0,.46,2Zm11.1-.011-1.389-.67a4.579,4.579,0,0,0,.455-2v-.022h1.542v.009A6.114,6.114,0,0,1,1051.7,2030.017Zm-9.718-4.667-1.391-.667a6.218,6.218,0,0,1,1.7-2.145l.965,1.2A4.66,4.66,0,0,0,1041.98,2025.351Zm8.321-.025a4.664,4.664,0,0,0-1.288-1.6l.958-1.208a6.213,6.213,0,0,1,1.716,2.135Zm-5.2-2.481-.346-1.5a6.238,6.238,0,0,1,2.739-.008l-.337,1.505A4.688,4.688,0,0,0,1045.1,2022.845Z" transform="translate(-838.804 -1453.135)" fill="#364756"/>
    <g id="Group_502" data-name="Group 502" transform="translate(358.161 571.045)">
      <rect id="Rectangle_537" data-name="Rectangle 537" width="27.551" height="0.796" transform="translate(0.45 0.45)" fill="#364756"/>
      <rect id="Rectangle_538" data-name="Rectangle 538" width="28.45" height="1.696" transform="translate(0 0)" fill="#364756"/>
    </g>
    <path id="Path_774" data-name="Path 774" d="M3740.739,1892.744h-2.57V1891.2h2.57Zm-5.141,0h-2.57V1891.2h2.57Zm-5.141,0h-2.57V1891.2h2.57Zm-5.141,0h-2.57V1891.2h2.57Z" transform="translate(-3349.818 -1331.473)" fill="#364756"/>
    <g id="Group_503" data-name="Group 503" transform="translate(212.645 615.669)">
      <rect id="Rectangle_539" data-name="Rectangle 539" width="38.218" height="0.796" transform="translate(0.45 0.45)" fill="#364756"/>
      <rect id="Rectangle_540" data-name="Rectangle 540" width="39.118" height="1.696" fill="#364756"/>
    </g>
    <g id="Group_504" data-name="Group 504" transform="translate(203.621 626.286)">
      <rect id="Rectangle_541" data-name="Rectangle 541" width="19.375" height="0.796" transform="translate(0.45 0.45)" fill="#364756"/>
      <rect id="Rectangle_542" data-name="Rectangle 542" width="20.274" height="1.696" transform="translate(0)" fill="#364756"/>
    </g>
    <g id="Group_505" data-name="Group 505" transform="translate(211.583 634.513)">
      <rect id="Rectangle_543" data-name="Rectangle 543" width="7.166" height="0.796" transform="translate(0.45 0.45)" fill="#364756"/>
      <rect id="Rectangle_544" data-name="Rectangle 544" width="8.066" height="1.696" transform="translate(0 0)" fill="#364756"/>
    </g>
  </g>
</svg>
