<svg xmlns="http://www.w3.org/2000/svg" width="156.117" height="135.02" viewBox="0 0 156.117 135.02">
  <g id="Group_477" data-name="Group 477" transform="translate(-368.293 -42.959)">
    <path id="Path_567" data-name="Path 567" d="M508.975,230.434s20.121.97,21.333,8-23.514.727-23.514.727Z" transform="translate(-104.925 -142.028)" fill="#a0616a"/>
    <rect id="Rectangle_383" data-name="Rectangle 383" width="25.454" height="0.485" transform="translate(478.835 55.074)" fill="#3f3d56"/>
    <rect id="Rectangle_384" data-name="Rectangle 384" width="80.725" height="0.485" transform="translate(378.232 55.074)" fill="#3f3d56"/>
    <path id="Path_568" data-name="Path 568" d="M432.262,212.934l-3.85,13.872,6.516-13.415Z" transform="translate(-45.545 -128.77)" opacity="0.1" style="isolation: isolate"/>
    <rect id="Rectangle_385" data-name="Rectangle 385" width="150.652" height="97.209" transform="translate(368.778 80.77)" fill="#37acb9"/>
    <rect id="Rectangle_386" data-name="Rectangle 386" width="125.814" height="9.697" transform="translate(378.475 102.103)" fill="#fff"/>
    <rect id="Rectangle_387" data-name="Rectangle 387" width="113.517" height="4.848" transform="translate(390.31 127.799)" fill="#fff"/>
    <rect id="Rectangle_388" data-name="Rectangle 388" width="113.517" height="4.848" transform="translate(390.529 136.284)" fill="#fff"/>
    <rect id="Rectangle_389" data-name="Rectangle 389" width="56.759" height="4.848" transform="translate(390.748 144.768)" fill="#fff"/>
    <rect id="Rectangle_390" data-name="Rectangle 390" width="10.424" height="4.848" transform="translate(504.047 169.252)" fill="#fff"/>
    <circle id="Ellipse_136" data-name="Ellipse 136" cx="9.939" cy="9.939" r="9.939" transform="translate(368.293 45.377)" fill="#d0cde1"/>
    <circle id="Ellipse_137" data-name="Ellipse 137" cx="9.939" cy="9.939" r="9.939" transform="translate(413.625 45.377)" fill="#37acb9"/>
    <path id="Path_569" data-name="Path 569" d="M751.475,72.3a10.182,10.182,0,1,1,10.182-10.182A10.182,10.182,0,0,1,751.475,72.3Zm0-19.878a9.7,9.7,0,1,0,9.7,9.7,9.7,9.7,0,0,0-9.7-9.7Z" transform="translate(-282.578 -6.799)" fill="#3f3d56"/>
    <path id="Path_570" data-name="Path 570" d="M938.475,72.3a10.182,10.182,0,1,1,10.182-10.182A10.182,10.182,0,0,1,938.475,72.3Zm0-19.878a9.7,9.7,0,1,0,9.7,9.7,9.7,9.7,0,0,0-9.7-9.7Z" transform="translate(-424.246 -6.799)" fill="#3f3d56"/>
    <path id="Path_571" data-name="Path 571" d="M390.18,59.545,385.873,53.8l1.551-1.164,2.965,3.954,13.633-13.633,1.371,1.371Z" transform="translate(-13.318)" fill="#3f3d56"/>
  </g>
</svg>
