<svg xmlns="http://www.w3.org/2000/svg" width="340.166" height="206.053" viewBox="0 0 340.166 206.053">
  <g id="undraw_small_town_rxs3" transform="translate(-13.759)">
    <path id="Path_251" data-name="Path 251" d="M708.471,321.361l-22.793-27.4H641.3l-27.117,26.413.548.352h-.2v54.939h93.678V320.726Z" transform="translate(-355.422 -170.111)" fill="none" stroke="#b68c4b" stroke-width="1"/>
    <path id="Path_253" data-name="Path 253" d="M746.5,293.125l-27.822,32.618v49.438h50.009V319.538Z" transform="translate(-415.887 -169.628)" fill="#52b590" opacity="0.2"/>
    <rect id="Rectangle_276" data-name="Rectangle 276" width="10.213" height="9.027" transform="translate(322.861 178.213)" fill="#3f3d56"/>
    <rect id="Rectangle_277" data-name="Rectangle 277" width="10.213" height="8.884" transform="translate(322.861 162.588)" fill="#3f3d56"/>
    <rect id="Rectangle_278" data-name="Rectangle 278" width="10.213" height="9.027" transform="translate(322.861 178.213)" fill="#fff"/>
    <rect id="Rectangle_279" data-name="Rectangle 279" width="10.213" height="8.884" transform="translate(322.861 162.588)" fill="#fff"/>
    <path id="Path_254" data-name="Path 254" d="M256.751,188.921l-40.393-48.105H136.942L88.41,188.087l.98.63H89.04v98.324H256.7V188.718Z" transform="translate(-51.162 -81.488)" fill="#fff" stroke="#b68c4b" stroke-width="1"/>
    <path id="Path_255" data-name="Path 255" d="M522.193,209.577l5.451-4.36c-4.235-.467-5.975,1.842-6.687,3.67-3.308-1.374-6.91.427-6.91.427l10.907,3.959a8.253,8.253,0,0,0-2.761-3.7Z" transform="translate(-365.737 -205.156)" fill="#3f3d56"/>
    <path id="Path_256" data-name="Path 256" d="M754.35,237.123l5.451-4.36c-4.235-.467-5.975,1.842-6.687,3.67-3.308-1.374-6.91.427-6.91.427l10.907,3.959A8.254,8.254,0,0,0,754.35,237.123Z" transform="translate(-500.083 -221.097)" fill="#3f3d56"/>
    <path id="Path_257" data-name="Path 257" d="M698.863,315.95l5.451-4.36c-4.235-.467-5.975,1.842-6.687,3.67-3.308-1.374-6.91.427-6.91.427l10.907,3.959a8.253,8.253,0,0,0-2.761-3.7Z" transform="translate(-467.973 -266.713)" fill="#3f3d56"/>
    <path id="Path_258" data-name="Path 258" d="M504.34,257.007l-31.255-37.122H411.761l-37.475,36.5.757.487h-.27V332.8H504.233V256.874Z" transform="translate(-216.595 -127.245)" fill="#fff" stroke="#b68c4b" stroke-width="1"/>
    <path id="Path_259" data-name="Path 259" d="M557.133,218.73l-38.449,45.077V332.13h69.11v-76.9Z" transform="translate(-300.156 -126.576)" fill="#52b590" opacity="0.2"/>
    <path id="Path_260" data-name="Path 260" d="M325.2,139.32,275.41,197.7v88.48h89.5V186.591Z" transform="translate(-159.376 -80.623)" fill="#52b590" opacity="0.2"/>
    <path id="Path_261" data-name="Path 261" d="M341.806,683.593s.219-4.588,4.707-4.054" transform="translate(-266.063 -479.65)" fill="#e6e6e6"/>
    <circle id="Ellipse_130" data-name="Ellipse 130" cx="2.246" cy="2.246" r="2.246" transform="translate(72.228 195.084)" fill="#6c63ff"/>
    <rect id="Rectangle_283" data-name="Rectangle 283" width="0.634" height="4.439" transform="translate(74.109 201.113)" fill="#e6e6e6"/>
    <path id="Path_262" data-name="Path 262" d="M389.452,683.593s.219-4.588,4.707-4.054" transform="translate(-293.635 -479.65)" fill="#e6e6e6"/>
    <circle id="Ellipse_131" data-name="Ellipse 131" cx="2.246" cy="2.246" r="2.246" transform="translate(92.302 195.084)" fill="#6c63ff"/>
    <rect id="Rectangle_284" data-name="Rectangle 284" width="0.634" height="4.439" transform="translate(94.183 201.113)" fill="#e6e6e6"/>
    <path id="Path_263" data-name="Path 263" d="M662.789,683.593s.219-4.588,4.707-4.054" transform="translate(-451.812 -479.65)" fill="#e6e6e6"/>
    <circle id="Ellipse_132" data-name="Ellipse 132" cx="2.246" cy="2.246" r="2.246" transform="translate(207.463 195.084)" fill="#6c63ff"/>
    <rect id="Rectangle_285" data-name="Rectangle 285" width="0.634" height="4.439" transform="translate(209.344 201.113)" fill="#e6e6e6"/>
    <path id="Path_264" data-name="Path 264" d="M864.24,683.593s.219-4.588,4.707-4.054" transform="translate(-568.389 -479.65)" fill="#e6e6e6"/>
    <circle id="Ellipse_133" data-name="Ellipse 133" cx="2.246" cy="2.246" r="2.246" transform="translate(292.337 195.084)" fill="#6c63ff"/>
    <rect id="Rectangle_286" data-name="Rectangle 286" width="0.634" height="4.439" transform="translate(294.217 201.113)" fill="#e6e6e6"/>
    <path id="Path_265" data-name="Path 265" d="M276.606,683.593s.219-4.588,4.707-4.054" transform="translate(-228.332 -479.65)" fill="#e6e6e6"/>
    <circle id="Ellipse_134" data-name="Ellipse 134" cx="2.246" cy="2.246" r="2.246" transform="translate(44.759 195.084)" fill="#6c63ff"/>
    <rect id="Rectangle_287" data-name="Rectangle 287" width="0.634" height="4.439" transform="translate(46.64 201.113)" fill="#e6e6e6"/>
    <path id="Path_267" data-name="Path 267" d="M145.922,226.122l-7.884,10.908-.763-21.634-.943,31.942-7.266-10.053,7.2,12.26-2.385,80.77h7.443l-3.2-90.912Z" transform="translate(-74.689 -124.647)" fill="#e2e2e2"/>
    <path id="Path_268" data-name="Path 268" d="M54.741,144.834l-10.33,14.292-1-28.345-1.236,41.851-9.519-13.171,9.434,16.063L38.967,281.35h9.751l-4.2-119.114Z" transform="translate(-18.898 -75.681)" fill="#3f3d56"/>
    <path id="Path_270" data-name="Path 270" d="M922.4,214.459a30.412,30.412,0,0,0-5.688.541,30.276,30.276,0,0,1,0,59.474,30.277,30.277,0,1,0,5.688-60.016Z" transform="translate(-598.754 -210.54)" fill="#37acb9"/>
    <rect id="Rectangle_288" data-name="Rectangle 288" width="18.278" height="18.689" transform="translate(127.54 128.659)" fill="#3f3d56"/>
    <rect id="Rectangle_289" data-name="Rectangle 289" width="18.278" height="18.689" transform="translate(127.54 154.089)" fill="#3f3d56"/>
    <rect id="Rectangle_290" data-name="Rectangle 290" width="18.278" height="18.689" transform="translate(127.54 128.659)" fill="#fff"/>
    <rect id="Rectangle_291" data-name="Rectangle 291" width="18.278" height="18.689" transform="translate(127.54 154.089)" fill="#fff"/>
    <rect id="Rectangle_296" data-name="Rectangle 296" width="18.278" height="18.689" transform="translate(178.098 128.659)" fill="#3f3d56"/>
    <rect id="Rectangle_297" data-name="Rectangle 297" width="18.278" height="18.689" transform="translate(178.098 154.089)" fill="#3f3d56"/>
    <rect id="Rectangle_298" data-name="Rectangle 298" width="18.278" height="18.689" transform="translate(178.098 128.659)" fill="#fff"/>
    <rect id="Rectangle_299" data-name="Rectangle 299" width="18.278" height="18.689" transform="translate(178.098 154.089)" fill="#fff"/>
    <rect id="Rectangle_300" data-name="Rectangle 300" width="14.114" height="13.664" transform="translate(236.528 166.582)" fill="#3f3d56"/>
    <rect id="Rectangle_301" data-name="Rectangle 301" width="14.114" height="13.664" transform="translate(236.528 146.177)" fill="#3f3d56"/>
    <rect id="Rectangle_302" data-name="Rectangle 302" width="14.114" height="13.664" transform="translate(236.528 166.582)" fill="#fff"/>
    <rect id="Rectangle_303" data-name="Rectangle 303" width="14.114" height="13.664" transform="translate(236.528 146.177)" fill="#fff"/>
    <rect id="Rectangle_304" data-name="Rectangle 304" width="14.114" height="13.664" transform="translate(257.172 166.582)" fill="#3f3d56"/>
    <rect id="Rectangle_305" data-name="Rectangle 305" width="14.114" height="13.664" transform="translate(257.172 146.177)" fill="#3f3d56"/>
    <rect id="Rectangle_306" data-name="Rectangle 306" width="14.114" height="13.664" transform="translate(257.172 166.582)" fill="#fff"/>
    <rect id="Rectangle_307" data-name="Rectangle 307" width="14.114" height="13.664" transform="translate(257.172 146.177)" fill="#fff"/>
  </g>
</svg>
