<svg id="Group_522" data-name="Group 522" xmlns="http://www.w3.org/2000/svg" width="246.936" height="166.239" viewBox="0 0 246.936 166.239">
  <path id="Path_787" data-name="Path 787" d="M1040.1,662.815h0a6.581,6.581,0,0,0-5.33,10.445l-.821,2.446,2.531-.809a6.584,6.584,0,1,0,3.623-12.082Zm3.832,9.3a1.858,1.858,0,0,1-1.292.929c-.344.073-.794.132-2.307-.5a8.251,8.251,0,0,1-3.279-2.9,3.762,3.762,0,0,1-.782-1.986,2.1,2.1,0,0,1,.673-1.6.957.957,0,0,1,.673-.236c.082,0,.155,0,.221.007.194.008.291.02.418.325.159.383.546,1.328.592,1.425a.392.392,0,0,1,.028.357,1.142,1.142,0,0,1-.213.3c-.1.112-.189.2-.286.318-.089.1-.189.216-.077.41a5.837,5.837,0,0,0,1.068,1.328,4.845,4.845,0,0,0,1.544.952.417.417,0,0,0,.464-.073,7.952,7.952,0,0,0,.514-.682.368.368,0,0,1,.473-.143c.178.062,1.119.527,1.312.623s.321.143.368.225A1.641,1.641,0,0,1,1043.931,672.114Z" transform="translate(-812.183 -520.872)" fill="#37acb9"/>
  <path id="Path_788" data-name="Path 788" d="M51.2,330.281c0,3.474-1.923,6.067-4.754,6.067a2.525,2.525,0,0,1-2.152-1.1s-.512,2.039-.621,2.435a7.326,7.326,0,0,1-.869,1.87c-.169-.086-.617-.274-1.051-.452a7.622,7.622,0,0,1,.156-1.936c.167-.72,1.131-4.827,1.131-4.827a3.384,3.384,0,0,1-.283-1.4c0-1.311.756-2.291,1.7-2.291a1.182,1.182,0,0,1,1.189,1.328,19.259,19.259,0,0,1-.78,3.142,1.368,1.368,0,0,0,1.394,1.7c1.666,0,2.79-2.152,2.79-4.7,0-1.942-1.3-3.392-3.664-3.392a4.185,4.185,0,0,0-4.339,4.24,2.558,2.558,0,0,0,.582,1.735.439.439,0,0,1,.126.495c-.043.163-.137.553-.182.711a.3.3,0,0,1-.439.223,3.416,3.416,0,0,1-1.805-3.384c0-2.514,2.112-5.529,6.3-5.529A5.276,5.276,0,0,1,51.2,330.281Z" transform="translate(-30.903 -255.566)" fill="#37acb9"/>
  <path id="Path_789" data-name="Path 789" d="M1054.9,105.65h-5.8a4.037,4.037,0,0,0-4.058,3.99v5.7a4.035,4.035,0,0,0,4.058,3.988h5.8a4.036,4.036,0,0,0,4.058-3.988v-5.7A4.038,4.038,0,0,0,1054.9,105.65Zm-2.9,9.119a2.28,2.28,0,1,1,2.319-2.281,2.3,2.3,0,0,1-2.319,2.281Zm3.769-5.129a.855.855,0,1,1,.87-.854.855.855,0,0,1-.87.854Z" transform="translate(-821.245 -83.025)" fill="#37acb9"/>
  <path id="Path_790" data-name="Path 790" d="M343.273,166.182H278.048a7.722,7.722,0,0,1-4.15-1.195,6.969,6.969,0,0,1-3.284-5.849V7.049A7.258,7.258,0,0,1,278.048,0h15.329V1.4a5.585,5.585,0,0,0,5.73,5.415h21.609a5.885,5.885,0,0,0,3.4-1.059A5.392,5.392,0,0,0,326.445,1.4V0h16.827a7.258,7.258,0,0,1,7.434,7.049V159.138a6.886,6.886,0,0,1-2.618,5.364A7.661,7.661,0,0,1,343.273,166.182ZM278.048.428a6.829,6.829,0,0,0-7.006,6.621V159.138a6.542,6.542,0,0,0,3.086,5.488,7.292,7.292,0,0,0,3.92,1.128h65.224a7.23,7.23,0,0,0,4.547-1.585,6.46,6.46,0,0,0,2.459-5.031V7.049A6.829,6.829,0,0,0,343.273.428h-16.4V1.4a5.821,5.821,0,0,1-2.512,4.707,6.31,6.31,0,0,1-3.646,1.135H299.107A6.013,6.013,0,0,1,292.949,1.4V.428Z" transform="translate(-212.661)" fill="#3f3d56"/>
  <path id="Path_791" data-name="Path 791" d="M367.318,37.478V176.292a6.24,6.24,0,0,1-6.238,6.234H304.725a6.227,6.227,0,0,1-6.238-6.216V37.478a6.238,6.238,0,0,1,6.237-6.238h8.434v1.081a5.137,5.137,0,0,0,5.135,5.138h28.662a5.094,5.094,0,0,0,3.045-1,4.753,4.753,0,0,0,.505-.424,5.122,5.122,0,0,0,1.585-3.711V31.24h8.988a6.236,6.236,0,0,1,6.238,6.234Z" transform="translate(-234.565 -24.55)" fill="#f2f2f2"/>
  <path id="Path_792" data-name="Path 792" d="M409.372,402.977H371.708V362.425h37.664Zm-37.182-.483h36.7V362.908h-36.7Z" transform="translate(-292.106 -284.811)" fill="#3f3d56"/>
  <rect id="Rectangle_549" data-name="Rectangle 549" width="24.727" height="0.483" transform="translate(84.542 36.063)" fill="#3f3d56"/>
  <rect id="Rectangle_550" data-name="Rectangle 550" width="24.727" height="0.483" transform="translate(84.542 42.636)" fill="#3f3d56"/>
  <rect id="Rectangle_551" data-name="Rectangle 551" width="24.727" height="0.483" transform="translate(84.542 49.209)" fill="#3f3d56"/>
  <path id="Path_793" data-name="Path 793" d="M326.437,716.4l-.23-.086c-.051-.019-5.077-1.945-7.432-6.312s-1.2-9.625-1.19-9.677l.054-.24.23.086c.051.019,5.077,1.945,7.432,6.312s1.2,9.625,1.19,9.678Zm-7.285-6.6c1.991,3.692,5.963,5.585,6.97,6.017.191-1.079.792-5.441-1.2-9.129s-5.963-5.584-6.969-6.017c-.191,1.079-.792,5.441,1.2,9.13Z" transform="translate(-249.343 -550.158)" fill="#3f3d56"/>
  <path id="Path_794" data-name="Path 794" d="M297.893,732.7c4.232,2.546,5.862,7.6,5.862,7.6s-5.231.929-9.463-1.617-5.862-7.6-5.862-7.6S293.661,730.152,297.893,732.7Z" transform="translate(-226.662 -574.388)" fill="#37acb9"/>
  <path id="Path_795" data-name="Path 795" d="M425.073,422.47c.008.165.012.333.012.5a10.989,10.989,0,0,1-11.064,11.064,10.854,10.854,0,0,1-5.946-1.758,7.7,7.7,0,0,0,.926.058,7.793,7.793,0,0,0,4.826-1.664,3.9,3.9,0,0,1-3.632-2.7,3.933,3.933,0,0,0,.733.07,3.827,3.827,0,0,0,1.021-.136,3.888,3.888,0,0,1-3.117-3.813v-.045a3.814,3.814,0,0,0,1.766.486,3.9,3.9,0,0,1-1.211-5.192A11.014,11.014,0,0,0,417.4,423.4a3.948,3.948,0,0,1-.1-.89,3.883,3.883,0,0,1,6.72-2.656,7.773,7.773,0,0,0,2.471-.943,3.925,3.925,0,0,1-1.709,2.154,7.9,7.9,0,0,0,2.228-.614A7.9,7.9,0,0,1,425.073,422.47Z" transform="translate(-320.686 -328.978)" fill="#37acb9"/>
  <path id="Path_796" data-name="Path 796" d="M403.072,419.9a15.449,15.449,0,1,1,15.449-15.449h0A15.467,15.467,0,0,1,403.072,419.9Zm0-30.47a15.021,15.021,0,1,0,15.021,15.021h0A15.038,15.038,0,0,0,403.072,389.428Zm-3.521,22.939a11.08,11.08,0,0,1-6.063-1.792l-.768-.5.91.108a7.694,7.694,0,0,0,.9.055,7.525,7.525,0,0,0,4.241-1.289,4.1,4.1,0,0,1-3.25-2.8l-.111-.348.358.073a3.522,3.522,0,0,0,.778.067,4.117,4.117,0,0,1-2.4-3.733V401.8l.319.179a3.59,3.59,0,0,0,.946.366,4.106,4.106,0,0,1-.678-4.994l.156-.268.2.241a10.832,10.832,0,0,0,7.579,3.969,4.173,4.173,0,0,1-.051-.656,4.1,4.1,0,0,1,7.008-2.889,7.494,7.494,0,0,0,2.286-.894l.484-.287-.171.537a4.081,4.081,0,0,1-1.078,1.718,7.636,7.636,0,0,0,1.309-.442l.673-.3-.408.612a8.089,8.089,0,0,1-1.9,2c0,.131.007.264.007.4A11.169,11.169,0,0,1,399.551,412.367Zm-5.072-1.7a10.826,10.826,0,0,0,15.92-9.579c0-.165,0-.33-.012-.491l-.006-.116.094-.068a7.682,7.682,0,0,0,1.455-1.375,8.133,8.133,0,0,1-1.6.361l-1,.123L410.2,399a3.691,3.691,0,0,0,1.394-1.492,7.884,7.884,0,0,1-2,.678l-.116.023-.081-.086a3.669,3.669,0,0,0-6.35,2.51,3.6,3.6,0,0,0,.094.837l.066.278-.285-.014a11.256,11.256,0,0,1-7.957-3.9,3.678,3.678,0,0,0,1.286,4.631l.614.411-.738-.018a4.03,4.03,0,0,1-1.533-.346,3.683,3.683,0,0,0,2.933,3.3l.89.179-.876.238a4.1,4.1,0,0,1-1.482.124,3.674,3.674,0,0,0,3.308,2.22l.6.011-.473.371a7.953,7.953,0,0,1-4.959,1.711Z" transform="translate(-304.613 -305.695)" fill="#3f3d56"/>
  <path id="Path_797" data-name="Path 797" d="M1079.529,136.925a2.494,2.494,0,1,1,2.533-2.493A2.494,2.494,0,0,1,1079.529,136.925Zm0-4.558a2.065,2.065,0,1,0,2.105,2.065A2.088,2.088,0,0,0,1079.529,132.366Z" transform="translate(-846.417 -103.683)" fill="#3f3d56"/>
  <path id="Path_798" data-name="Path 798" d="M1069.369,127.8h-5.8a3.13,3.13,0,0,1-2.2-.9,3,3,0,0,1-.916-2.166v-5.7a3.029,3.029,0,0,1,.915-2.164,3.1,3.1,0,0,1,2.2-.9h5.8a3.129,3.129,0,0,1,2.2.9,3,3,0,0,1,.916,2.165v5.7a3.029,3.029,0,0,1-.915,2.164A3.1,3.1,0,0,1,1069.369,127.8Zm-5.8-11.4a2.679,2.679,0,0,0-1.9.775,2.6,2.6,0,0,0-.788,1.86v5.7a2.581,2.581,0,0,0,.787,1.859,2.7,2.7,0,0,0,1.9.776h5.8a2.678,2.678,0,0,0,1.9-.775,2.6,2.6,0,0,0,.788-1.86v-5.7a2.579,2.579,0,0,0-.787-1.859,2.7,2.7,0,0,0-1.9-.776Zm2.9,9.117a3.633,3.633,0,1,1,3.693-3.633A3.633,3.633,0,0,1,1066.47,125.52Zm0-6.838a3.205,3.205,0,1,0,3.265,3.2A3.239,3.239,0,0,0,1066.47,118.682Zm3.769.57a1.069,1.069,0,1,1,1.084-1.069A1.069,1.069,0,0,1,1070.239,119.252Zm0-1.709a.641.641,0,1,0,.656.641A.649.649,0,0,0,1070.239,117.543Z" transform="translate(-833.359 -91.139)" fill="#3f3d56"/>
  <path id="Path_799" data-name="Path 799" d="M1036.561,107.472a13.738,13.738,0,1,1,13.974-13.736A13.872,13.872,0,0,1,1036.561,107.472Zm0-27.044a13.31,13.31,0,1,0,13.545,13.308A13.443,13.443,0,0,0,1036.561,80.428Zm3.048,20.24h-5.8a4.243,4.243,0,0,1-4.273-4.2v-5.7a4.243,4.243,0,0,1,4.273-4.2h5.8a4.243,4.243,0,0,1,4.273,4.2v5.7a4.243,4.243,0,0,1-4.273,4.2Zm-5.8-13.675a3.815,3.815,0,0,0-3.845,3.774v5.7a3.815,3.815,0,0,0,3.845,3.774h5.8a3.814,3.814,0,0,0,3.844-3.774v-5.7a3.814,3.814,0,0,0-3.844-3.774Z" transform="translate(-803.598 -62.868)" fill="#3f3d56"/>
  <path id="Path_800" data-name="Path 800" d="M1027.8,663.413a13.738,13.738,0,1,1,13.974-13.736A13.872,13.872,0,0,1,1027.8,663.413Zm0-27.044a13.31,13.31,0,1,0,13.545,13.308A13.443,13.443,0,0,0,1027.8,636.369Z" transform="translate(-796.711 -499.753)" fill="#3f3d56"/>
  <path id="Path_801" data-name="Path 801" d="M15.146,315.44a15.22,15.22,0,1,1,15.146-15.22A15.2,15.2,0,0,1,15.146,315.44Zm0-30.012A14.792,14.792,0,1,0,29.864,300.22,14.772,14.772,0,0,0,15.146,285.428Zm.089,23.769a9.032,9.032,0,0,1-2.558-.372l-.271-.08.15-.239a7.04,7.04,0,0,0,.86-1.839c.109-.39.615-2.41.62-2.431l.137-.545.261.5a2.322,2.322,0,0,0,1.962.988c2.673,0,4.54-2.406,4.54-5.852a5.066,5.066,0,0,0-5.362-4.857c-4.2,0-6.082,3.108-6.082,5.315,0,1.587.609,2.748,1.672,3.185a.132.132,0,0,0,.1.01.135.135,0,0,0,.053-.087c.024-.086.061-.236.1-.382.032-.129.064-.255.084-.331.038-.144.04-.152-.084-.3A2.778,2.778,0,0,1,10.782,300a4.408,4.408,0,0,1,4.552-4.455c2.357,0,3.879,1.415,3.879,3.605,0,2.805-1.292,4.921-3.006,4.921a1.662,1.662,0,0,1-1.318-.611,1.562,1.562,0,0,1-.282-1.355c.1-.416.229-.841.355-1.252a7.3,7.3,0,0,0,.418-1.841.992.992,0,0,0-.973-1.114c-.833,0-1.485.913-1.485,2.078a3.226,3.226,0,0,0,.261,1.3l.034.069-.017.075-1.132,4.826a7.533,7.533,0,0,0-.148,1.974l.013.343-.314-.139a9.056,9.056,0,1,1,12.641-8.31v.009A9.055,9.055,0,0,1,15.235,309.2Zm-2.167-.708a8.639,8.639,0,1,0-1.586-.593,7.45,7.45,0,0,1,.167-1.74l1.116-4.755a3.735,3.735,0,0,1-.272-1.421c0-1.405.84-2.506,1.913-2.506a1.383,1.383,0,0,1,1.4,1.542,7.512,7.512,0,0,1-.437,1.967c-.124.4-.253.822-.347,1.224a1.143,1.143,0,0,0,.2.992,1.237,1.237,0,0,0,.983.449c1.47,0,2.578-1.931,2.578-4.493,0-1.96-1.322-3.177-3.451-3.177A3.989,3.989,0,0,0,11.21,300a2.369,2.369,0,0,0,.532,1.6.637.637,0,0,1,.169.687c-.02.075-.051.2-.082.324-.037.15-.076.3-.1.389a.514.514,0,0,1-.729.363,3.615,3.615,0,0,1-1.937-3.581c0-2.823,2.435-5.743,6.51-5.743a5.488,5.488,0,0,1,5.79,5.285c0,3.639-2.09,6.28-4.969,6.28a2.976,2.976,0,0,1-2.054-.827c-.157.623-.434,1.719-.513,2A7.049,7.049,0,0,1,13.068,308.489Z" transform="translate(0 -223.967)" fill="#3f3d56"/>
  <path id="Path_802" data-name="Path 802" d="M725.831,228a19.74,19.74,0,0,1-7.589-1.486c-6.714-2.8-11.161-8.826-15.461-14.655a79.721,79.721,0,0,0-7.464-9.14,28.5,28.5,0,0,0-14.742-8.2,19.686,19.686,0,0,0-16.083,3.793,15.113,15.113,0,0,0-1.487,1.422q.913.111,1.821.237c6.367.882,14.354,3.33,16.238,9.979a9.741,9.741,0,0,1-1.412,7.926,10.863,10.863,0,0,1-7.393,4.9,10.261,10.261,0,0,1-1.423.1,12.819,12.819,0,0,1-11.862-9.195,15.352,15.352,0,0,1,3.178-13.612,112.431,112.431,0,0,0-11.53-.717l0-.428a112.784,112.784,0,0,1,11.859.752,15.555,15.555,0,0,1,1.732-1.689,20.12,20.12,0,0,1,16.435-3.885,28.919,28.919,0,0,1,14.966,8.32,80.009,80.009,0,0,1,7.506,9.189c4.462,6.048,8.676,11.76,15.281,14.514a19.694,19.694,0,0,0,26.767-22.608l.417-.1A20.024,20.024,0,0,1,725.831,228Zm-63.17-27.877a14.942,14.942,0,0,0-3.275,13.435c1.6,5.61,7.35,9.553,12.813,8.79a10.431,10.431,0,0,0,7.094-4.707,9.314,9.314,0,0,0,1.359-7.575c-1.821-6.426-9.643-8.806-15.885-9.671Q663.718,200.251,662.661,200.125Z" transform="translate(-511.291 -152.241)" fill="#3f3d56"/>
  <path id="Path_803" data-name="Path 803" d="M671.4,450.8a15.007,15.007,0,0,1,6.134,2.723c5.14,3.865,7.738,10.52,10.249,16.956a78.569,78.569,0,0,0,4.549,10.212c2.869,5.04,6.634,8.672,10.888,10.5a15.257,15.257,0,0,0,14.342-1.041,14.121,14.121,0,0,0,1.533-1.147q-.751-.261-1.495-.536c-5.217-1.927-11.5-5.66-11.81-12.5a11.045,11.045,0,0,1,2.727-7.541,9.408,9.408,0,0,1,7.2-3.573,7.676,7.676,0,0,1,1.223.141c4.408.868,8,5.523,8.259,11a17.229,17.229,0,0,1-5.32,12.825,83.768,83.768,0,0,0,9.617,2.625l-.087.419a84.056,84.056,0,0,1-9.888-2.715,14.6,14.6,0,0,1-1.792,1.368,15.6,15.6,0,0,1-14.657,1.072c-4.323-1.862-8.146-5.548-11.055-10.658a78.868,78.868,0,0,1-4.575-10.267c-2.606-6.678-5.068-12.985-10.124-16.787a15.5,15.5,0,0,0-17.769-.308C654,457.21,650.287,464.455,650.3,471.6l-.372.025c-.015-7.3,3.783-14.7,9.45-18.42A16.253,16.253,0,0,1,671.4,450.8Zm48.062,37.882a16.734,16.734,0,0,0,5.367-12.635c-.271-5.771-4.373-10.6-9.142-10.76a9.036,9.036,0,0,0-6.912,3.436,10.56,10.56,0,0,0-2.614,7.206c.3,6.609,6.457,10.248,11.571,12.137Q718.594,488.381,719.463,488.68Z" transform="translate(-510.746 -354.027)" fill="#3f3d56"/>
  <path id="Path_804" data-name="Path 804" d="M100.262,268.282a25.974,25.974,0,0,1-5.717-.617,21.249,21.249,0,0,1-11.9-7.226c-1-1.2-1.92-2.554-2.8-3.86A29.751,29.751,0,0,0,75.4,251.02a7.765,7.765,0,0,0-5.832-2.086,4.748,4.748,0,0,0-3.427,2.107l-.354-.241a5.164,5.164,0,0,1,3.729-2.291,8.088,8.088,0,0,1,6.169,2.192,30.062,30.062,0,0,1,4.507,5.638c.879,1.3,1.788,2.639,2.778,3.825,5.778,6.919,14.955,9.336,25.18,6.633l.109.414A31.381,31.381,0,0,1,100.262,268.282Z" transform="translate(-51.699 -195.255)" fill="#3f3d56"/>
  <path id="Path_805" data-name="Path 805" d="M1044.326,678.528a6.43,6.43,0,0,0,3.321.92,6.449,6.449,0,1,0-5.53-3.129l-.925,3.134Zm-2.37-5.556a5.689,5.689,0,1,1,2.63,4.824l-.146-.093-2.125.627.627-2.125-.093-.146A5.715,5.715,0,0,1,1041.956,672.972Z" transform="translate(-818.219 -523.764)"/>
  <path id="Path_806" data-name="Path 806" d="M1055.594,680.383a5.721,5.721,0,0,0,4.589,4.588,2.906,2.906,0,0,0,2.4-.376l.3-.3a.805.805,0,0,0,0-1.139l-1.205-1.205a.806.806,0,0,0-1.139,0l-.3.3a.536.536,0,0,1-.717,0l-1.2-1.253-.005-.006a.473.473,0,0,1,0-.669l.3-.3a.805.805,0,0,0,0-1.139l-1.205-1.205a.807.807,0,0,0-1.139,0l-.3.3h0A2.809,2.809,0,0,0,1055.594,680.383Zm.912-1.864c.316-.309.3-.315.334-.315a.046.046,0,0,1,.033.014c1.27,1.277,1.219,1.2,1.219,1.238a.046.046,0,0,1-.014.033l-.3.3a1.231,1.231,0,0,0,0,1.739l1.2,1.253.005.006a1.294,1.294,0,0,0,1.792,0l.3-.3a.047.047,0,0,1,.066,0c1.27,1.277,1.219,1.2,1.219,1.238a.045.045,0,0,1-.014.033l-.3.3a2.245,2.245,0,0,1-1.722.167,4.963,4.963,0,0,1-3.985-3.985A2.245,2.245,0,0,1,1056.506,678.519Z" transform="translate(-829.466 -532.369)"/>
</svg>
