<svg xmlns="http://www.w3.org/2000/svg" width="131.643" height="138.081" viewBox="0 0 131.643 138.081">
  <g id="Group_521" data-name="Group 521" transform="translate(-280 -1454)">
    <g id="Group_507" data-name="Group 507" transform="translate(280 1454)">
      <path id="Path_775" data-name="Path 775" d="M4.378,4.521,30.09,0V32.6H0Z" transform="translate(0 3.303)" fill="#102744"/>
      <path id="Path_776" data-name="Path 776" d="M4.378,4.521,30.09,0V32.6H0Z" transform="translate(0 105.483)" fill="#37acb9"/>
      <path id="Path_777" data-name="Path 777" d="M4.378,4.521,30.09,0V32.6H0Z" transform="translate(30.09 86.05) rotate(180)" fill="#b68c4b"/>
      <path id="Path_778" data-name="Path 778" d="M-5.748-5.269l33.693,3.3v32.6H-2.145Z" transform="translate(52.921 5.269)" fill="#b68c4b"/>
      <path id="Path_779" data-name="Path 779" d="M-5.748-5.269l33.693,3.3v32.6H-2.145Z" transform="translate(52.921 107.449)" fill="#102744"/>
      <path id="Path_780" data-name="Path 780" d="M0,0,33.693,3.3V35.9H3.6Z" transform="translate(80.867 86.05) rotate(180)" fill="#37acb9"/>
      <path id="Path_781" data-name="Path 781" d="M1.285,3.725l25.137-6.9L30.09,31.412H0Z" transform="translate(101.553 4.488)" fill="#37acb9"/>
      <path id="Path_782" data-name="Path 782" d="M1.285,3.725l25.137-6.9L30.09,31.412H0Z" transform="translate(101.553 106.668)" fill="#b68c4b"/>
      <path id="Path_783" data-name="Path 783" d="M1.285,6.9,26.423,0,30.09,34.589H0Z" transform="translate(131.643 86.05) rotate(180)" fill="#102744"/>
    </g>
    <g id="loupe" transform="translate(329.269 1507.496)">
      <g id="Group_509" data-name="Group 509">
        <g id="Group_508" data-name="Group 508">
          <path id="Path_784" data-name="Path 784" d="M15.842,0A15.842,15.842,0,1,0,31.683,15.842,15.86,15.86,0,0,0,15.842,0Zm0,28.759A12.917,12.917,0,1,1,28.759,15.842,12.932,12.932,0,0,1,15.842,28.759Z" fill="#52b590" stroke="#fff" stroke-width="3"/>
        </g>
      </g>
      <g id="Group_511" data-name="Group 511" transform="translate(24.664 24.664)">
        <g id="Group_510" data-name="Group 510">
          <path id="Path_785" data-name="Path 785" d="M361.926,359.858l-8.384-8.384a1.462,1.462,0,1,0-2.068,2.068l8.384,8.384a1.462,1.462,0,0,0,2.068-2.068Z" transform="translate(-351.046 -351.046)" fill="#52b590" stroke="#fff" stroke-width="3"/>
        </g>
      </g>
    </g>
    <g id="Group_512" data-name="Group 512" transform="translate(390.19 1467.129)">
      <path id="Path_786" data-name="Path 786" d="M789.059,375.966l-13.9-.267.016-14.313,11.592.013Z" transform="translate(-775.154 -361.386)" fill="none" stroke="#fff" stroke-miterlimit="10" stroke-width="1"/>
      <rect id="Rectangle_545" data-name="Rectangle 545" width="1.306" height="8.708" transform="translate(1.855 10.125) rotate(-89.935)" fill="#fff"/>
      <rect id="Rectangle_546" data-name="Rectangle 546" width="0.98" height="8.49" transform="translate(2.071 12.084) rotate(-89.935)" fill="#fff"/>
      <rect id="Rectangle_547" data-name="Rectangle 547" width="0.762" height="3.374" transform="translate(6.865 7.736) rotate(-89.936)" fill="#fff"/>
      <rect id="Rectangle_548" data-name="Rectangle 548" width="3.265" height="7.837" transform="translate(2.405 4.792) rotate(-89.935)" fill="#fff"/>
    </g>
    <g id="Group_513" data-name="Group 513" transform="translate(338.762 1467.129)">
      <path id="Path_786-2" data-name="Path 786" d="M789.059,375.966l-13.9-.267.016-14.313,11.592.013Z" transform="translate(-775.154 -361.386)" fill="none" stroke="#fff" stroke-miterlimit="10" stroke-width="1"/>
      <rect id="Rectangle_545-2" data-name="Rectangle 545" width="1.306" height="8.708" transform="translate(1.855 10.125) rotate(-89.935)" fill="#fff"/>
      <rect id="Rectangle_546-2" data-name="Rectangle 546" width="0.98" height="8.49" transform="translate(2.071 12.084) rotate(-89.935)" fill="#fff"/>
      <rect id="Rectangle_547-2" data-name="Rectangle 547" width="0.762" height="3.374" transform="translate(6.865 7.736) rotate(-89.936)" fill="#fff"/>
      <rect id="Rectangle_548-2" data-name="Rectangle 548" width="3.265" height="7.837" transform="translate(2.405 4.792) rotate(-89.935)" fill="#fff"/>
    </g>
    <g id="Group_514" data-name="Group 514" transform="translate(288.038 1467.129)">
      <path id="Path_786-3" data-name="Path 786" d="M775.154,375.966l13.9-.267-.016-14.313-11.592.013Z" transform="translate(-775.154 -361.386)" fill="none" stroke="#fff" stroke-miterlimit="10" stroke-width="1"/>
      <rect id="Rectangle_545-3" data-name="Rectangle 545" width="1.306" height="8.708" transform="translate(3.342 10.135) rotate(-90.065)" fill="#fff"/>
      <rect id="Rectangle_546-3" data-name="Rectangle 546" width="0.98" height="8.49" transform="translate(3.344 12.094) rotate(-90.065)" fill="#fff"/>
      <rect id="Rectangle_547-3" data-name="Rectangle 547" width="0.762" height="3.374" transform="translate(3.666 7.74) rotate(-90.064)" fill="#fff"/>
      <rect id="Rectangle_548-3" data-name="Rectangle 548" width="3.265" height="7.837" transform="matrix(-0.001, -1, 1, -0.001, 3.663, 4.801)" fill="#fff"/>
    </g>
    <g id="Group_517" data-name="Group 517" transform="translate(390.19 1512.217)">
      <path id="Path_786-4" data-name="Path 786" d="M775.154,375.966l13.9-.267-.016-14.313-11.592.013Z" transform="translate(-775.154 -361.386)" fill="none" stroke="#fff" stroke-miterlimit="10" stroke-width="1"/>
      <rect id="Rectangle_545-4" data-name="Rectangle 545" width="1.306" height="8.708" transform="translate(3.342 10.135) rotate(-90.065)" fill="#fff"/>
      <rect id="Rectangle_546-4" data-name="Rectangle 546" width="0.98" height="8.49" transform="translate(3.344 12.094) rotate(-90.065)" fill="#fff"/>
      <rect id="Rectangle_547-4" data-name="Rectangle 547" width="0.762" height="3.374" transform="translate(3.666 7.74) rotate(-90.064)" fill="#fff"/>
      <rect id="Rectangle_548-4" data-name="Rectangle 548" width="3.265" height="7.837" transform="matrix(-0.001, -1, 1, -0.001, 3.663, 4.801)" fill="#fff"/>
    </g>
    <g id="Group_518" data-name="Group 518" transform="translate(338.762 1568.576)">
      <path id="Path_786-5" data-name="Path 786" d="M775.154,375.966l13.9-.267-.016-14.313-11.592.013Z" transform="translate(-775.154 -361.386)" fill="none" stroke="#fff" stroke-miterlimit="10" stroke-width="1"/>
      <rect id="Rectangle_545-5" data-name="Rectangle 545" width="1.306" height="8.708" transform="translate(3.342 10.135) rotate(-90.065)" fill="#fff"/>
      <rect id="Rectangle_546-5" data-name="Rectangle 546" width="0.98" height="8.49" transform="translate(3.344 12.094) rotate(-90.065)" fill="#fff"/>
      <rect id="Rectangle_547-5" data-name="Rectangle 547" width="0.762" height="3.374" transform="translate(3.666 7.74) rotate(-90.064)" fill="#fff"/>
      <rect id="Rectangle_548-5" data-name="Rectangle 548" width="3.265" height="7.837" transform="matrix(-0.001, -1, 1, -0.001, 3.663, 4.801)" fill="#fff"/>
    </g>
    <g id="Group_515" data-name="Group 515" transform="translate(286.629 1515.035)">
      <path id="Path_786-6" data-name="Path 786" d="M789.059,375.966l-13.9-.267.016-14.313,11.592.013Z" transform="translate(-775.154 -361.386)" fill="none" stroke="#fff" stroke-miterlimit="10" stroke-width="1"/>
      <rect id="Rectangle_545-6" data-name="Rectangle 545" width="1.306" height="8.708" transform="translate(1.855 10.125) rotate(-89.935)" fill="#fff"/>
      <rect id="Rectangle_546-6" data-name="Rectangle 546" width="0.98" height="8.49" transform="translate(2.071 12.084) rotate(-89.935)" fill="#fff"/>
      <rect id="Rectangle_547-6" data-name="Rectangle 547" width="0.762" height="3.374" transform="translate(6.865 7.736) rotate(-89.936)" fill="#fff"/>
      <rect id="Rectangle_548-6" data-name="Rectangle 548" width="3.265" height="7.837" transform="matrix(0.001, -1, 1, 0.001, 2.405, 4.792)" fill="#fff"/>
    </g>
    <g id="Group_519" data-name="Group 519" transform="translate(390.19 1569.985)">
      <path id="Path_786-7" data-name="Path 786" d="M789.059,375.966l-13.9-.267.016-14.313,11.592.013Z" transform="translate(-775.154 -361.386)" fill="none" stroke="#fff" stroke-miterlimit="10" stroke-width="1"/>
      <rect id="Rectangle_545-7" data-name="Rectangle 545" width="1.306" height="8.708" transform="translate(1.855 10.125) rotate(-89.935)" fill="#fff"/>
      <rect id="Rectangle_546-7" data-name="Rectangle 546" width="0.98" height="8.49" transform="translate(2.071 12.084) rotate(-89.935)" fill="#fff"/>
      <rect id="Rectangle_547-7" data-name="Rectangle 547" width="0.762" height="3.374" transform="translate(6.865 7.736) rotate(-89.936)" fill="#fff"/>
      <rect id="Rectangle_548-7" data-name="Rectangle 548" width="3.265" height="7.837" transform="matrix(0.001, -1, 1, 0.001, 2.405, 4.792)" fill="#fff"/>
    </g>
    <g id="Group_520" data-name="Group 520" transform="translate(288.038 1571.394)">
      <path id="Path_786-8" data-name="Path 786" d="M789.059,375.966l-13.9-.267.016-14.313,11.592.013Z" transform="translate(-775.154 -361.386)" fill="none" stroke="#fff" stroke-miterlimit="10" stroke-width="1"/>
      <rect id="Rectangle_545-8" data-name="Rectangle 545" width="1.306" height="8.708" transform="translate(1.855 10.125) rotate(-89.935)" fill="#fff"/>
      <rect id="Rectangle_546-8" data-name="Rectangle 546" width="0.98" height="8.49" transform="translate(2.071 12.084) rotate(-89.935)" fill="#fff"/>
      <rect id="Rectangle_547-8" data-name="Rectangle 547" width="0.762" height="3.374" transform="translate(6.865 7.736) rotate(-89.936)" fill="#fff"/>
      <rect id="Rectangle_548-8" data-name="Rectangle 548" width="3.265" height="7.837" transform="matrix(0.001, -1, 1, 0.001, 2.405, 4.792)" fill="#fff"/>
    </g>
    <g id="Group_516" data-name="Group 516" transform="translate(338.057 1515.035)">
      <path id="Path_786-9" data-name="Path 786" d="M789.059,375.966l-13.9-.267.016-14.313,11.592.013Z" transform="translate(-775.154 -361.386)" fill="none" stroke="#02fea0" stroke-miterlimit="10" stroke-width="1"/>
      <rect id="Rectangle_545-9" data-name="Rectangle 545" width="1.306" height="8.708" transform="translate(1.855 10.125) rotate(-89.935)" fill="#02ffa0"/>
      <rect id="Rectangle_546-9" data-name="Rectangle 546" width="0.98" height="8.49" transform="translate(2.071 12.084) rotate(-89.935)" fill="#02ffa0"/>
      <rect id="Rectangle_547-9" data-name="Rectangle 547" width="0.762" height="3.374" transform="translate(6.865 7.736) rotate(-89.936)" fill="#02ffa0"/>
      <rect id="Rectangle_548-9" data-name="Rectangle 548" width="3.265" height="7.837" transform="matrix(0.001, -1, 1, 0.001, 2.405, 4.792)" fill="#02ffa0"/>
    </g>
  </g>
</svg>
